<?xml version="1.0" encoding="utf-8"?>
<!-- Generator: Adobe Illustrator 16.0.3, SVG Export Plug-In . SVG Version: 6.00 Build 0)  -->
<!DOCTYPE svg PUBLIC "-//W3C//DTD SVG 1.1//EN" "http://www.w3.org/Graphics/SVG/1.1/DTD/svg11.dtd">
<svg version="1.1" id="Capa_1" xmlns="http://www.w3.org/2000/svg" xmlns:xlink="http://www.w3.org/1999/xlink" x="0px" y="0px"
	 width="63px" height="56px" viewBox="0 0 63 56" enable-background="new 0 0 63 56" xml:space="preserve">
<path fill="none" stroke="#000000" stroke-width="0.5486" stroke-linecap="round" stroke-linejoin="round" stroke-miterlimit="10" stroke-dasharray="1.37,1.37" d="
	M60.363,24.13c0-3.676-2.989-6.638-6.638-6.638H42.314V8.988c0-3.73-3.018-6.748-6.748-6.748c-3.731,0-6.749,3.018-6.749,6.748
	v5.761c-0.137,1.563-1.454,2.798-3.045,2.798c-0.083,0-0.192,0-0.274,0.027c-2.167,0.22-4.087,1.152-5.541,2.551
	c-1.317-1.563-3.347-2.579-5.596-2.579H9.588c-3.923,0-7.132,3.018-7.132,6.721v22.439c0,3.703,3.209,6.721,7.132,6.721h4.773
	c2.277,0,4.334-1.016,5.624-2.606c1.646,1.618,3.922,2.606,6.419,2.606h21.725c3.155,0,5.706-2.552,5.706-5.706
	c0-0.741-0.137-1.481-0.411-2.14c1.618-1.152,2.688-3.045,2.688-5.157c0-1.015-0.246-2.003-0.686-2.853
	c1.674-1.207,2.744-3.183,2.744-5.377c0-0.905-0.192-1.811-0.549-2.633C59.321,28.3,60.363,26.325,60.363,24.13z"/>
<path fill="#0DD13B" stroke="#000000" stroke-width="0.6858" stroke-linecap="round" stroke-linejoin="round" stroke-miterlimit="10" d="
	M19.244,46.953c0,2.606-2.304,4.719-5.13,4.719H9.232c-2.853,0-5.13-2.112-5.13-4.719V24.185c0-2.606,2.304-4.718,5.13-4.718h4.855
	c2.853,0,5.13,2.112,5.13,4.718v22.768H19.244z"/>
<path fill="#FFFFFF" stroke="#000000" stroke-width="0.6858" stroke-linecap="round" stroke-linejoin="round" stroke-miterlimit="10" d="
	M58.718,24.076c0-2.579-2.085-4.664-4.663-4.664H40.366V8.659c0-2.633-2.14-4.746-4.745-4.746c-2.634,0-4.746,2.14-4.746,4.746
	v5.925c-0.165,2.715-2.414,4.855-5.185,4.855c-3.621,0.329-6.446,3.265-6.446,6.831v18.543c0,3.786,3.182,6.858,7.105,6.858h0.987
	h10.479h10.589c2.029,0,3.703-1.646,3.703-3.703c0-1.317-0.686-2.469-1.729-3.127c2.25-0.138,4.032-2.003,4.032-4.28
	c0-1.591-0.878-2.989-2.167-3.73c2.387-0.192,4.252-2.194,4.252-4.636c0-1.427-0.631-2.716-1.646-3.566
	C57.045,28.3,58.718,26.38,58.718,24.076z"/>
<path fill="#FFFFFF" stroke="#000000" stroke-width="0.6858" stroke-linecap="round" stroke-linejoin="round" stroke-miterlimit="10" d="
	M14.334,28.081c0,1.482-1.18,2.661-2.661,2.661c-1.481,0-2.661-1.179-2.661-2.661c0-1.481,1.18-2.661,2.661-2.661
	C13.154,25.42,14.334,26.627,14.334,28.081z"/>
<path fill="none" stroke="#000000" stroke-width="0.6858" stroke-linecap="round" stroke-linejoin="round" stroke-miterlimit="10" d="
	M54.85,28.656h-7.297"/>
<path fill="none" stroke="#000000" stroke-width="0.6858" stroke-linecap="round" stroke-linejoin="round" stroke-miterlimit="10" d="
	M52.655,36.831h-5.103"/>
<path fill="none" stroke="#000000" stroke-width="0.6858" stroke-linecap="round" stroke-linejoin="round" stroke-miterlimit="10" d="
	M50.57,44.869h-3.018"/>
</svg>
