<svg width="21" height="21" viewBox="0 0 21 21" fill="none" xmlns="http://www.w3.org/2000/svg">
<path d="M16.6708 3.18664L16.2854 1.00148C16.2292 0.682813 15.9253 0.47 15.6067 0.526211H15.6066C15.2879 0.582422 15.0751 0.886328 15.1313 1.205L15.2672 1.97535C13.7033 1.01699 11.8932 0.5 10.0425 0.5C7.37139 0.5 4.86018 1.5402 2.97139 3.42891C1.08264 5.3177 0.0424805 7.82891 0.0424805 10.5C0.0424805 10.8236 0.304824 11.0859 0.628418 11.0859C0.952012 11.0859 1.21436 10.8236 1.21436 10.5C1.21436 5.63215 5.17463 1.67188 10.0425 1.67188C11.6628 1.67188 13.2481 2.12055 14.6207 2.95316L13.8067 3.09668C13.4881 3.15285 13.2753 3.45676 13.3315 3.77547C13.3877 4.09414 13.6915 4.30695 14.0103 4.25074L16.1955 3.86539C16.5142 3.80922 16.7269 3.50531 16.6708 3.18664Z" fill="white"/>
<path d="M16.4267 9.01055L15.5114 8.7952C15.4086 8.46504 15.276 8.14523 15.1149 7.83883L15.61 7.03895C15.7531 6.80777 15.7184 6.50848 15.5262 6.31621L14.2263 5.01637C14.0341 4.8241 13.7348 4.78934 13.5036 4.9325L12.7037 5.4277C12.3972 5.26652 12.0774 5.13391 11.7473 5.03113L11.532 4.11586C11.4697 3.85113 11.2335 3.66406 10.9616 3.66406H9.12334C8.85143 3.66406 8.61525 3.85113 8.55299 4.11578L8.33764 5.03105C8.00752 5.13387 7.68772 5.26645 7.38127 5.42762L6.58139 4.93242C6.35018 4.7893 6.05092 4.82402 5.85861 5.01629L4.55881 6.31613C4.36654 6.5084 4.33182 6.80766 4.47494 7.03887L4.9701 7.83875C4.80896 8.1452 4.67635 8.46496 4.57354 8.79512L3.65826 9.01047C3.39361 9.07281 3.20654 9.30898 3.20654 9.5809V11.4191C3.20654 11.691 3.39361 11.9272 3.65826 11.9895L4.57354 12.2048C4.67635 12.535 4.80896 12.8548 4.9701 13.1612L4.47494 13.9611C4.33182 14.1922 4.36654 14.4915 4.55881 14.6838L5.85861 15.9836C6.05088 16.1759 6.35018 16.2107 6.58139 16.0675L7.38127 15.5723C7.68772 15.7335 8.00752 15.8661 8.33764 15.9689L8.55299 16.8841C8.61529 17.1489 8.85146 17.3359 9.12334 17.3359H10.9616C11.2335 17.3359 11.4697 17.1489 11.5319 16.8842L11.7473 15.9689C12.0774 15.8661 12.3972 15.7336 12.7037 15.5724L13.5035 16.0676C13.7347 16.2107 14.034 16.176 14.2263 15.9837L15.5261 14.6838C15.7184 14.4916 15.7531 14.1923 15.61 13.9611L15.1148 13.1612C15.276 12.8548 15.4086 12.535 15.5114 12.2049L16.4267 11.9895C16.6913 11.9273 16.8784 11.6911 16.8784 11.4192V9.58098C16.8784 9.30898 16.6913 9.07281 16.4267 9.01055ZM10.0425 13.2344C8.53232 13.2344 7.30811 12.0102 7.30811 10.5C7.30811 8.98984 8.53232 7.76562 10.0425 7.76562C11.5526 7.76562 12.7769 8.98984 12.7769 10.5C12.7769 12.0102 11.5526 13.2344 10.0425 13.2344Z" fill="white"/>
<path d="M3.41427 17.8134L3.79958 19.9985C3.85579 20.3172 4.1597 20.53 4.47837 20.4738C4.79704 20.4176 5.00989 20.1137 4.95368 19.795L4.81786 19.0246C6.38169 19.983 8.19181 20.5 10.0425 20.5C12.7136 20.5 15.2249 19.4598 17.1136 17.5711C19.0024 15.6823 20.0425 13.1711 20.0425 10.5C20.0425 10.1764 19.7802 9.91406 19.4566 9.91406C19.133 9.91406 18.8707 10.1764 18.8707 10.5C18.8707 15.3679 14.9104 19.3281 10.0425 19.3281C8.4222 19.3281 6.83696 18.8795 5.46431 18.0468L6.27829 17.9033C6.59696 17.8471 6.80978 17.5432 6.75356 17.2245C6.69735 16.9059 6.39349 16.693 6.07478 16.7493L3.88954 17.1346C3.57087 17.1908 3.3581 17.4947 3.41427 17.8134Z" fill="white"/>
</svg>
