<svg width="19" height="19" viewBox="0 0 19 19" fill="none" xmlns="http://www.w3.org/2000/svg">
<path d="M9.04261 0.435256C7.48564 0.432968 5.95478 0.835217 4.60005 1.60259C3.24532 2.36996 2.11319 3.47612 1.3146 4.81269C0.516007 6.14925 0.0783526 7.67036 0.0445206 9.22696C0.0106886 10.7836 0.38184 12.3223 1.12161 13.6923L0.084606 17.1473C0.0396835 17.2966 0.0303262 17.4544 0.0572823 17.6081C0.0842384 17.7617 0.14676 17.9069 0.23985 18.0321C0.332941 18.1572 0.454018 18.2589 0.593406 18.3289C0.732793 18.3989 0.886625 18.4353 1.04261 18.4353C1.14012 18.4351 1.23711 18.421 1.33061 18.3933L4.78561 17.3563C5.99152 18.0068 7.33004 18.3734 8.69913 18.4281C10.0682 18.4828 11.4317 18.2242 12.6857 17.672C13.9397 17.1197 15.051 16.2885 15.935 15.2416C16.8189 14.1947 17.4522 12.9598 17.7865 11.631C18.1208 10.3023 18.1473 8.91471 17.864 7.57415C17.5806 6.23359 16.9949 4.97541 16.1516 3.89555C15.3082 2.81568 14.2294 1.94264 12.9974 1.34297C11.7654 0.743297 10.4128 0.432838 9.04261 0.435256ZM9.04261 4.43526C9.24039 4.43526 9.43373 4.4939 9.59818 4.60379C9.76263 4.71367 9.8908 4.86985 9.96649 5.05257C10.0422 5.2353 10.062 5.43636 10.0234 5.63035C9.98481 5.82433 9.88957 6.00251 9.74971 6.14236C9.60986 6.28221 9.43168 6.37746 9.2377 6.41604C9.04372 6.45463 8.84265 6.43482 8.65992 6.35914C8.4772 6.28345 8.32102 6.15527 8.21114 5.99083C8.10126 5.82638 8.04261 5.63304 8.04261 5.43526C8.04261 5.17004 8.14796 4.91569 8.3355 4.72815C8.52304 4.54061 8.77739 4.43526 9.04261 4.43526ZM10.0426 14.4353H9.04261C8.77739 14.4353 8.52304 14.3299 8.3355 14.1424C8.14796 13.9548 8.04261 13.7005 8.04261 13.4353V9.43526C7.77739 9.43526 7.52304 9.3299 7.3355 9.14236C7.14796 8.95483 7.04261 8.70047 7.04261 8.43526C7.04261 8.17004 7.14796 7.91569 7.3355 7.72815C7.52304 7.54061 7.77739 7.43526 8.04261 7.43526H9.04261C9.30782 7.43526 9.56218 7.54061 9.74971 7.72815C9.93725 7.91569 10.0426 8.17004 10.0426 8.43526V12.4353C10.3078 12.4353 10.5622 12.5406 10.7497 12.7281C10.9372 12.9157 11.0426 13.17 11.0426 13.4353C11.0426 13.7005 10.9372 13.9548 10.7497 14.1424C10.5622 14.3299 10.3078 14.4353 10.0426 14.4353Z" fill="white"/>
</svg>
