<svg width="30" height="30" viewBox="0 0 30 30" fill="none" xmlns="../../external.html?link=http://www.w3.org/2000/svg">
<g clip-path="url(#clip0_94_929)">
<path d="M10.305 11.5898C11.7463 11.3085 13.1526 10.9219 14.4885 10.5C12.7132 7.24799 10.5159 4.31244 7.93188 1.83398C4.13507 3.87299 1.24628 7.51172 0.314697 11.8535C3.10968 12.416 6.56085 12.3457 10.305 11.5898Z" fill="#007CE6"/>
<path d="M24.5257 3.52143L24.2796 4.48822C23.8929 6.0351 20.6234 8.24994 16.3344 9.84961L16.1409 9.91986C14.4007 6.63275 12.2034 3.64447 9.63708 1.06055C11.2894 0.410156 13.0999 0 14.9808 0C18.3381 0 21.4671 1.18359 23.9632 3.06439C24.1565 3.20502 24.35 3.3457 24.5257 3.52143Z" fill="#007CE6"/>
<path d="M16.8265 15.7206C16.3694 14.4727 15.8597 13.2598 15.2972 12.082C13.8207 12.5742 12.2562 12.9961 10.6566 13.3124C8.91632 13.664 6.6488 13.9804 4.25817 13.9804C2.88702 13.9804 1.42218 13.8749 0.0335639 13.6112C-0.00165094 14.0682 0.0393647 14.5253 0.0393647 14.9999C0.0393647 19.623 2.14874 23.7538 5.43585 26.496C5.45343 26.3905 5.47106 26.285 5.48852 26.1796C6.15655 22.1367 10.8324 17.8652 16.8265 15.7206Z" fill="#007CE6"/>
<path d="M17.4066 17.373C18.6019 21.1347 19.2699 25.2187 19.3401 29.3496C17.9691 29.7715 16.4925 30 14.9808 30C12.1507 30 9.49644 29.1504 7.24638 27.7792C7.15849 27.3574 7.15849 26.9179 7.22892 26.4609C7.77384 23.1387 12.1332 19.2891 17.4066 17.373Z" fill="#007CE6"/>
<path d="M29.8225 17.1269C29.0842 22.2774 25.6682 26.5839 21.0627 28.6406C20.9397 24.5625 20.2365 20.5898 19.0588 16.8456C22.9963 15.7558 26.7288 15.8789 29.8225 17.1269Z" fill="#007CE6"/>
<path d="M29.9807 15V15.3164C26.6233 14.0683 22.6448 14.0156 18.4963 15.1934C18.0393 13.9278 17.512 12.6973 16.9495 11.502C19.8388 10.4172 25.2309 7.92035 25.9846 4.91022C28.428 7.5644 29.9807 11.1152 29.9807 15Z" fill="#007CE6"/>
</g>
<defs>
<clipPath id="clip0_94_929">
<rect width="30" height="30" fill="white"/>
</clipPath>
</defs>
</svg>
