<svg width="20" height="21" viewBox="0 0 20 21" fill="none" xmlns="../../external.html?link=http://www.w3.org/2000/svg">
<path d="M11.6714 12.7536C11.1739 13.0854 10.5959 13.2607 10 13.2607C9.40414 13.2607 8.82617 13.0854 8.32859 12.7536L0.133164 7.28986C0.0876953 7.25955 0.0433984 7.22794 0 7.19544V16.1485C0 17.1749 0.833008 17.9896 1.84113 17.9896H18.1588C19.1853 17.9896 20 17.1566 20 16.1485V7.1954C19.9565 7.22798 19.9121 7.25966 19.8665 7.29001L11.6714 12.7536Z" fill="#FF24BD"/>
<path d="M0.783203 6.31475L8.97863 11.7786C9.28887 11.9854 9.64441 12.0888 9.99996 12.0888C10.3555 12.0888 10.7111 11.9854 11.0214 11.7786L19.2168 6.31475C19.7072 5.98799 20 5.44112 20 4.85088C20 3.836 19.1743 3.01038 18.1595 3.01038H1.84051C0.825664 3.01042 0 3.83604 0 4.85186C0 5.44112 0.292812 5.98799 0.783203 6.31475Z" fill="#FF24BD"/>
</svg>
