<svg width="60" height="60" viewBox="0 0 60 60" fill="none" xmlns="http://www.w3.org/2000/svg">
<path d="M53.8634 24.5455H52.4838C52.3696 20.0507 50.9032 15.6948 48.2761 12.046C45.6489 8.39714 41.983 5.62489 37.7565 4.09092H49.1875C49.3534 4.73364 49.7481 5.29378 50.2975 5.66633C50.8469 6.03889 51.5133 6.19828 52.1718 6.11464C52.8303 6.031 53.4357 5.71006 53.8745 5.21199C54.3133 4.71392 54.5554 4.0729 54.5554 3.4091C54.5554 2.7453 54.3133 2.10429 53.8745 1.60622C53.4357 1.10814 52.8303 0.787209 52.1718 0.703568C51.5133 0.619926 50.8469 0.779321 50.2975 1.15187C49.7481 1.52443 49.3534 2.08456 49.1875 2.72728H32.727V1.36365C32.727 1.18282 32.6552 1.0094 32.5273 0.88153C32.3995 0.753665 32.226 0.68183 32.0452 0.68183H27.9543C27.7735 0.68183 27.6001 0.753665 27.4722 0.88153C27.3443 1.0094 27.2725 1.18282 27.2725 1.36365V2.72728H10.812C10.6461 2.08456 10.2514 1.52443 9.70203 1.15187C9.15263 0.779321 8.48623 0.619926 7.82772 0.703568C7.16921 0.787209 6.56381 1.10814 6.125 1.60622C5.68619 2.10429 5.44409 2.7453 5.44409 3.4091C5.44409 4.0729 5.68619 4.71392 6.125 5.21199C6.56381 5.71006 7.16921 6.031 7.82772 6.11464C8.48623 6.19828 9.15263 6.03889 9.70203 5.66633C10.2514 5.29378 10.6461 4.73364 10.812 4.09092H22.2429C18.0164 5.62489 14.3505 8.39714 11.7233 12.046C9.09618 15.6948 7.62982 20.0507 7.51558 24.5455H6.13613C5.9553 24.5455 5.78187 24.6173 5.65401 24.7452C5.52614 24.873 5.45431 25.0465 5.45431 25.2273V29.3182C5.45431 29.499 5.52614 29.6724 5.65401 29.8003C5.78187 29.9282 5.9553 30 6.13613 30H10.227C10.4079 30 10.5813 29.9282 10.7092 29.8003C10.837 29.6724 10.9089 29.499 10.9089 29.3182V25.2273C10.9089 25.0465 10.837 24.873 10.7092 24.7452C10.5813 24.6173 10.4079 24.5455 10.227 24.5455H8.87935C9.01617 19.5255 10.9465 14.7206 14.3206 11.0012C17.6948 7.2818 22.2895 4.89398 27.2725 4.27031V5.45456C27.2725 5.63539 27.3443 5.80881 27.4722 5.93668C27.6001 6.06454 27.7735 6.13638 27.9543 6.13638H32.0452C32.226 6.13638 32.3995 6.06454 32.5273 5.93668C32.6552 5.80881 32.727 5.63539 32.727 5.45456V4.27031C37.71 4.89398 42.3047 7.2818 45.6789 11.0012C49.053 14.7206 50.9834 19.5255 51.1202 24.5455H49.7725C49.5917 24.5455 49.4182 24.6173 49.2904 24.7452C49.1625 24.873 49.0907 25.0465 49.0907 25.2273V29.3182C49.0907 29.499 49.1625 29.6724 49.2904 29.8003C49.4182 29.9282 49.5917 30 49.7725 30H53.8634C54.0442 30 54.2177 29.9282 54.3455 29.8003C54.4734 29.6724 54.5452 29.499 54.5452 29.3182V25.2273C54.5452 25.0465 54.4734 24.873 54.3455 24.7452C54.2177 24.6173 54.0442 24.5455 53.8634 24.5455Z" fill="#2BAA65"/>
<path d="M31.9735 9.24046C31.9049 9.10305 31.7918 8.99286 31.6527 8.92775C31.5135 8.86263 31.3565 8.84641 31.207 8.88171C31.0575 8.91701 30.9243 9.00176 30.829 9.12223C30.7336 9.2427 30.6818 9.39183 30.6818 9.54544V31.6432C30.6819 31.7751 30.7202 31.9043 30.7922 32.0149C30.8641 32.1255 30.9667 32.2129 31.0873 32.2663C31.6622 32.5163 32.1335 32.9566 32.4218 33.5133C32.7101 34.07 32.7978 34.709 32.6702 35.3228C32.5425 35.9366 32.2073 36.4876 31.721 36.8832C31.2347 37.2788 30.6269 37.4948 30 37.4948C29.3731 37.4948 28.7653 37.2788 28.279 36.8832C27.7927 36.4876 27.4575 35.9366 27.3299 35.3228C27.2022 34.709 27.2899 34.07 27.5782 33.5133C27.8665 32.9566 28.3378 32.5163 28.9127 32.2663C29.0334 32.2129 29.1359 32.1255 29.2079 32.0149C29.2798 31.9043 29.3182 31.7751 29.3182 31.6432V9.54544C29.3182 9.39183 29.2664 9.2427 29.1711 9.12223C29.0758 9.00176 28.9426 8.91701 28.793 8.88171C28.6435 8.84641 28.4865 8.86263 28.3474 8.92775C28.2082 8.99286 28.0952 9.10305 28.0265 9.24046L15.0719 35.1496C15.0246 35.2443 15 35.3487 15 35.4545C15 35.5604 15.0246 35.6648 15.0719 35.7595L20.0331 45.6818H39.967L44.9281 35.7595C44.9754 35.6648 45 35.5604 45 35.4545C45 35.3487 44.9754 35.2443 44.9281 35.1496L31.9735 9.24046Z" fill="#2BAA65"/>
<path d="M41.5907 47.0455H18.4089C18.0323 47.0455 17.7271 47.3507 17.7271 47.7273V51.8182C17.7271 52.1948 18.0323 52.5 18.4089 52.5H41.5907C41.9672 52.5 42.2725 52.1948 42.2725 51.8182V47.7273C42.2725 47.3507 41.9672 47.0455 41.5907 47.0455Z" fill="#2BAA65"/>
<path d="M19.7727 58.6364C19.7727 58.8172 19.8445 58.9906 19.9724 59.1185C20.1003 59.2464 20.2737 59.3182 20.4545 59.3182H39.5454C39.7263 59.3182 39.8997 59.2464 40.0276 59.1185C40.1554 58.9906 40.2273 58.8172 40.2273 58.6364V53.8636H19.7727V58.6364Z" fill="#2BAA65"/>
</svg>
