<?xml version="1.0" encoding="utf-8"?>
<!-- Generator: Adobe Illustrator 16.0.3, SVG Export Plug-In . SVG Version: 6.00 Build 0)  -->
<!DOCTYPE svg PUBLIC "-//W3C//DTD SVG 1.1//EN" "http://www.w3.org/Graphics/SVG/1.1/DTD/svg11.dtd">
<svg version="1.1" id="Capa_1" xmlns="http://www.w3.org/2000/svg" xmlns:xlink="http://www.w3.org/1999/xlink" x="0px" y="0px"
	 width="21px" height="20px" viewBox="0 0 21 20" enable-background="new 0 0 21 20" xml:space="preserve">
<path fill="#FFFFFF" d="M20.396,0.015c-0.063,1.363-0.623,4.187-3.938,6.319c-0.009,0.005-0.017,0.01-0.023,0.017
	c-0.345-0.039-0.675-0.16-0.963-0.353c-0.154-0.083-0.347-0.034-0.442,0.112c-0.098,0.146-0.066,0.341,0.07,0.451
	c0.172,0.113,0.355,0.208,0.549,0.281c-0.943,0.583-1.613,0.956-2.133,1.241c-0.633,0.299-1.212,0.7-1.715,1.187
	c-0.606,0.081-1.223-0.002-1.787-0.241C9.85,8.96,9.662,9.03,9.582,9.189C9.501,9.347,9.557,9.541,9.709,9.632
	c0.471,0.223,0.987,0.338,1.508,0.335c-0.297,0.396-0.653,0.922-1.125,1.627c-0.848,0.373-2.048,0.685-3.129,0.143
	c-0.109-0.055-0.239-0.047-0.34,0.021c-0.102,0.066-0.16,0.184-0.153,0.305c0.007,0.122,0.079,0.23,0.188,0.285
	c0.493,0.241,1.035,0.364,1.583,0.359c0.378-0.003,0.755-0.053,1.122-0.146c-1.207,1.39-3.061,2.031-4.868,1.686
	c-0.333-0.068-0.644-0.218-0.905-0.434c0.061-0.262,0.129-0.529,0.207-0.805c1.929-5.128,4.285-5.83,7.545-6.799
	c2.026-0.535,3.978-1.323,5.808-2.346c0.162-0.094,0.219-0.302,0.125-0.464c-0.094-0.163-0.302-0.219-0.465-0.125
	c-1.783,0.997-3.686,1.765-5.66,2.285c-3.319,0.986-5.936,1.766-7.987,7.21l-0.146,0.295c-0.006,0.01-0.011,0.02-0.014,0.031
	c-0.046-0.088-0.086-0.179-0.119-0.271c-0.56-1.525-0.614-3.19-0.156-4.75c0.007-0.03,0.02-0.061,0.03-0.091
	c0.083,0.303,0.211,0.592,0.38,0.857c0.063,0.095,0.168,0.152,0.281,0.153c0.067,0,0.132-0.02,0.187-0.058
	C3.683,8.885,3.735,8.808,3.752,8.72c0.018-0.088,0-0.179-0.05-0.253C3.433,7.967,3.266,7.42,3.211,6.856
	C3.769,5.724,4.585,4.74,5.594,3.981C5.282,4.708,5.12,5.489,5.116,6.28c0,0.187,0.152,0.339,0.339,0.339
	c0.188,0,0.339-0.152,0.339-0.339c0.014-1.087,0.352-2.146,0.969-3.041c0.917-0.487,1.912-0.813,2.939-0.963
	c-0.18,0.254-0.341,0.521-0.481,0.8C9.137,3.243,9.204,3.446,9.37,3.53c0.047,0.025,0.099,0.039,0.152,0.038
	c0.128,0.001,0.246-0.071,0.302-0.187c0.219-0.433,0.494-0.835,0.817-1.197c0.783-0.047,1.573-0.034,2.342-0.013
	c0.274,0.003,0.546,0.01,0.817,0.013c-0.082,0.203-0.148,0.412-0.2,0.624c-0.045,0.182,0.065,0.365,0.247,0.41
	s0.365-0.066,0.41-0.248c0.067-0.272,0.165-0.536,0.292-0.787C16.574,2.154,18.594,1.822,20.396,0.015z"/>
<path fill="#FFFFFF" d="M4.438,18.482h-2.57l1.115-1.115c0.061-0.061,0.096-0.141,0.099-0.227c0.07-1.123,0.24-2.236,0.508-3.328
	c-0.172-0.14-0.323-0.303-0.447-0.485c-0.052-0.075-0.098-0.153-0.139-0.233c-0.252,0.515-0.547,1.008-0.881,1.475
	c-0.85,1.263-1.338,2.733-1.414,4.254c0,0.137,0.083,0.261,0.21,0.312c0.041,0.019,0.084,0.028,0.129,0.027h3.39
	c0.187,0,0.339-0.151,0.339-0.339S4.625,18.482,4.438,18.482z M2.651,14.992c-0.115,0.656-0.195,1.32-0.241,1.986l-0.918,0.918
	C1.685,16.861,2.079,15.875,2.651,14.992z"/>
<path fill="#FFFFFF" d="M16.641,18.482H5.794c-0.188,0-0.339,0.152-0.339,0.34s0.152,0.339,0.339,0.339h10.847
	c0.188,0,0.34-0.151,0.34-0.339S16.828,18.482,16.641,18.482z"/>
<g>
	<path fill="#FFB89A" d="M-318.06-270.305c-0.004,9.66,6.445,17.495,14.405,17.499s14.415-7.823,14.418-17.482
		c0-0.006,0-0.011,0-0.017c0-9.66-6.452-17.491-14.412-17.491S-318.06-279.964-318.06-270.305L-318.06-270.305z"/>
	<path fill="#33CC99" d="M-292.564-273.271c-1.366,0-2.527,1.084-2.927,2.581h-0.01c-0.206,0.798-0.473,1.583-0.791,2.331
		l0.021,0.013c-0.236,0.523-0.37,1.134-0.37,1.783c0,2.069,1.376,3.74,3.082,3.74c1.335,0,2.465-1.022,2.896-2.468
		c0.37-0.91,0.688-1.845,0.956-2.817c0.144-0.437,0.226-0.91,0.226-1.421C-289.483-271.589-290.859-273.271-292.564-273.271
		L-292.564-273.271z"/>
	<path fill="#33CC99" d="M-299.837-262.426c-0.699,0-1.335,0.287-1.859,0.761c-1.839,1.197-3.903,1.82-6.04,1.82
		c-3.431,0-6.656-1.621-9.081-4.563c-2.424-2.942-3.76-6.857-3.76-11.021c0-4.164,1.335-8.078,3.76-11.021
		c2.424-2.942,5.65-4.563,9.081-4.563c3.431,0,6.656,1.621,9.081,4.563c1.603,1.945,2.732,4.326,3.308,6.907v0.025h0.01
		c0.298,1.683,1.531,2.955,3.01,2.955c1.705,0,3.082-1.67,3.082-3.74c0-0.437-0.062-0.848-0.174-1.234
		c-2.208-9.774-9.574-16.955-18.326-16.955c-10.498,0-19.003,10.322-19.003,23.063c0,12.741,8.505,23.063,19.003,23.063
		c3.452,0,6.677-1.109,9.46-3.066l-0.01-0.025c0.915-0.648,1.531-1.857,1.531-3.229
		C-296.755-260.755-298.132-262.426-299.837-262.426z"/>
	<path fill="#45484C" d="M-307.736-316.02c4.335,0,8.536,1.035,12.491,3.054c3.821,1.958,7.252,4.775,10.211,8.353
		c2.958,3.578,5.27,7.742,6.882,12.392c1.674,4.8,2.517,9.899,2.517,15.16s-0.853,10.36-2.517,15.159
		c-1.613,4.638-3.935,8.802-6.882,12.392c-2.948,3.578-6.379,6.396-10.211,8.353c-3.955,2.032-8.156,3.055-12.491,3.055
		s-8.536-1.035-12.491-3.055c-3.821-1.957-7.252-4.774-10.2-8.353c-2.948-3.578-5.27-7.742-6.882-12.379
		c-1.675-4.8-2.517-9.898-2.517-15.16c0-5.261,0.853-10.36,2.517-15.159c1.612-4.638,3.934-8.802,6.882-12.392
		c2.948-3.578,6.379-6.396,10.21-8.353C-316.272-314.985-312.071-316.02-307.736-316.02 M-307.736-323.5
		c-21.13,0-38.264,20.794-38.264,46.438s17.134,46.438,38.264,46.438s38.264-20.794,38.264-46.438S-286.606-323.5-307.736-323.5
		L-307.736-323.5z"/>
	<path fill="#45484C" d="M-259.293-212.945l-24.129-29.284c-1.202-1.459-1.202-3.84,0-5.286c1.202-1.458,3.164-1.458,4.355,0
		l24.129,29.284c1.202,1.459,1.202,3.84,0,5.286C-256.129-211.499-258.091-211.499-259.293-212.945L-259.293-212.945z"/>
</g>
</svg>
