<svg width="19" height="13" viewBox="0 0 19 13" fill="none" xmlns="http://www.w3.org/2000/svg">
<path d="M0.765859 6.50001C0.765859 7.9885 1.97684 9.19948 3.46533 9.19948C4.95381 9.19948 6.16479 7.9885 6.16479 6.50001C6.16479 5.01152 4.95381 3.80054 3.46533 3.80054C1.97684 3.80054 0.765859 5.01152 0.765859 6.50001ZM4.81506 6.50001C4.81506 7.24425 4.20957 7.84974 3.46533 7.84974C2.72108 7.84974 2.11559 7.24425 2.11559 6.50001C2.11559 5.75577 2.72108 5.15028 3.46533 5.15028C4.20957 5.15028 4.81506 5.75577 4.81506 6.50001Z" fill="white"/>
<path d="M6.23231 2.4508C6.23231 2.69814 6.27658 2.94008 6.36394 3.16994L7.53845 6.26032C7.59632 6.41257 7.59628 6.58747 7.53848 6.73958L6.36394 9.83003C6.27658 10.0599 6.23231 10.3019 6.23231 10.5492C6.23231 11.6656 7.14054 12.5738 8.25691 12.5738C8.57001 12.5738 8.88281 12.5001 9.16153 12.3608C9.16501 12.3591 9.16845 12.3573 9.17189 12.3555L16.9282 8.30871C17.6157 7.96234 18.0425 7.26989 18.0425 6.5C18.0425 5.73011 17.6157 5.03767 16.9282 4.69129L9.17189 0.644485C9.16845 0.642697 9.16498 0.640944 9.16153 0.639189C8.88281 0.499863 8.57001 0.4262 8.25691 0.4262C7.14054 0.4262 6.23231 1.33444 6.23231 2.4508ZM8.93178 6.5C8.93178 6.2526 8.8875 6.01066 8.80011 5.7808L7.62564 2.69045C7.59672 2.61432 7.58204 2.53368 7.58204 2.4508C7.58204 2.07868 7.88479 1.77593 8.25691 1.77593C8.36145 1.77593 8.46122 1.79895 8.55358 1.8443L16.3085 5.89036C16.312 5.89215 16.3154 5.89391 16.3189 5.89563C16.5495 6.01096 16.6927 6.24254 16.6927 6.5C16.6927 6.75747 16.5495 6.98905 16.3189 7.10438C16.3154 7.1061 16.312 7.10789 16.3085 7.10964L8.55358 11.1557C8.46122 11.2011 8.36145 11.2241 8.25691 11.2241C7.88479 11.2241 7.58204 10.9213 7.58204 10.5492C7.58204 10.4663 7.59672 10.3857 7.62564 10.3095L8.80014 7.21914C8.88747 6.98938 8.93178 6.74741 8.93178 6.5Z" fill="white"/>
</svg>
