<?xml version="1.0" encoding="utf-8"?>
<!-- Generator: Adobe Illustrator 16.0.3, SVG Export Plug-In . SVG Version: 6.00 Build 0)  -->
<!DOCTYPE svg PUBLIC "-//W3C//DTD SVG 1.1//EN" "http://www.w3.org/Graphics/SVG/1.1/DTD/svg11.dtd">
<svg version="1.1" id="Capa_1" xmlns="http://www.w3.org/2000/svg" xmlns:xlink="http://www.w3.org/1999/xlink" x="0px" y="0px"
	 width="22px" height="31px" viewBox="0 0 22 31" enable-background="new 0 0 22 31" xml:space="preserve">
<path fill="#3EBFFF" stroke="#FFFFFF" d="M0.768,1.107L0.766,1.108c-0.141,0.058-0.233,0.196-0.233,0.35V29.7
	c0,0.153,0.093,0.292,0.233,0.35l0,0h0c0.142,0.059,0.304,0.026,0.413-0.082c0,0,0-0.001,0-0.001l19.335-19.393l0.001,0
	c0.108-0.108,0.141-0.271,0.082-0.413V10.16c-0.059-0.141-0.197-0.233-0.351-0.233H10.064H9.856L9.709,9.779L1.179,1.19l0,0
	c-0.072-0.072-0.169-0.11-0.268-0.11C0.861,1.079,0.813,1.088,0.768,1.107z"/>
</svg>
