<svg width="135" height="107" viewBox="0 0 135 107" fill="none" xmlns="../../external.html?link=http://www.w3.org/2000/svg">
<path d="M62.4772 89.515C62.4772 89.515 43.4554 110.219 23.1577 106.565C13.2988 104.796 7.12248 100.331 3.3819 96.2133C-0.242685 92.2407 0.134276 86.0934 4.16482 82.5268L5.52767 81.309C9.41323 77.8584 15.2996 78.2063 18.8951 82.0049C20.8959 84.0926 23.7086 85.9194 27.7391 86.4704C39.0769 88.0652 47.6309 73.4219 47.6309 73.4219L62.4772 89.515Z" fill="black"/>
<path d="M58.3599 37.9299C58.9874 38.3406 58.9874 38.3405 58.9875 38.3404L58.9881 38.3395L58.9907 38.3355L59.0013 38.3194L59.0442 38.2542C59.0824 38.1965 59.1394 38.1103 59.2146 37.9974C59.365 37.7715 59.5879 37.4389 59.8769 37.0131C60.455 36.1614 61.2977 34.9373 62.354 33.4501C64.467 30.4752 67.4328 26.451 70.8451 22.2517C74.2589 18.0503 78.1104 13.6849 81.9948 10.0216C85.8915 6.34656 89.7673 3.43047 93.2278 2.06282C95.6659 1.1041 97.7084 1.12689 99.3275 1.71397C100.953 2.30328 102.223 3.48711 103.065 4.97482C104.771 7.98779 104.638 12.0725 102.318 14.6014C100.519 16.5554 99.1363 17.7658 97.6562 19.0615C97.3621 19.319 97.0641 19.5799 96.7582 19.8506C94.9064 21.4897 92.8161 23.449 89.6597 27.1167C86.5073 30.7654 84.0768 34.0569 82.4333 36.4382C82.1515 36.8465 81.8927 37.2282 81.6574 37.5803C81.1688 38.1541 80.7659 38.6588 80.4655 39.0773C80.2193 39.4201 80.0148 39.742 79.8956 40.0147C79.8393 40.1433 79.7718 40.3272 79.7645 40.53C79.7564 40.7558 79.8311 41.1313 80.2071 41.3402L80.8497 41.6972L81.2195 41.062L81.2195 41.0619L81.2195 41.0619L81.2198 41.0615L81.2212 41.0589L81.2279 41.0476L81.256 41C81.2813 40.9574 81.3197 40.8931 81.371 40.8082C81.4737 40.6385 81.6283 40.3864 81.8337 40.0606C82.0937 39.6482 82.4351 39.1178 82.8558 38.4868C83.1562 38.1356 83.4937 37.753 83.8656 37.3423C85.8302 35.1731 88.6973 32.2855 91.9622 29.2589C98.5189 23.1809 106.563 16.6519 112.076 14.2001C116.904 12.0559 121.225 13.9511 123.545 17.0555C125.891 20.1925 126.081 24.3437 122.956 26.8797L122.955 26.8802C120.831 28.6082 117.834 30.747 114.516 33.1139C112.143 34.8073 109.606 36.6174 107.108 38.4773C104.134 40.6919 101.235 42.9649 98.7915 45.1598C97.0444 46.7296 95.5075 48.2798 94.3419 49.7581C94.1473 49.9459 93.9735 50.1222 93.8221 50.2854C93.5515 50.5772 93.3182 50.8636 93.1742 51.1225C93.1055 51.2463 93.0212 51.4258 92.9995 51.6341C92.9744 51.8735 93.0344 52.2109 93.3372 52.4433L94.0039 52.9549L94.4367 52.2345C94.7201 51.7629 95.0618 51.2732 95.4561 50.7677C95.9197 50.3255 96.5236 49.7974 97.2512 49.2041C99.3472 47.4953 102.398 45.3042 105.876 43.1686C109.354 41.0325 113.241 38.9634 117.012 37.4879C120.798 36.0064 124.394 35.1527 127.316 35.3721C129.332 35.5237 130.75 36.3619 131.707 37.5573C132.679 38.771 133.214 40.4027 133.344 42.1712C133.474 43.9369 133.195 45.79 132.591 47.3966C131.984 49.011 131.074 50.3134 129.993 51.0552C129.693 51.2602 129.053 51.5975 128.106 52.0499C127.176 52.494 125.997 53.0276 124.655 53.6224C123.317 54.216 121.864 54.8496 120.347 55.5117C118.766 56.2015 117.113 56.9224 115.444 57.6614C112.231 59.0842 109.098 60.5119 106.786 61.7033C105.633 62.2971 104.66 62.8444 103.977 63.3122C103.639 63.5436 103.34 63.7769 103.123 64.0064C103.015 64.121 102.904 64.2589 102.823 64.4179C102.743 64.5752 102.664 64.8091 102.711 65.0818L102.86 65.9492L103.692 65.6645L103.693 65.6643L103.696 65.6634L103.707 65.6594L103.756 65.643C103.799 65.6285 103.864 65.6069 103.95 65.5789C104.12 65.523 104.372 65.4417 104.694 65.3413C105.339 65.1404 106.264 64.8632 107.382 64.5589C109.621 63.9498 112.621 63.236 115.688 62.8088C118.769 62.3797 121.853 62.2496 124.286 62.7648C126.713 63.2789 128.316 64.385 128.821 66.3056L128.822 66.3062C129.956 70.6002 128.359 73.4647 126.472 75.2979C125.517 76.2261 124.484 76.8892 123.685 77.3209C123.287 77.536 122.951 77.6916 122.717 77.7925C122.6 77.8429 122.509 77.8795 122.449 77.9029C122.448 77.9033 122.447 77.9037 122.446 77.9041C122.428 77.9059 122.407 77.908 122.384 77.9103C122.277 77.921 122.121 77.9373 121.921 77.9598C121.52 78.0049 120.94 78.0751 120.22 78.1758C118.782 78.3771 116.783 78.701 114.537 79.1916C110.067 80.168 104.529 81.823 100.507 84.5443C99.1287 85.4767 97.7033 86.5002 96.2283 87.5592C93.4551 89.5504 90.5071 91.6672 87.3708 93.5395C82.592 96.3924 77.5342 98.5713 72.3451 98.7112L72.3415 98.7113C67.0237 98.8801 58.0866 96.8328 50.2785 91.9072C42.4919 86.9952 35.9174 79.2825 35.0986 68.1483C34.9824 66.5199 35.2003 64.5708 35.6235 62.3322C36.0256 60.2051 36.6035 57.8629 37.227 55.3358C37.2587 55.2074 37.2905 55.0786 37.3224 54.9493C38.6365 49.6205 40.1117 43.5307 40.4349 37.2441C40.5302 35.4557 40.4847 33.3886 40.4377 31.2492C40.423 30.5812 40.4081 29.9061 40.3974 29.2302C40.3517 26.3623 40.3777 23.4498 40.772 20.8282C41.1672 18.1996 41.9212 15.9483 43.2663 14.3418C44.5844 12.7675 46.5335 11.7366 49.5069 11.6547C52.8516 11.5682 54.9839 13.0495 56.3716 15.3553C57.7927 17.7165 58.4365 20.9619 58.6333 24.3199C58.8291 27.661 58.5782 31.0265 58.2757 33.5655C58.1247 34.8328 57.9614 35.8893 57.8362 36.6277C57.7736 36.9969 57.7205 37.2862 57.6833 37.4824C57.6647 37.5805 57.65 37.6552 57.6401 37.705L57.6289 37.7607L57.6262 37.774L57.6256 37.777L57.6255 37.7776L57.6255 37.7776L57.6257 37.7777L58.9874 38.3406L58.3599 37.9299ZM94.4732 51.8748C94.472 51.8779 94.4713 51.8793 94.4713 51.8791C94.4714 51.8789 94.4719 51.8775 94.4732 51.8748ZM81.2538 40.6571C81.2537 40.6574 81.2539 40.6567 81.2545 40.6549L81.2538 40.6571Z" fill="white" stroke="#2BAA65" stroke-width="1.5"/>
</svg>
