<?xml version="1.0" encoding="utf-8"?>
<!-- Generator: Adobe Illustrator 16.0.3, SVG Export Plug-In . SVG Version: 6.00 Build 0)  -->
<!DOCTYPE svg PUBLIC "-//W3C//DTD SVG 1.1//EN" "http://www.w3.org/Graphics/SVG/1.1/DTD/svg11.dtd">
<svg version="1.1" id="Capa_1" xmlns="http://www.w3.org/2000/svg" xmlns:xlink="http://www.w3.org/1999/xlink" x="0px" y="0px"
	 width="151px" height="150px" viewBox="0 0 151 150" enable-background="new 0 0 151 150" xml:space="preserve">
<g>
	<g id="_x32_2._Certificate_2_">
		<g>
			<g id="XMLID_70_">
				<g>
					<g>
						<path fill="#F2D59F" d="M404.706,59.153v81.336c0,2.511-2.211,4.548-4.942,4.548h-14.382
							c2.858-3.579,4.547-8.003,4.547-12.785c0-3.121-0.722-6.091-2.018-8.772l0.323-0.128V78.854c-5.458,0-9.883-4.071-9.883-9.093
							h-87.704c0,5.021-4.424,9.093-9.882,9.093v41.938c5.458,0,9.882,4.07,9.882,9.092h52.259l0.14,0.015
							c-0.094,0.772-0.14,1.558-0.14,2.354c0,4.782,1.688,9.206,4.547,12.785h-78.218c-2.731,0-4.941-2.037-4.941-4.548V59.153
							c0-2.509,2.21-4.547,4.941-4.547h130.528C402.495,54.606,404.706,56.644,404.706,59.153z"/>
					</g>
					<g>
						<path fill="#8ECAC1" d="M385.168,145.301l12.476,19.879l-13.751-2.455l-4.563,12.181l-12.889-20.54l0.302-0.485
							C374.271,153.786,380.938,150.44,385.168,145.301z"/>
					</g>
					<g>
						<path fill="#E6B263" d="M352.446,114.855c-5.142,3.501-8.677,8.884-9.4,15.042l-0.14-0.015h-52.259
							c0-5.021-4.424-9.092-9.882-9.092V78.854c5.458,0,9.882-4.071,9.882-9.093h87.704c0,5.021,4.425,9.093,9.883,9.093v44.498
							l-0.323,0.128c-3.656-7.575-11.904-12.857-21.494-12.857C361.183,110.622,356.35,112.194,352.446,114.855z"/>
					</g>
					<g>
						<path fill="#FF7124" d="M347.453,145.037c-2.859-3.579-4.547-8.003-4.547-12.785c0-0.797,0.046-1.582,0.14-2.354
							c0.724-6.158,4.259-11.541,9.4-15.042c3.903-2.661,8.736-4.233,13.971-4.233c9.59,0,17.838,5.282,21.495,12.857
							c1.295,2.682,2.017,5.651,2.017,8.772c0,4.782-1.688,9.206-4.547,12.785c-0.069,0.09-0.139,0.178-0.214,0.264
							c-4.23,5.14-10.897,8.485-18.425,8.579c-0.108,0.003-0.217,0.003-0.326,0.003c-0.095,0-0.19,0-0.284-0.003
							c-7.525-0.081-14.203-3.415-18.439-8.55C347.61,145.233,347.531,145.137,347.453,145.037z M376.092,132.252
							c0-4.916-4.331-8.9-9.675-8.9c-5.343,0-9.674,3.984-9.674,8.9c0,4.917,4.331,8.902,9.674,8.902
							C371.761,141.154,376.092,137.169,376.092,132.252z"/>
					</g>
					<g>
						<ellipse fill="#8ECAC1" cx="366.417" cy="132.253" rx="9.675" ry="8.901"/>
					</g>
					<g>
						<path fill="#8ECAC1" d="M366.133,153.88l0.309,0.485l-12.891,20.54l-4.563-12.181l-13.749,2.455l12.455-19.85
							C351.93,150.465,358.607,153.799,366.133,153.88z"/>
					</g>
				</g>
				<g>
					<g>
						<path fill="#5E2A41" d="M399.764,148.068h-14.596c-1.819,0-3.294-1.357-3.294-3.031c0-1.675,1.475-3.032,3.294-3.032h14.596
							c0.909,0,1.648-0.679,1.648-1.516V59.153c0-0.836-0.739-1.515-1.648-1.515H269.235c-0.907,0-1.646,0.679-1.646,1.515v81.336
							c0,0.837,0.739,1.516,1.646,1.516h78.458c1.819,0,3.294,1.357,3.294,3.032c0,1.674-1.475,3.031-3.294,3.031h-78.458
							c-4.541,0-8.235-3.399-8.235-7.579V59.153c0-4.178,3.694-7.577,8.235-7.577h130.528c4.542,0,8.236,3.399,8.236,7.577v81.336
							C408,144.669,404.306,148.068,399.764,148.068z"/>
					</g>
					<g>
						<path fill="#5E2A41" d="M348.059,87.834h-27.117c-1.82,0-3.295-1.357-3.295-3.031s1.475-3.031,3.295-3.031h27.117
							c1.82,0,3.294,1.357,3.294,3.031S349.879,87.834,348.059,87.834z"/>
					</g>
					<g>
						<path fill="#5E2A41" d="M369.089,102.859h-69.178c-1.819,0-3.294-1.356-3.294-3.03c0-1.673,1.475-3.03,3.294-3.03h69.178
							c1.819,0,3.294,1.357,3.294,3.03C372.383,101.503,370.908,102.859,369.089,102.859z"/>
					</g>
					<g>
						<path fill="#5E2A41" d="M352.446,117.887h-52.535c-1.819,0-3.294-1.357-3.294-3.031s1.475-3.031,3.294-3.031h52.535
							c1.819,0,3.295,1.357,3.295,3.031S354.266,117.887,352.446,117.887z"/>
					</g>
					<g>
						<path fill="#5E2A41" d="M342.906,132.914h-52.259c-1.819,0-3.294-1.357-3.294-3.031c0-3.343-2.955-6.063-6.588-6.063
							c-1.82,0-3.295-1.357-3.295-3.029V78.854c0-1.674,1.475-3.031,3.295-3.031c3.633,0,6.588-2.719,6.588-6.062
							c0-1.674,1.475-3.031,3.294-3.031h87.704c1.82,0,3.295,1.357,3.295,3.031c0,3.343,2.956,6.062,6.588,6.062
							c1.819,0,3.295,1.357,3.295,3.031v44.498c0,1.673-1.476,3.03-3.295,3.03c-1.817,0-3.293-1.357-3.293-3.03V81.5
							c-4.625-1.099-8.272-4.454-9.467-8.708h-81.949c-1.194,4.254-4.842,7.611-9.466,8.708v36.643
							c4.624,1.099,8.271,4.455,9.466,8.709h49.381c1.819,0,3.295,1.357,3.295,3.03
							C346.201,131.557,344.726,132.914,342.906,132.914z"/>
					</g>
					<g>
						<path fill="#5E2A41" d="M353.552,177.936c-0.104,0-0.211-0.004-0.316-0.013c-1.285-0.114-2.378-0.908-2.799-2.03l-3.631-9.692
							l-10.939,1.954c-1.27,0.227-2.562-0.249-3.311-1.216s-0.815-2.246-0.17-3.275l12.455-19.849c0.91-1.448,2.925-1.945,4.5-1.108
							c1.574,0.837,2.115,2.69,1.205,4.139l-8.843,14.093l6.657-1.189c1.611-0.288,3.207,0.562,3.741,1.989l2.209,5.895
							l9.578-15.263c0.905-1.452,2.92-1.95,4.497-1.116c1.576,0.835,2.121,2.687,1.214,4.139l-0.304,0.484l-12.894,20.544
							C355.812,177.363,354.72,177.936,353.552,177.936z"/>
					</g>
					<g>
						<path fill="#5E2A41" d="M379.329,177.936c-1.168,0-2.26-0.572-2.852-1.516l-13.19-21.017
							c-0.915-1.446-0.382-3.302,1.191-4.145c1.572-0.841,3.589-0.35,4.503,1.098l0.306,0.485l9.283,14.79l2.209-5.895
							c0.535-1.429,2.131-2.277,3.741-1.989l6.657,1.189l-8.862-14.122c-0.91-1.45-0.37-3.304,1.205-4.141
							c1.576-0.837,3.59-0.34,4.5,1.11l12.475,19.878c0.646,1.029,0.579,2.309-0.17,3.276c-0.75,0.966-2.042,1.442-3.311,1.215
							l-10.939-1.953l-3.63,9.691c-0.421,1.122-1.515,1.916-2.8,2.03C379.54,177.932,379.435,177.936,379.329,177.936z"/>
					</g>
					<g>
						<path fill="#5E2A41" d="M366.417,156.914c-0.118,0-0.237,0-0.354-0.005c-8.306-0.098-15.95-3.645-20.98-9.73
							c-0.099-0.117-0.195-0.235-0.291-0.354c-3.385-4.239-5.179-9.28-5.179-14.572c0-0.902,0.054-1.806,0.158-2.686
							c0.8-6.803,4.706-13.057,10.717-17.146c4.634-3.158,10.142-4.828,15.93-4.828c10.588,0,20.207,5.752,24.506,14.656
							c0,0,0,0,0,0.001c1.525,3.16,2.299,6.526,2.299,10.003c0,5.279-1.786,10.311-5.163,14.553
							c-0.079,0.102-0.18,0.229-0.298,0.366c-5.025,6.081-12.657,9.629-20.948,9.739
							C366.681,156.914,366.549,156.914,366.417,156.914z M366.417,113.652c-4.364,0-8.518,1.258-12.009,3.639
							c-4.536,3.088-7.484,7.802-8.088,12.932c-0.078,0.666-0.119,1.347-0.119,2.029c0,3.991,1.351,7.79,3.906,10.989
							c0.063,0.082,0.122,0.152,0.183,0.225c0.009,0.011,0.019,0.021,0.026,0.032c3.801,4.604,9.578,7.283,15.855,7.351
							c0.026,0.001,0.052,0.002,0.077,0.003c0.055,0.001,0.112,0,0.168,0.001c0.077,0,0.152,0,0.229-0.002
							c0.018,0,0.034-0.001,0.052-0.002c6.274-0.078,12.05-2.768,15.844-7.379c0.026-0.032,0.055-0.064,0.084-0.097
							c0.019-0.021,0.038-0.048,0.059-0.075c0.014-0.019,0.028-0.038,0.043-0.057c2.556-3.199,3.906-6.998,3.906-10.99
							c0-2.622-0.584-5.161-1.732-7.543C381.659,117.992,374.403,113.652,366.417,113.652z"/>
					</g>
					<g>
						<path fill="#5E2A41" d="M366.417,144.185c-7.15,0-12.969-5.354-12.969-11.933c0-6.578,5.818-11.932,12.969-11.932
							c7.151,0,12.97,5.354,12.97,11.932C379.387,138.831,373.568,144.185,366.417,144.185z M366.417,126.382
							c-3.518,0-6.381,2.633-6.381,5.87s2.863,5.871,6.381,5.871c3.519,0,6.382-2.634,6.382-5.871S369.936,126.382,366.417,126.382z
							"/>
					</g>
				</g>
			</g>
		</g>
	</g>
</g>
<g>
	<ellipse fill="#FF8409" cx="356.5" cy="291.25" rx="70.5" ry="71.75"/>
	<path opacity="0.1" enable-background="new    " d="M427,291.25c0-3.343-0.242-6.625-0.678-9.848l-29.432-29.951h-80.781v68.247
		l42.494,43.247C396.564,361.81,427,330.157,427,291.25z"/>
	<rect x="316.109" y="251.451" fill="#FFFFFF" width="80.781" height="68.247"/>
	<polygon fill="#64798A" points="321.984,257.429 391.016,257.429 392.484,255.934 320.516,255.934 320.516,315.213 
		321.984,313.719 	"/>
	<polygon fill="#2F4859" points="391.016,257.429 391.016,313.719 321.984,313.719 320.516,315.213 392.484,315.213 
		392.484,255.934 	"/>
	<ellipse fill="#44C4A1" cx="356.5" cy="274.215" rx="4.644" ry="5.803"/>
	<path fill="#E56353" d="M375.98,280.019h-2.938c0-9.284-7.421-16.838-16.544-16.838c-9.121,0-16.542,7.554-16.542,16.838h-2.938
		c0-10.933,8.737-19.827,19.479-19.827S375.98,269.085,375.98,280.019z"/>
	<g>
		<rect x="326.314" y="285.615" fill="#EBF0F3" width="60.364" height="1.494"/>
		<rect x="326.314" y="293.537" fill="#EBF0F3" width="60.364" height="1.495"/>
		<rect x="373.479" y="306.721" fill="#EBF0F3" width="13.214" height="1.495"/>
		<rect x="326.314" y="306.721" fill="#EBF0F3" width="12.791" height="1.495"/>
	</g>
	<polygon fill="#E56353" points="352.58,313.465 345.642,328.556 349.129,327.915 355.198,314.713 	"/>
	<polygon fill="#CE412D" points="355.198,314.713 349.129,327.915 350.879,331.051 357.817,315.959 	"/>
	<polygon fill="#E56353" points="360.42,313.465 367.357,328.556 363.871,327.915 357.802,314.713 	"/>
	<polygon fill="#D15241" points="357.802,314.713 363.871,327.915 362.122,331.051 355.183,315.959 	"/>
	<polygon fill="#FCD462" points="366.534,310.049 367.855,308.704 366.534,307.361 367.468,305.714 365.851,304.763 
		366.333,302.927 364.529,302.434 364.529,300.532 362.661,300.532 362.179,298.698 360.373,299.189 359.439,297.543 
		357.82,298.494 356.5,297.148 355.18,298.494 353.561,297.543 352.627,299.189 350.822,298.698 350.338,300.532 348.471,300.532 
		348.471,302.434 346.666,302.927 347.15,304.763 345.531,305.714 346.466,307.361 345.145,308.704 346.466,310.049 
		345.531,311.695 347.15,312.646 346.666,314.483 348.471,314.977 348.471,316.876 350.338,316.876 350.822,318.712 352.627,318.22 
		353.561,319.868 355.18,318.917 356.5,320.26 357.82,318.917 359.439,319.868 360.373,318.22 362.179,318.712 362.661,316.876 
		364.529,316.876 364.529,314.977 366.333,314.483 365.851,312.646 367.468,311.695 	"/>
	<path fill="#E56353" d="M356.5,316.995c-4.491,0-8.146-3.72-8.146-8.291s3.653-8.289,8.146-8.289c4.491,0,8.146,3.718,8.146,8.289
		S360.99,316.995,356.5,316.995z M356.5,301.648c-3.823,0-6.934,3.165-6.934,7.057c0,3.891,3.11,7.057,6.934,7.057
		s6.935-3.166,6.935-7.057C363.435,304.813,360.324,301.648,356.5,301.648z"/>
</g>
<g>
	<g transform="translate(0 -1)">
		<path fill="#434C6D" d="M328.093-74.379c-0.604,0-1.209-0.18-1.67-0.535L311.559-86.41l-14.864,11.496
			c-0.924,0.713-2.416,0.713-3.34,0c-0.924-0.715-0.924-1.869,0-2.584l16.549-12.797c0.921-0.714,2.416-0.714,3.339,0
			c0.073,0.057,0.141,0.117,0.204,0.179l16.316,12.618c0.924,0.715,0.924,1.869,0,2.584
			C329.303-74.559,328.698-74.379,328.093-74.379"/>
		<polygon fill="#724530" points="243.059,4.169 380.059,4.169 380.059,-76.205 243.059,-76.205 		"/>
		<g>
			<path fill="#542D1E" d="M243.059-73.623l7.778,6.016c0.46,0.355,1.065,0.535,1.67,0.535c0.605,0,1.21-0.18,1.67-0.535
				c0.924-0.715,0.924-1.869,0-2.583l-7.779-6.015h-3.339V-73.623z"/>
			<path fill="#542D1E" d="M380.059-76.205h-3.34l-7.778,6.015c-0.924,0.714-0.924,1.868,0,2.583
				c0.46,0.355,1.065,0.534,1.669,0.534c0.605,0,1.211-0.179,1.671-0.534l7.778-6.016V-76.205z"/>
			<path fill="#542D1E" d="M380.059,1.586l-7.778-6.015c-0.923-0.716-2.416-0.716-3.34,0c-0.923,0.713-0.924,1.868,0,2.582
				l7.778,6.016h3.34V1.586z"/>
			<path fill="#542D1E" d="M250.837-4.429l-7.778,6.015v2.583h3.339l7.779-6.016c0.924-0.714,0.924-1.869,0-2.582
				C253.253-5.145,251.761-5.145,250.837-4.429"/>
		</g>
		<polygon fill="#ECE8D8" points="252.507,-3.139 370.609,-3.139 370.609,-68.899 252.507,-68.899 		"/>
		<path fill="#F0CE49" d="M328.093-48.805c0-7.063-7.402-12.787-16.534-12.787s-16.534,5.725-16.534,12.787
			c0,7.061,7.402,12.786,16.534,12.786S328.093-41.744,328.093-48.805"/>
		<g>
			<path fill="#F8E7A1" d="M304.472-46.979c-1.305,0-2.361-0.817-2.361-1.827c0-4.03,4.237-7.307,9.448-7.307
				c1.307,0,2.362,0.816,2.362,1.827c0,1.01-1.056,1.826-2.362,1.826c-2.605,0-4.725,1.639-4.725,3.654
				C306.834-47.796,305.778-46.979,304.472-46.979"/>
			<path fill="#F8E7A1" d="M311.559-41.499c-1.307,0-2.362-0.816-2.362-1.827c0-1.01,1.056-1.826,2.362-1.826
				c2.605,0,4.725-1.639,4.725-3.653c0-1.011,1.056-1.827,2.362-1.827c1.306,0,2.362,0.816,2.362,1.827
				C321.008-44.775,316.77-41.499,311.559-41.499"/>
		</g>
		<g>
			<path fill="#C9B693" d="M313.921-21.404H290.3c-1.307,0-2.362-0.816-2.362-1.828c0-1.009,1.056-1.826,2.362-1.826h23.621
				c1.307,0,2.362,0.817,2.362,1.826C316.283-22.221,315.228-21.404,313.921-21.404"/>
			<path fill="#C9B693" d="M280.851-21.404h-4.723c-1.307,0-2.363-0.816-2.363-1.828c0-1.009,1.057-1.826,2.363-1.826h4.723
				c1.307,0,2.363,0.817,2.363,1.826C283.214-22.221,282.157-21.404,280.851-21.404"/>
			<path fill="#C9B693" d="M351.714-14.098h-25.982c-1.306,0-2.363-0.817-2.363-1.827s1.058-1.827,2.363-1.827h25.982
				c1.307,0,2.362,0.817,2.362,1.827S353.021-14.098,351.714-14.098"/>
			<path fill="#C9B693" d="M349.351-19.579c-0.604,0-1.209-0.178-1.669-0.535l-3.681-2.845c-2.343,0.443-5.819,0.376-9.061-1.608
				l-5.537,2.855c-1.091,0.558-2.553,0.333-3.275-0.506c-0.726-0.84-0.433-1.972,0.654-2.532l7.087-3.653
				c0.96-0.498,2.254-0.383,3.044,0.279c3.252,2.724,6.611,1.448,6.647,1.437c0.906-0.357,2.009-0.223,2.737,0.338l4.724,3.654
				c0.924,0.714,0.924,1.867,0,2.581C350.562-19.757,349.956-19.579,349.351-19.579"/>
			<path fill="#C9B693" d="M295.024-14.098h-18.896c-1.307,0-2.363-0.817-2.363-1.827s1.057-1.827,2.363-1.827h18.896
				c1.307,0,2.361,0.817,2.361,1.827S296.331-14.098,295.024-14.098"/>
			<path fill="#C9B693" d="M313.921-14.098h-9.447c-1.307,0-2.363-0.817-2.363-1.827s1.057-1.827,2.363-1.827h9.447
				c1.307,0,2.362,0.817,2.362,1.827S315.228-14.098,313.921-14.098"/>
		</g>
		<g>
			<path fill="#D3B434" d="M354.531-55.861l0.813-0.25h-30.228c1.871,2.071,2.977,4.587,2.977,7.307
				c0,2.718-1.104,5.234-2.977,7.308h30.228l-0.813-0.253C346.295-44.299,346.295-53.313,354.531-55.861"/>
			<path fill="#D3B434" d="M268.737-41.797l-0.963,0.297H298c-1.871-2.07-2.978-4.586-2.978-7.307c0-2.718,1.106-5.233,2.978-7.307
				h-30.226l0.963,0.301C276.917-53.281,276.917-44.329,268.737-41.797"/>
		</g>
	</g>
</g>
<g>
	<path fill="#FF8409" d="M132.568,7.359v135.282c0,2.768-2.243,5.011-5.011,5.011H32.359c-2.768,0-5.01-2.243-5.01-5.011V7.359
		c0-2.767,2.243-5.01,5.01-5.01h95.198C130.325,2.349,132.568,4.592,132.568,7.359z"/>
	<rect x="37.37" y="12.37" fill="#F5DCB4" width="85.177" height="115.24"/>
	<path fill="#FAEBC8" d="M112.526,120.094H47.391c-1.383,0-2.505-1.121-2.505-2.505V22.391c0-1.384,1.122-2.505,2.505-2.505h65.136
		c1.384,0,2.505,1.122,2.505,2.505v95.198C115.031,118.973,113.91,120.094,112.526,120.094z"/>
	<circle fill="#7F8499" cx="79.959" cy="137.631" r="3.758"/>
	<polygon fill="#FF5050" points="97.495,101.096 97.495,117.589 102.506,115.084 107.516,117.589 107.516,101.096 	"/>
	<circle fill="#FFDC64" cx="102.506" cy="95.042" r="7.515"/>
	<path d="M127.558,0H32.359C28.301,0,25,3.301,25,7.359v135.282c0,4.059,3.301,7.359,7.359,7.359h95.198
		c4.058,0,7.359-3.301,7.359-7.359V7.359C134.917,3.301,131.615,0,127.558,0z M130.219,142.641c0,1.469-1.193,2.662-2.661,2.662
		H32.359c-1.468,0-2.662-1.193-2.662-2.662V7.359c0-1.468,1.194-2.662,2.662-2.662h95.198c1.468,0,2.662,1.194,2.662,2.662
		L130.219,142.641L130.219,142.641z"/>
	<path d="M122.547,10.021H37.37c-1.297,0-2.349,1.051-2.349,2.349v115.24c0,1.297,1.051,2.35,2.349,2.35h85.177
		c1.297,0,2.35-1.052,2.35-2.35V12.37C124.896,11.072,123.844,10.021,122.547,10.021z M120.199,125.261H39.718V14.718h80.481
		V125.261z"/>
	<path d="M79.959,131.523c-3.367,0-6.107,2.74-6.107,6.107c0,3.366,2.74,6.105,6.107,6.105c3.366,0,6.105-2.739,6.105-6.105
		C86.064,134.264,83.326,131.523,79.959,131.523z M79.959,139.039c-0.777,0-1.41-0.631-1.41-1.408s0.633-1.41,1.41-1.41
		c0.776,0,1.408,0.633,1.408,1.41S80.735,139.039,79.959,139.039z"/>
	<path d="M67.432,29.75h0.157v12.682c0,6.82,5.549,12.37,12.369,12.37c6.821,0,12.37-5.55,12.37-12.37V29.75h0.156
		c1.297,0,2.349-1.051,2.349-2.349c0-1.297-1.052-2.349-2.349-2.349h-5.011c-1.297,0-2.349,1.051-2.349,2.349
		c0,1.297,1.051,2.349,2.349,2.349h0.157v12.682c0,4.23-3.442,7.673-7.673,7.673s-7.672-3.442-7.672-7.673V29.75h0.156
		c1.297,0,2.349-1.051,2.349-2.349c0-1.297-1.052-2.349-2.349-2.349h-5.01c-1.297,0-2.349,1.051-2.349,2.349
		C65.084,28.698,66.135,29.75,67.432,29.75z"/>
	<path d="M54.906,42.275h5.011c1.297,0,2.349-1.051,2.349-2.349c0-1.297-1.052-2.349-2.349-2.349h-5.011
		c-1.297,0-2.349,1.052-2.349,2.349C52.558,41.225,53.609,42.275,54.906,42.275z"/>
	<path d="M100,42.275h5.011c1.297,0,2.349-1.051,2.349-2.349c0-1.297-1.052-2.349-2.349-2.349H100c-1.297,0-2.349,1.052-2.349,2.349
		C97.651,41.225,98.703,42.275,100,42.275z"/>
	<path d="M54.906,67.328h50.104c1.297,0,2.349-1.052,2.349-2.35c0-1.297-1.051-2.348-2.349-2.348H54.906
		c-1.297,0-2.349,1.051-2.349,2.348C52.558,66.276,53.609,67.328,54.906,67.328z"/>
	<path d="M54.906,77.349h50.104c1.297,0,2.349-1.052,2.349-2.349s-1.051-2.349-2.349-2.349H54.906c-1.297,0-2.349,1.052-2.349,2.349
		S53.609,77.349,54.906,77.349z"/>
	<path d="M84.969,90.188H59.917c-1.297,0-2.349,1.052-2.349,2.35c0,1.297,1.052,2.348,2.349,2.348h25.052
		c1.297,0,2.349-1.051,2.349-2.348S86.266,90.188,84.969,90.188z"/>
	<path d="M84.969,100.209H69.938c-1.297,0-2.349,1.051-2.349,2.349c0,1.297,1.051,2.349,2.349,2.349h15.031
		c1.297,0,2.349-1.051,2.349-2.349S86.266,100.209,84.969,100.209z"/>
	<path d="M92.641,95.041c0,2.518,0.949,4.815,2.506,6.561v15.986c0,0.814,0.422,1.57,1.113,1.998
		c0.693,0.43,1.558,0.468,2.285,0.104l3.961-1.98l3.959,1.98c0.332,0.166,0.691,0.248,1.051,0.248c0.43,0,0.857-0.117,1.234-0.351
		c0.693-0.429,1.114-1.185,1.114-1.998v-15.987c1.557-1.745,2.505-4.043,2.505-6.56c0-5.439-4.425-9.864-9.863-9.864
		C97.066,85.178,92.641,89.603,92.641,95.041z M103.556,112.982c-0.661-0.33-1.439-0.33-2.101,0l-1.611,0.807v-9.251
		c0.848,0.238,1.739,0.368,2.662,0.368c0.922,0,1.814-0.13,2.662-0.368v9.251L103.556,112.982z M107.672,95.041
		c0,2.85-2.317,5.168-5.166,5.168c-2.85,0-5.168-2.318-5.168-5.168c0-2.849,2.318-5.166,5.168-5.166
		C105.354,89.875,107.672,92.192,107.672,95.041z"/>
</g>
</svg>
