<?xml version="1.0" encoding="utf-8"?>
<!-- Generator: Adobe Illustrator 16.0.3, SVG Export Plug-In . SVG Version: 6.00 Build 0)  -->
<!DOCTYPE svg PUBLIC "-//W3C//DTD SVG 1.1//EN" "http://www.w3.org/Graphics/SVG/1.1/DTD/svg11.dtd">
<svg version="1.1" id="Layer_1" xmlns="http://www.w3.org/2000/svg" xmlns:xlink="http://www.w3.org/1999/xlink" x="0px" y="0px"
	 width="595.279px" height="841.891px" viewBox="0 0 595.279 841.891" enable-background="new 0 0 595.279 841.891"
	 xml:space="preserve">
<path fill="#FF24BD" d="M1128.509,360.207v88.95h13.001v-88.95H1128.509z"/>
<path fill="#FF24BD" d="M1010.822,450.639c-5.132,0-9.465-1.14-12.887-3.535c-0.342-0.228-0.798-0.57-1.14-0.798v2.965h-11.518
	v-87.582h13.114v37.519c3.192-2.053,7.07-3.079,11.632-3.079c4.903,0,9.236,1.14,12.886,3.535c3.649,2.395,6.5,5.588,8.553,9.693
	s3.079,8.78,3.079,14.026c0,5.132-1.026,9.808-2.965,13.913s-4.789,7.412-8.324,9.807
	C1019.717,449.385,1015.497,450.639,1010.822,450.639z M997.935,415.059c-0.798,2.396-1.14,5.132-1.14,8.211s0.342,5.816,1.14,8.211
	c0.799,2.395,2.053,4.22,3.764,5.474c1.711,1.255,4.105,1.938,6.956,1.938c2.852,0,5.132-0.684,6.843-2.053
	c1.824-1.368,3.079-3.307,3.991-5.701c0.912-2.396,1.255-5.018,1.255-7.983c0-2.851-0.457-5.474-1.369-7.868s-2.28-4.334-4.22-5.702
	c-1.824-1.482-4.219-2.167-7.184-2.167c-2.737,0-4.904,0.685-6.614,1.939C999.988,410.84,998.734,412.664,997.935,415.059z"/>
<path fill="#FF24BD" d="M964.75,418.594v30.563h13v-33.983c0-5.702-1.482-10.264-4.562-13.685
	c-2.965-3.535-7.412-5.246-13.342-5.246c-3.422,0-6.614,0.799-9.466,2.281c-2.622,1.368-4.675,3.307-6.386,5.702
	c-1.255-2.167-2.965-3.991-5.132-5.474c-2.623-1.711-5.93-2.623-9.921-2.623c-3.535,0-6.729,0.798-9.579,2.395
	c-2.167,1.141-3.992,2.737-5.475,4.562v-5.702h-11.518v51.773h13.114V417.91c0-2.965,0.799-5.36,2.395-7.185
	c1.711-1.938,3.878-2.851,6.501-2.851c2.851,0,5.018,0.912,6.614,2.851c1.596,1.938,2.395,4.562,2.395,7.982v30.448h13V417.91
	c0-1.938,0.343-3.764,1.141-5.246s1.824-2.736,3.193-3.535c1.368-0.912,2.965-1.254,4.789-1.254c2.852,0,5.018,0.912,6.614,2.851
	C963.952,412.55,964.75,415.173,964.75,418.594z"/>
<path fill="#FF24BD" d="M855.844,448.586c2.509,1.369,5.815,2.053,9.921,2.053c5.018,0,9.237-1.14,12.544-3.307
	c1.597-1.026,2.966-2.167,4.22-3.535v5.359h11.518v-51.659h-13.114v26.229c0,3.193-0.342,5.816-1.14,7.755
	c-0.685,1.938-1.597,3.421-2.737,4.447s-2.281,1.711-3.535,2.053c-1.255,0.343-2.509,0.57-3.535,0.57c-2.737,0-4.904-0.57-6.5-1.824
	c-1.482-1.255-2.623-2.737-3.308-4.676c-0.685-1.824-1.026-3.649-1.141-5.474c-0.113-1.825-0.228-3.422-0.228-4.562v-24.519H845.58
	v28.966c0,0.912,0.114,2.28,0.228,4.105c0.114,1.938,0.457,3.991,1.141,6.271c0.57,2.281,1.597,4.448,2.965,6.614
	C851.282,445.507,853.221,447.218,855.844,448.586z"/>
<path fill="#FF24BD" d="M1040.358,397.497v51.659h13.114v-26.457c0-1.938,0.229-3.763,0.798-5.359
	c0.57-1.597,1.369-2.965,2.396-4.105s2.395-2.167,3.877-2.851c1.482-0.685,3.193-1.141,5.132-1.255s3.535,0,5.018,0.456v-12.088
	c-1.597-0.229-3.079-0.229-4.676-0.114s-3.079,0.343-4.562,0.799s-2.851,1.026-4.105,1.824c-1.596,0.912-2.965,2.167-4.105,3.649
	c-0.569,0.685-1.026,1.368-1.482,2.167v-8.325H1040.358L1040.358,397.497z"/>
<path fill="#FF24BD" d="M1098.175,450.639c-5.246,0-9.922-1.14-14.026-3.421c-3.992-2.28-7.185-5.474-9.466-9.465
	c-2.28-3.991-3.421-8.667-3.421-13.799c0-5.702,1.141-10.605,3.307-14.711c2.281-4.22,5.36-7.413,9.237-9.693
	c3.878-2.281,8.439-3.535,13.571-3.535c5.474,0,10.035,1.254,13.798,3.877c3.764,2.509,6.614,6.158,8.439,10.72
	c1.824,4.676,2.509,10.035,1.938,16.308h-36.265c0.456,3.079,1.369,5.588,2.852,7.526c2.053,2.623,5.132,3.878,9.237,3.878
	c2.509,0,4.789-0.57,6.614-1.711c1.824-1.141,3.192-2.737,4.219-4.79l13.001,3.764c-1.939,4.676-5.018,8.438-9.237,11.062
	C1107.64,449.271,1103.078,450.639,1098.175,450.639z M1106.157,410.84c1.141,1.482,1.825,3.649,2.281,6.5h-22.808
	c0.456-2.395,1.368-4.334,2.509-5.93c2.053-2.737,5.359-4.105,9.807-4.105C1101.71,407.305,1104.448,408.444,1106.157,410.84z"/>
<path fill="#FF24BD" d="M1152.001,449.156v-88.95h13v88.95H1152.001z"/>
<path fill="#FF24BD" d="M1179.598,448.473c2.623,1.368,5.702,2.053,9.466,2.053c4.447,0,8.097-0.799,11.062-2.281
	c2.281-1.254,4.447-3.079,6.614-5.474v6.386h11.404v-31.589c0-2.395-0.114-4.447-0.343-6.386c-0.228-1.938-0.798-3.877-1.824-5.702
	c-1.825-3.421-4.447-5.815-8.097-7.298c-3.535-1.369-7.641-2.053-12.202-2.053c-6.272,0-11.176,1.368-14.711,3.991
	c-3.649,2.736-6.044,6.158-7.413,10.377l11.746,3.764c0.799-2.395,2.281-3.991,4.334-4.903c2.053-0.913,4.105-1.369,5.93-1.369
	c3.421,0,5.93,0.685,7.412,2.167c1.141,1.141,1.825,2.737,2.053,4.903c-2.166,0.343-4.333,0.685-6.271,0.913
	c-3.308,0.456-6.387,1.026-9.01,1.482c-2.622,0.57-4.903,1.14-6.842,1.824c-2.737,1.026-5.018,2.281-6.614,3.877
	c-1.597,1.483-2.851,3.193-3.535,5.246c-0.685,1.938-1.141,4.22-1.141,6.614c0,2.852,0.685,5.474,1.938,7.869
	C1175.037,445.165,1176.976,447.104,1179.598,448.473z M1197.845,439.121c-1.597,0.798-3.649,1.255-6.045,1.255
	c-1.482,0-2.736-0.229-3.877-0.685s-1.938-1.141-2.509-1.938c-0.57-0.913-0.912-1.938-0.912-3.079c0-0.912,0.228-1.597,0.57-2.395
	c0.342-0.685,0.912-1.369,1.71-1.939c0.799-0.57,1.825-1.14,3.079-1.71c1.141-0.456,2.396-0.799,3.878-1.141
	s3.421-0.685,5.815-1.141c1.482-0.342,3.422-0.57,5.474-1.026c0,0.912-0.113,1.938-0.113,3.079
	c-0.114,1.825-0.456,3.421-1.141,4.903c-0.342,0.685-1.026,1.597-2.053,2.737C1200.81,437.297,1199.441,438.209,1197.845,439.121z"
	/>
<path fill="#FF24BD" d="M773.622,397.839H738.27v15.396c0,23.036,18.589,41.624,41.624,41.624c23.036,0,41.624-18.588,41.624-41.624
	v-15.396h-36.492v-24.518c0-9.807-7.868-17.676-17.676-17.676s-17.676,7.869-17.676,17.676h11.403c0-3.421,2.852-6.272,6.272-6.272
	s6.272,2.851,6.272,6.272V397.839z M773.622,409.243v21.667h11.403v-21.667h25.089v3.991c0,16.649-13.57,30.22-30.221,30.22
	c-16.649,0-30.22-13.57-30.22-30.22v-3.991H773.622z"/>
<g>
	<path d="M294.64,172.445c-122.323,0-221.5,109.699-221.5,245c0,135.301,99.177,245,221.5,245s221.5-109.699,221.5-245
		C516.14,282.144,416.963,172.445,294.64,172.445z M294.64,210.134c103.274,0.143,186.945,92.794,186.945,207.046
		c0,114.354-83.8,207.044-187.186,207.044c-103.385,0-187.186-92.691-187.186-207.045c0-57.167,20.95-108.923,54.821-146.388
		c33.908-37.464,80.736-60.637,132.457-60.637h0.129L294.64,210.134z M294.64,266.688c-81.069,15.803-153.352,98.49-153.352,188.446
		c39.667-77.461,66.154-83.035,73.482-83.035s11.186,4.206,11.186,13.536v115.437c0,14.353-25.214,12.004-33.557,10.596
		c30.825,50.735,102.24,56.555,102.24,56.555l34.074-37.689l34.074,18.845c53.787-27.235,85.186-85.546,85.186-94.224
		c-12.94,17.723-30.383,30.932-50.41,37.486l-0.721,0.203c-4.521,0-17.036-2.572-17.036-9.433V346.763
		c0-11.862,24.771-48.061,34.073-61.25c-61.503,17.824-79.333,48.877-79.333,48.877s-4.67-11.188-22.889-11.188
		c9.248,9.657,15.469,22.744,17.019,37.403l0.019,0.286v115.435c-9.69,7.616-21.116,13.333-33.465,16.355l-0.628,0.121
		c-11.813,0-17.572-5.308-17.572-15.313c0-10.004,0.535-135.444,0.535-135.444s-17.036,6.921-17.036-31.809
		c0-19.375,34.073-43.59,34.073-43.59L294.64,266.688z"/>
</g>
</svg>
