<svg width="135" height="107" viewBox="0 0 135 107" fill="none" xmlns="../../external.html?link=http://www.w3.org/2000/svg">
<path d="M72.534 89.515C72.534 89.515 91.5559 110.219 111.854 106.565C121.712 104.796 127.889 100.331 131.629 96.2133C135.254 92.2407 134.877 86.0934 130.846 82.5268L129.484 81.309C125.598 77.8584 119.712 78.2063 116.116 82.0049C114.115 84.0926 111.303 85.9194 107.272 86.4704C95.9344 88.0652 87.3803 73.4219 87.3803 73.4219L72.534 89.515Z" fill="black"/>
<path d="M76.6514 37.9299C76.0238 38.3406 76.0238 38.3405 76.0237 38.3404L76.0231 38.3395L76.0205 38.3355L76.0099 38.3194L75.967 38.2542C75.9289 38.1965 75.8718 38.1103 75.7966 37.9974C75.6463 37.7715 75.4234 37.4389 75.1343 37.0131C74.5562 36.1614 73.7136 34.9373 72.6573 33.4501C70.5442 30.4752 67.5784 26.451 64.1662 22.2517C60.7524 18.0503 56.9008 13.6849 53.0165 10.0216C49.1197 6.34656 45.2439 3.43047 41.7834 2.06282C39.3453 1.1041 37.3028 1.12689 35.6837 1.71397C34.0584 2.30328 32.788 3.48711 31.946 4.97482C30.2407 7.98779 30.3737 12.0725 32.6932 14.6014C34.4923 16.5554 35.875 17.7658 37.355 19.0615C37.6492 19.319 37.9472 19.5799 38.253 19.8506C40.1048 21.4897 42.1951 23.449 45.3515 27.1167C48.504 30.7654 50.9344 34.0569 52.5779 36.4382C52.8598 36.8465 53.1185 37.2282 53.3538 37.5803C53.8425 38.1541 54.2453 38.6588 54.5458 39.0773C54.7919 39.4201 54.9965 39.742 55.1157 40.0147C55.1719 40.1433 55.2394 40.3272 55.2467 40.53C55.2549 40.7558 55.1801 41.1313 54.8041 41.3402L54.1615 41.6972L53.7918 41.062L53.7917 41.0619L53.7917 41.0619L53.7915 41.0615L53.79 41.0589L53.7833 41.0476L53.7552 41C53.7299 40.9574 53.6916 40.8931 53.6402 40.8082C53.5375 40.6385 53.3829 40.3864 53.1775 40.0606C52.9175 39.6482 52.5761 39.1178 52.1554 38.4868C51.855 38.1356 51.5175 37.753 51.1456 37.3423C49.1811 35.1731 46.3139 32.2855 43.049 29.2589C36.4923 23.1809 28.4479 16.6519 22.935 14.2001C18.1072 12.0559 13.7865 13.9511 11.4658 17.0555C9.12064 20.1925 8.93024 24.3437 12.0554 26.8797L12.0561 26.8802C14.1801 28.6082 17.1777 30.747 20.4949 33.1139C22.8682 34.8073 25.4051 36.6174 27.9028 38.4773C30.8768 40.6919 33.7766 42.9649 36.2197 45.1598C37.9668 46.7296 39.5038 48.2798 40.6694 49.7581C40.864 49.9459 41.0378 50.1222 41.1891 50.2854C41.4598 50.5772 41.693 50.8636 41.837 51.1225C41.9058 51.2463 41.99 51.4258 42.0118 51.6341C42.0368 51.8735 41.9769 52.2109 41.674 52.4433L41.0073 52.9549L40.5745 52.2345C40.2912 51.7629 39.9494 51.2732 39.5551 50.7677C39.0915 50.3255 38.4877 49.7974 37.76 49.2041C35.664 47.4953 32.6135 45.3042 29.1356 43.1686C25.6571 41.0325 21.7697 38.9634 17.9991 37.4879C14.2129 36.0064 10.6171 35.1527 7.69541 35.3721C5.67875 35.5237 4.26155 36.3619 3.30428 37.5573C2.33233 38.771 1.79709 40.4027 1.66723 42.1712C1.53757 43.9369 1.81657 45.79 2.4205 47.3966C3.02733 49.011 3.93732 50.3134 5.01786 51.0552C5.31774 51.2602 5.95837 51.5975 6.90549 52.0499C7.83545 52.494 9.0144 53.0276 10.3559 53.6224C11.6946 54.216 13.1468 54.8496 14.6643 55.5117C16.2456 56.2015 17.8978 56.9224 19.5669 57.6614C22.7805 59.0842 25.9128 60.5119 28.2256 61.7033C29.3782 62.2971 30.3516 62.8444 31.0347 63.3122C31.3725 63.5436 31.6713 63.7769 31.8879 64.0064C31.9961 64.121 32.107 64.2589 32.1882 64.4179C32.2686 64.5752 32.3475 64.8091 32.3007 65.0818L32.1516 65.9492L31.3189 65.6645L31.3183 65.6643L31.3156 65.6634L31.3039 65.6594L31.2553 65.643C31.212 65.6285 31.1469 65.6069 31.0616 65.5789C30.8909 65.523 30.639 65.4417 30.3169 65.3413C29.6724 65.1404 28.7475 64.8632 27.6295 64.5589C25.3906 63.9498 22.3901 63.236 19.3229 62.8088C16.2418 62.3797 13.1582 62.2496 10.7251 62.7648C8.2979 63.2789 6.6955 64.385 6.18975 66.3056L6.18961 66.3062C5.05534 70.6002 6.65189 73.4647 8.5388 75.2979C9.49416 76.2261 10.5271 76.8892 11.3259 77.3209C11.7239 77.536 12.0601 77.6916 12.294 77.7925C12.4109 77.8429 12.5019 77.8795 12.5621 77.9029C12.5631 77.9033 12.5641 77.9037 12.565 77.9041C12.5835 77.9059 12.6044 77.908 12.6276 77.9103C12.734 77.921 12.8899 77.9373 13.0905 77.9598C13.4916 78.0049 14.0714 78.0751 14.7907 78.1758C16.2289 78.3771 18.2281 78.701 20.4744 79.1916C24.9445 80.168 30.4823 81.823 34.5045 84.5443C35.8825 85.4767 37.308 86.5002 38.7829 87.5592C41.5561 89.5504 44.5042 91.6672 47.6404 93.5395C52.4192 96.3924 57.477 98.5713 62.6662 98.7112L62.6698 98.7113C67.9876 98.8801 76.9247 96.8328 84.7328 91.9072C92.5193 86.9952 99.0938 79.2825 99.9126 68.1483C100.029 66.5199 99.8109 64.5708 99.3877 62.3322C98.9856 60.2051 98.4077 57.8629 97.7842 55.3358C97.7525 55.2074 97.7207 55.0786 97.6888 54.9493C96.3748 49.6205 94.8995 43.5307 94.5763 37.2441C94.481 35.4557 94.5265 33.3886 94.5736 31.2492C94.5883 30.5812 94.6031 29.9061 94.6139 29.2302C94.6596 26.3623 94.6335 23.4498 94.2393 20.8282C93.844 18.1996 93.09 15.9483 91.745 14.3418C90.4269 12.7675 88.4777 11.7366 85.5043 11.6547C82.1596 11.5682 80.0273 13.0495 78.6396 15.3553C77.2186 17.7165 76.5748 20.9619 76.378 24.3199C76.1822 27.661 76.433 31.0265 76.7355 33.5655C76.8865 34.8328 77.0498 35.8893 77.175 36.6277C77.2377 36.9969 77.2907 37.2862 77.328 37.4824C77.3466 37.5805 77.3612 37.6552 77.3711 37.705L77.3823 37.7607L77.385 37.774L77.3856 37.777L77.3857 37.7776L77.3858 37.7776L77.3855 37.7777L76.0238 38.3406L76.6514 37.9299ZM40.5381 51.8748C40.5392 51.8779 40.5399 51.8793 40.5399 51.8791C40.5399 51.8789 40.5393 51.8775 40.5381 51.8748ZM53.7574 40.6571C53.7575 40.6574 53.7573 40.6567 53.7568 40.6549L53.7574 40.6571Z" fill="white" stroke="#2BAA65" stroke-width="1.5"/>
</svg>
