<?xml version="1.0" encoding="utf-8"?>
<!-- Generator: Adobe Illustrator 16.0.3, SVG Export Plug-In . SVG Version: 6.00 Build 0)  -->
<!DOCTYPE svg PUBLIC "-//W3C//DTD SVG 1.1//EN" "http://www.w3.org/Graphics/SVG/1.1/DTD/svg11.dtd">
<svg version="1.1" id="Capa_1" xmlns="http://www.w3.org/2000/svg" xmlns:xlink="http://www.w3.org/1999/xlink" x="0px" y="0px"
	 width="178px" height="104px" viewBox="0 0 178 104" enable-background="new 0 0 178 104" xml:space="preserve">
<g>
	<g>
		<path fill="#3EBFFF" d="M135.943,21.561v73.676c0,0.063-0.05,0.111-0.113,0.111h-8.984c-0.063,0-0.112-0.049-0.112-0.111V21.564
			c0-0.002,0-0.002,0-0.004c0-0.063,0.052-0.112,0.112-0.112h8.984C135.894,21.448,135.943,21.498,135.943,21.561z"/>
		<path fill="#3EBFFF" d="M62.267,95.232c0,0.002,0,0.002,0,0.004c0,0.063-0.052,0.111-0.112,0.111h-8.985
			c-0.063,0-0.112-0.049-0.112-0.111V21.561c0-0.063,0.049-0.112,0.112-0.112h8.985c0.063,0,0.112,0.05,0.112,0.112V95.232z"/>
	</g>
	<g>
		<path fill="#FFFFFF" d="M146.5,28.748v59.301c0,4.451-3.295,8.146-7.574,8.775c-0.58,1.123-1.748,1.894-3.096,1.894h-8.984
			c-1.31,0-2.451-0.728-3.044-1.797H65.198c-0.593,1.069-1.734,1.797-3.044,1.797h-8.985c-1.348,0-2.516-0.771-3.095-1.894
			C45.795,96.195,42.5,92.5,42.5,88.049V28.748c0-4.452,3.295-8.146,7.574-8.775c0.58-1.123,1.748-1.895,3.095-1.895h8.985
			c1.31,0,2.451,0.729,3.044,1.797h13.241v-5.502c0-4.893,3.98-8.873,8.873-8.873h14.375c4.893,0,8.873,3.98,8.873,8.873v5.503
			h13.241c0.593-1.069,1.733-1.798,3.044-1.798h8.984c1.348,0,2.516,0.771,3.096,1.895C143.205,20.602,146.5,24.296,146.5,28.748z
			 M143.131,88.049V28.748c0-2.446-1.606-4.525-3.818-5.238v69.777C141.524,92.574,143.131,90.494,143.131,88.049z M135.943,95.236
			V21.561c0-0.063-0.05-0.112-0.113-0.112h-8.984c-0.061,0-0.112,0.05-0.112,0.112c0,0.002,0,0.002,0,0.004v73.672
			c0,0.063,0.05,0.111,0.112,0.111h8.984C135.894,95.349,135.943,95.299,135.943,95.236z M123.363,93.552V23.245H65.636v70.307
			H123.363z M107.191,19.875v-5.502c0-3.035-2.469-5.504-5.504-5.504H87.312c-3.035,0-5.503,2.469-5.503,5.504v5.503L107.191,19.875
			L107.191,19.875z M62.267,95.236c0-0.002,0-0.002,0-0.004V21.561c0-0.063-0.049-0.112-0.112-0.112h-8.985
			c-0.063,0-0.112,0.05-0.112,0.112v73.676c0,0.063,0.049,0.111,0.112,0.111h8.985C62.215,95.349,62.267,95.299,62.267,95.236z
			 M49.688,93.287V23.51c-2.213,0.713-3.819,2.793-3.819,5.238v59.301C45.87,90.494,47.476,92.574,49.688,93.287z"/>
	</g>
</g>
<g>
	<path fill="#FFFFFF" d="M82.292,21.412v-8.017c0-0.65,0.289-1.083,0.724-1.083h23.9c0.436,0,0.725,0.433,0.725,1.083v8.017h4.346
		v-8.017c0-4.117-2.318-7.583-5.07-7.583h-23.9c-2.751,0-5.07,3.466-5.07,7.583v8.017H82.292z"/>
	<path fill="#3EBFFF" d="M108.75,74.535L108.75,74.535l-5.85-5.85c-1.951,1.949-4.551,3.25-7.584,3.25
		c-5.85,0-10.832-4.768-10.832-10.834c0-3.033,1.299-5.633,3.248-7.584l-5.849-5.849l0,0c-0.434,0.434-0.865,1.083-1.299,1.517
		l-4.551-0.867l-2.383,4.551l3.25,3.248c-0.434,1.301-0.65,2.602-0.65,3.902l-4.117,1.949L73,67.168l4.551,0.65
		c0.432,1.301,1.082,2.383,1.732,3.684l-2.166,4.117l3.684,3.684l4.115-2.168c1.084,0.867,2.385,1.301,3.684,1.951l0.65,4.549
		l5.199,0.867l1.951-4.117c1.299,0,2.6-0.217,3.898-0.65l3.25,3.25l4.551-2.383l-0.867-4.549
		C107.883,75.402,108.316,74.969,108.75,74.535z"/>
	<path fill="#FFFFFF" d="M94.984,50.268c5.85,0,10.834,4.767,10.834,10.833c0,3.033-1.301,5.633-3.25,7.584l5.85,5.85
		c0.434-0.434,0.867-1.084,1.299-1.516l4.551,0.865l2.383-4.549l-3.25-3.467c0.434-1.301,0.65-2.6,0.65-3.9l4.117-1.949
		l-0.867-5.201l-4.549-0.65c-0.434-1.301-1.084-2.383-1.734-3.683l2.166-4.117l-3.682-3.684l-4.117,2.167
		c-1.084-0.867-2.383-1.3-3.684-1.95l-0.65-4.55l-5.199-0.867L93.9,41.818c-1.299,0-2.6,0.217-3.898,0.65l-3.25-3.25l-4.551,2.383
		l0.868,4.55c-0.434,0.434-1.084,0.867-1.518,1.3l5.85,5.849C89.352,51.352,91.951,50.268,94.984,50.268z"/>
</g>
</svg>
