<svg width="21" height="21" viewBox="0 0 21 21" fill="none" xmlns="http://www.w3.org/2000/svg">
<g clip-path="url(#clip0_1_109)">
<path d="M17.876 3.625H14.126V2.375C14.126 1.68438 13.5666 1.125 12.876 1.125H7.87598C7.18536 1.125 6.62598 1.685 6.62598 2.375V3.625H2.87598C1.49536 3.625 0.375977 4.74438 0.375977 6.125V9.25H20.376V6.125C20.376 4.74438 19.2566 3.625 17.876 3.625ZM12.876 3.625H7.87598V3C7.87598 2.655 8.15598 2.375 8.50098 2.375H12.251C12.596 2.375 12.876 2.655 12.876 3V3.625ZM12.876 11.125C12.876 12.5056 11.7566 13.625 10.376 13.625C8.99536 13.625 7.87598 12.5056 7.87598 11.125C7.87598 10.9075 7.90974 10.6994 7.96411 10.5H0.375977V17.375C0.375977 18.7556 1.49536 19.875 2.87598 19.875H17.876C19.2566 19.875 20.376 18.7556 20.376 17.375V10.5H12.7879C12.8422 10.7 12.876 10.9075 12.876 11.125ZM11.626 11.125C11.626 10.8962 11.5597 10.6844 11.4528 10.5H9.29974C9.19222 10.6844 9.12598 10.8962 9.12598 11.125C9.12598 11.8156 9.68536 12.375 10.376 12.375C11.0666 12.375 11.626 11.8156 11.626 11.125Z" fill="white"/>
</g>
<defs>
<clipPath id="clip0_1_109">
<rect width="20" height="20" fill="white" transform="translate(0.375977 0.5)"/>
</clipPath>
</defs>
</svg>
