<svg width="21" height="21" viewBox="0 0 21 21" fill="none" xmlns="http://www.w3.org/2000/svg">
<g clip-path="url(#clip0_18_208)">
<path d="M18.2874 8.80384L10.487 1.00238C10.027 0.543469 9.2828 0.548899 8.82878 1.00179C8.37218 1.45956 8.37218 2.20285 8.82878 2.66004L16.6302 10.4609C17.0873 10.918 17.8303 10.918 18.2874 10.4609C18.7456 10.0027 18.7456 9.26204 18.2874 8.80384Z" fill="white"/>
<path d="M8.25009 3.73848L8.19138 4.03278C7.77783 6.10145 6.77275 8.06673 5.41333 9.65958L9.65736 13.9036C11.25 12.5445 13.1882 11.5124 15.257 11.0983L15.5518 11.0396L8.25009 3.73848Z" fill="white"/>
<path d="M4.63532 10.5387L1.73481 13.4386C1.04946 14.1239 1.04661 15.2366 1.73481 15.9248L3.39192 17.5819C4.07728 18.2673 5.18994 18.2701 5.87814 17.5819L8.77838 14.6817L4.63532 10.5387ZM5.04962 15.0963C4.82075 15.3251 4.44993 15.3251 4.22107 15.0963C3.9922 14.8674 3.9922 14.4966 4.22107 14.2677L5.04962 13.4392C5.27849 13.2103 5.64931 13.2103 5.87818 13.4392C6.10705 13.668 6.10705 14.0389 5.87818 14.2677L5.04962 15.0963Z" fill="white"/>
<path d="M11.2247 17.8937L12.0218 17.0966C12.71 16.4085 12.7078 15.2959 12.0218 14.611L11.4298 14.0186C11.1026 14.2384 10.7901 14.4772 10.4863 14.7321L11.1933 15.4402C11.4216 15.6673 11.4232 16.037 11.1933 16.2681L10.3831 17.0784L9.19235 15.9247L7.53516 17.5819L10.1936 20.158C10.6473 20.6128 11.3922 20.6154 11.8502 20.1574C12.3074 19.7002 12.3074 18.9569 11.8502 18.4997L11.2247 17.8937Z" fill="white"/>
<path d="M13.5918 0.5C13.2679 0.5 13.0059 0.762071 13.0059 1.08594V2.25782C13.0059 2.58168 13.2679 2.84375 13.5918 2.84375C13.9157 2.84375 14.1777 2.58168 14.1777 2.25782V1.08594C14.1777 0.762071 13.9157 0.5 13.5918 0.5Z" fill="white"/>
<path d="M18.2793 5.18752H17.1074C16.7836 5.18752 16.5215 5.44959 16.5215 5.77345C16.5215 6.09732 16.7836 6.35939 17.1074 6.35939H18.2793C18.6032 6.35939 18.8652 6.09732 18.8652 5.77345C18.8652 5.44959 18.6032 5.18752 18.2793 5.18752Z" fill="white"/>
<path d="M17.5217 1.84351C17.2928 1.61464 16.922 1.61464 16.6931 1.84351L15.5213 3.01539C15.2924 3.24426 15.2924 3.61508 15.5213 3.84394C15.7501 4.07281 16.1209 4.07285 16.3498 3.84394L17.5217 2.67207C17.7506 2.4432 17.7506 2.07238 17.5217 1.84351Z" fill="white"/>
</g>
<defs>
<clipPath id="clip0_18_208">
<rect width="20" height="20" fill="white" transform="translate(0.0424805 0.5)"/>
</clipPath>
</defs>
</svg>
