<?xml version="1.0" encoding="utf-8"?>
<!-- Generator: Adobe Illustrator 16.0.3, SVG Export Plug-In . SVG Version: 6.00 Build 0)  -->
<!DOCTYPE svg PUBLIC "-//W3C//DTD SVG 1.1//EN" "http://www.w3.org/Graphics/SVG/1.1/DTD/svg11.dtd">
<svg version="1.1" id="Capa_1" xmlns="http://www.w3.org/2000/svg" xmlns:xlink="http://www.w3.org/1999/xlink" x="0px" y="0px"
	 width="32px" height="29px" viewBox="0 0 32 29" enable-background="new 0 0 32 29" xml:space="preserve">
<g>
	<g id="_x32_5_attachment">
	</g>
	<g id="_x32_4_office">
	</g>
	<g id="_x32_3_pin">
	</g>
	<g id="_x32_2_business_card">
	</g>
	<g id="_x32_1_form">
	</g>
	<g id="_x32_0_headset">
	</g>
	<g id="_x31_9_video_call">
	</g>
	<g id="_x31_8_letter_box">
	</g>
	<g id="_x31_7_papperplane">
	</g>
	<g id="_x31_6_laptop">
	</g>
	<g id="_x31_5_connection">
	</g>
	<g id="_x31_4_phonebook">
	</g>
	<g id="_x31_3_classic_telephone">
	</g>
	<g id="_x31_2_sending_mail">
	</g>
	<g id="_x31_1_man_talking">
		<g>
			<g>
				<g>
					<path d="M31.439,9.458c-0.622-1.057-1.67-1.833-2.952-2.188c-1.279-0.354-2.64-0.246-3.827,0.31
						c-2.451,1.143-3.396,3.846-2.112,6.024c0.067,0.118,0.144,0.234,0.227,0.347l-0.641,0.978c-0.1,0.149-0.095,0.335,0.011,0.482
						c0.102,0.146,0.288,0.226,0.487,0.214l1.99-0.158c0.743,0.354,1.557,0.531,2.37,0.531c0.798,0,1.598-0.171,2.333-0.514
						c1.188-0.553,2.061-1.484,2.459-2.623C32.186,11.722,32.064,10.514,31.439,9.458z M30.787,12.583
						c-0.314,0.902-1.007,1.64-1.947,2.078c-1.217,0.567-2.653,0.54-3.846-0.073c-0.078-0.04-0.167-0.061-0.259-0.061
						c-0.017,0-0.032,0-0.046,0.001l-1.147,0.091l0.299-0.459c0.108-0.161,0.095-0.364-0.032-0.513
						c-0.127-0.147-0.239-0.308-0.337-0.474c-1.018-1.727-0.269-3.869,1.676-4.774c0.938-0.438,2.015-0.526,3.027-0.245
						c1.016,0.281,1.848,0.896,2.341,1.733C31.008,10.725,31.105,11.683,30.787,12.583z"/>
					<path fill="#ED8F27" d="M24.539,11.067h-0.02c-0.288,0-0.512,0.208-0.512,0.464s0.24,0.464,0.531,0.464
						c0.288,0,0.522-0.208,0.522-0.464S24.827,11.067,24.539,11.067z"/>
					<path fill="#ED8F27" d="M27.017,11.067h-0.021c-0.288,0-0.512,0.208-0.512,0.464s0.242,0.464,0.533,0.464
						c0.285,0,0.517-0.208,0.517-0.464S27.302,11.067,27.017,11.067z"/>
					<path fill="#ED8F27" d="M29.489,11.067h-0.019c-0.286,0-0.512,0.208-0.512,0.464s0.242,0.464,0.53,0.464s0.52-0.208,0.52-0.464
						S29.777,11.067,29.489,11.067z"/>
					<path d="M12.434,23.497c0.288,0,0.522-0.207,0.522-0.464c0-0.256-0.234-0.463-0.522-0.463h-0.023
						c-0.288,0-0.51,0.207-0.51,0.463C11.9,23.29,12.146,23.497,12.434,23.497z"/>
					<path d="M12.466,25.235h-0.021c-0.289,0-0.512,0.208-0.512,0.464s0.244,0.463,0.532,0.463c0.288,0,0.521-0.207,0.521-0.463
						S12.753,25.235,12.466,25.235z"/>
					<path d="M19.402,16.553c-0.073-0.151-0.167-0.298-0.302-0.425l-0.717-0.692c-0.302-0.291-0.716-0.461-1.166-0.477
						c-0.115-0.002-0.234,0.006-0.35,0.023l-0.437-0.731c1.244-0.926,2.195-2.212,2.698-3.458l0.959-0.281
						c0.677-0.2,1.269-0.96,1.269-1.627V8.17c0-0.703-0.644-1.274-1.436-1.274h-0.388V6.249c0-0.002,0-0.003,0-0.005
						c0.103-2.108-0.94-3.875-2.936-4.975C14.253-0.023,10.96-0.106,8.59,1.066C6.5,2.102,5.349,3.942,5.349,6.249v0.647H4.958
						c-0.789,0-1.431,0.571-1.431,1.274v0.714c0,0.667,0.591,1.427,1.268,1.627l0.962,0.282c0.437,1.08,1.199,2.193,2.158,3.091
						c0.121,0.115,0.252,0.22,0.386,0.324l-0.375,0.766c-0.093-0.012-0.187-0.018-0.283-0.016c-0.446,0.017-0.859,0.186-1.16,0.477
						l-0.718,0.692c-0.132,0.126-0.23,0.272-0.304,0.425c-5.277,1.84-5.281,5.434-5.281,7.825v4.153
						c0,0.256,0.233,0.463,0.522,0.463h23.461c0.288,0,0.52-0.207,0.52-0.463v-4.153C24.684,21.986,24.682,18.392,19.402,16.553z
						 M19.534,8.945V7.824h0.388c0.216,0,0.391,0.156,0.391,0.347v0.714c0,0.261-0.305,0.672-0.552,0.746l-0.31,0.091
						C19.502,9.454,19.534,9.192,19.534,8.945z M5.123,9.63C4.875,9.558,4.57,9.146,4.57,8.885V8.17
						c0-0.191,0.174-0.347,0.388-0.347h0.391v1.112c0,0.25,0.037,0.517,0.091,0.788L5.123,9.63z M16.733,16.032
						c0.121-0.101,0.277-0.151,0.444-0.146c0.17,0.006,0.325,0.068,0.438,0.178l0.717,0.693l0,0
						c0.113,0.107,0.172,0.249,0.164,0.399c-0.005,0.15-0.075,0.287-0.199,0.387l-3.1,2.542c-0.252,0.207-0.65,0.192-0.884-0.033
						l-1.143-1.103L16.733,16.032z M12.434,18.294L8.87,15.371l0.299-0.61c1.001,0.528,2.197,0.824,3.455,0.824
						c1.07,0,2.067-0.302,2.955-0.787l0.369,0.618L12.434,18.294z M9.098,1.878c2.054-1.017,4.912-0.943,6.951,0.18
						c1.517,0.835,2.362,2.138,2.435,3.695c-3.116-0.168-5.647-0.853-8.352-2.266c-0.22-0.114-0.5-0.071-0.664,0.103L9.244,3.825
						C8.226,4.91,7.831,5.331,6.424,5.659C6.635,3.544,7.965,2.438,9.098,1.878z M6.393,8.936V6.621
						c1.942-0.409,2.509-0.982,3.593-2.137c2.736,1.372,5.328,2.044,8.506,2.207v2.254c0,2.256-2.629,5.713-5.869,5.713
						c-1.555,0-2.995-0.514-3.951-1.411C7.33,11.988,6.393,10.216,6.393,8.936z M6.532,16.758L6.532,16.758l0.719-0.693
						c0.113-0.109,0.267-0.172,0.436-0.178c0.008,0,0.017-0.001,0.026-0.001c0.158,0,0.308,0.052,0.424,0.147l3.559,2.917
						l-1.143,1.103c-0.113,0.108-0.267,0.172-0.436,0.179c-0.171,0.003-0.329-0.046-0.45-0.146l-3.099-2.542
						c-0.124-0.1-0.194-0.236-0.201-0.387C6.361,17.007,6.418,16.865,6.532,16.758z M23.642,28.066h-2.615V25.16
						c0-0.255-0.234-0.464-0.522-0.464s-0.522,0.209-0.522,0.464v2.906H4.57V25.16c0-0.255-0.234-0.464-0.522-0.464
						c-0.288,0-0.521,0.209-0.521,0.464v2.906H1.225v-3.688c0-2.312,0.01-5.157,4.183-6.796c0.086,0.244,0.236,0.468,0.453,0.645
						l3.1,2.542c0.311,0.254,0.709,0.391,1.129,0.391c0.024,0,0.048,0,0.072-0.002c0.447-0.016,0.859-0.186,1.159-0.476l1.114-1.073
						l1.113,1.073c0.329,0.316,0.778,0.478,1.23,0.478c0.405,0,0.809-0.13,1.129-0.391l3.1-2.542
						c0.222-0.182,0.367-0.406,0.453-0.645c4.172,1.639,4.183,4.484,4.183,6.796V28.066L23.642,28.066z"/>
				</g>
				<path d="M12.472,12.586c0.025,0,0.05,0,0.076,0c0.467-0.017,0.896-0.186,1.173-0.459c0.192-0.19,0.173-0.483-0.04-0.655
					c-0.214-0.171-0.545-0.155-0.737,0.035c-0.089,0.087-0.256,0.144-0.439,0.151c-0.218,0.009-0.424-0.057-0.568-0.178
					c-0.209-0.176-0.54-0.167-0.737,0.018c-0.198,0.187-0.189,0.48,0.02,0.656C11.55,12.431,12.002,12.586,12.472,12.586z"/>
				<path d="M14.684,9.133c0.145-0.122,0.354-0.185,0.568-0.179c0.184,0.007,0.353,0.064,0.439,0.152
					c0.102,0.102,0.245,0.154,0.388,0.154c0.124,0,0.248-0.039,0.35-0.119c0.213-0.171,0.231-0.464,0.038-0.655
					c-0.277-0.274-0.706-0.442-1.171-0.458c-0.499-0.02-0.981,0.139-1.329,0.431c-0.209,0.176-0.219,0.469-0.02,0.656
					C14.144,9.301,14.475,9.309,14.684,9.133z"/>
				<path d="M8.243,8.459c-0.209,0.176-0.219,0.469-0.02,0.656C8.42,9.301,8.751,9.309,8.961,9.133
					c0.144-0.122,0.356-0.185,0.567-0.179c0.183,0.007,0.352,0.064,0.44,0.152c0.102,0.102,0.245,0.154,0.388,0.154
					c0.124,0,0.249-0.039,0.348-0.119c0.214-0.171,0.232-0.464,0.039-0.655c-0.277-0.274-0.706-0.442-1.173-0.458
					C9.072,8.009,8.59,8.167,8.243,8.459z"/>
			</g>
		</g>
	</g>
	<g id="_x31_0_date">
	</g>
	<g id="_x30_9_review">
	</g>
	<g id="_x30_8_email">
	</g>
	<g id="_x30_7_information">
	</g>
	<g id="_x30_6_phone_talking">
	</g>
	<g id="_x30_5_women_talking">
	</g>
	<g id="_x30_4_calling">
	</g>
	<g id="_x30_3_women">
	</g>
	<g id="_x30_2_writing">
	</g>
	<g id="_x30_1_chatting">
	</g>
</g>
</svg>
