<svg width="130" height="88" viewBox="0 0 130 88" fill="none" xmlns="../../external.html?link=http://www.w3.org/2000/svg">
<path opacity="0.7" d="M12.5875 78.7551C27.2018 93.2244 49.0654 89.3389 61.418 70.1141C73.7416 50.8313 71.9148 23.5163 57.3004 9.04699C42.7151 -5.39337 20.8806 -1.50782 8.52796 17.746C-3.85363 36.9998 -1.99784 64.3437 12.5875 78.7551Z" fill="#2BAA65"/>
<path opacity="0.7" d="M72.6394 75.2465C87.2537 89.7158 109.117 85.8303 121.47 66.6055C133.793 47.3226 131.967 23.1974 117.352 8.72802C102.767 -5.71234 80.9324 -1.82679 68.5508 17.427C56.2272 36.6809 58.054 60.8061 72.6394 75.2465Z" fill="#2BAA65"/>
<path d="M124.08 46.3948C123.326 61.1251 110.77 72.4338 96.0691 71.6799C81.3678 70.926 70.059 58.3704 70.813 43.6401C71.5669 28.9097 84.1225 17.601 98.8238 18.3549C113.525 19.1379 124.834 31.6934 124.08 46.3948Z" fill="url(#paint0_radial_63_1676)"/>
<path d="M111.959 52.7161C111.524 61.2991 104.188 67.9103 95.605 67.4754C87.022 67.0404 80.4108 59.7043 80.8457 51.1212C81.2807 42.5382 88.6168 35.927 97.1999 36.3619C105.783 36.7969 112.394 44.133 111.959 52.7161Z" fill="url(#paint1_radial_63_1676)"/>
<path d="M106.189 52.4261C105.899 57.8485 101.288 61.995 95.8948 61.705C90.4725 61.4151 86.3259 56.8046 86.6159 51.4112C86.9059 45.9888 91.5163 41.8423 96.9097 42.1322C102.303 42.3932 106.479 47.0037 106.189 52.4261Z" fill="black"/>
<path opacity="0.6" d="M103.057 49.4974C102.883 53.035 99.8674 55.7607 96.3008 55.5867C92.7632 55.4127 90.0375 52.3971 90.2115 48.8305C90.3855 45.2929 93.4011 42.5672 96.9677 42.7412C100.505 42.9442 103.231 45.9598 103.057 49.4974Z" fill="url(#paint2_linear_63_1676)"/>
<path d="M60.49 43.3791C62.1428 56.8336 52.6029 69.0702 39.1485 70.723C25.723 72.3758 13.4864 62.8069 11.8336 49.3524C10.1807 35.898 19.7207 23.6614 33.1751 22.0085C46.6296 20.3557 58.8372 29.9246 60.49 43.3791Z" fill="url(#paint3_radial_63_1676)"/>
<path d="M50.5443 51.0053C51.5012 58.8634 45.9338 65.9966 38.0757 66.9534C30.2176 67.9103 23.0844 62.343 22.1275 54.4849C21.1706 46.6268 26.738 39.4936 34.5961 38.5367C42.4252 37.5798 49.5874 43.1761 50.5443 51.0053Z" fill="url(#paint4_radial_63_1676)"/>
<path d="M45.267 51.6722C45.8759 56.6016 42.3673 61.0961 37.4089 61.705C32.4795 62.314 27.985 58.8054 27.376 53.8469C26.7671 48.9175 30.2757 44.423 35.2342 43.8141C40.1636 43.2051 44.6871 46.7137 45.267 51.6722Z" fill="black"/>
<path opacity="0.6" d="M41.9898 49.6424C42.3958 52.89 40.076 55.8187 36.8574 56.2247C33.6098 56.6306 30.6811 54.3109 30.2751 51.0922C29.8692 47.8446 32.1889 44.9159 35.4076 44.51C38.6552 44.133 41.6129 46.4238 41.9898 49.6424Z" fill="url(#paint5_linear_63_1676)"/>
<path opacity="0.6" d="M41.9898 49.6424C42.3958 52.89 40.076 55.8187 36.8574 56.2247C33.6098 56.6306 30.6811 54.3109 30.2751 51.0922C29.8692 47.8446 32.1889 44.9159 35.4076 44.51C38.6552 44.133 41.6129 46.4238 41.9898 49.6424Z" fill="black" fill-opacity="0.7"/>
<path opacity="0.6" d="M102.999 48.3665C103.434 51.8751 100.941 55.0938 97.4031 55.5287C93.8945 55.9637 90.6758 53.47 90.2409 49.9324C89.8059 46.4238 92.2997 43.2051 95.8373 42.7702C99.3749 42.3642 102.565 44.8579 102.999 48.3665Z" fill="black" fill-opacity="0.7"/>
<defs>
<radialGradient id="paint0_radial_63_1676" cx="0" cy="0" r="1" gradientUnits="userSpaceOnUse" gradientTransform="translate(96.9969 43.7809) rotate(2.96912) scale(36.7012 30.6083)">
<stop offset="0.3258" stop-color="white"/>
<stop offset="0.4351" stop-color="#F7FCF9"/>
<stop offset="0.8743" stop-color="#DCF3E2"/>
</radialGradient>
<radialGradient id="paint1_radial_63_1676" cx="0" cy="0" r="1" gradientUnits="userSpaceOnUse" gradientTransform="translate(96.6745 46.5211) rotate(2.96912) scale(20.7372 20.7372)">
<stop stop-color="#40B9C7"/>
<stop offset="0.1701" stop-color="#40B5C3"/>
<stop offset="0.352" stop-color="#3FA8B8"/>
<stop offset="0.5396" stop-color="#3E92A5"/>
<stop offset="0.7309" stop-color="#3C748B"/>
<stop offset="0.9233" stop-color="#3A4E69"/>
<stop offset="1" stop-color="#393D5A"/>
</radialGradient>
<linearGradient id="paint2_linear_63_1676" x1="97.5047" y1="32.3707" x2="96.3072" y2="55.4583" gradientUnits="userSpaceOnUse">
<stop offset="0.0507944" stop-color="white"/>
<stop offset="0.3965" stop-color="#979797"/>
<stop offset="0.6913" stop-color="#464646"/>
<stop offset="0.8984" stop-color="#131313"/>
<stop offset="1"/>
</linearGradient>
<radialGradient id="paint3_radial_63_1676" cx="0" cy="0" r="1" gradientUnits="userSpaceOnUse" gradientTransform="translate(35.5867 45.3023) rotate(-6.99568) scale(33.7199 28.1215)">
<stop offset="0.3258" stop-color="white"/>
<stop offset="0.4351" stop-color="#F7FCF9"/>
<stop offset="0.8743" stop-color="#DCF3E2"/>
</radialGradient>
<radialGradient id="paint4_radial_63_1676" cx="0" cy="0" r="1" gradientUnits="userSpaceOnUse" gradientTransform="translate(35.7306 47.8331) rotate(-6.99568) scale(19.0524 19.0524)">
<stop stop-color="#40B9C7"/>
<stop offset="0.1701" stop-color="#40B5C3"/>
<stop offset="0.352" stop-color="#3FA8B8"/>
<stop offset="0.5396" stop-color="#3E92A5"/>
<stop offset="0.7309" stop-color="#3C748B"/>
<stop offset="0.9233" stop-color="#3A4E69"/>
<stop offset="1" stop-color="#393D5A"/>
</radialGradient>
<linearGradient id="paint5_linear_63_1676" x1="34.263" y1="35.0442" x2="36.85" y2="56.1265" gradientUnits="userSpaceOnUse">
<stop offset="0.0507944" stop-color="white"/>
<stop offset="0.3965" stop-color="#979797"/>
<stop offset="0.6913" stop-color="#464646"/>
<stop offset="0.8984" stop-color="#131313"/>
<stop offset="1"/>
</linearGradient>
</defs>
</svg>
