<svg width="20" height="20" viewBox="0 0 20 20" fill="none" xmlns="../../external.html?link=http://www.w3.org/2000/svg">
<path fill-rule="evenodd" clip-rule="evenodd" d="M10 1.04166C6.8975 1.04166 4.375 3.58666 4.375 6.72582C4.375 7.78916 4.84333 9.10832 5.525 10.4242C7.02583 13.3217 9.52583 16.24 9.52583 16.24C9.64417 16.3783 9.8175 16.4583 10 16.4583C10.1825 16.4583 10.3558 16.3783 10.4742 16.24C10.4742 16.24 12.9742 13.3217 14.475 10.4242C15.1567 9.10832 15.625 7.78916 15.625 6.72582C15.625 3.58666 13.1025 1.04166 10 1.04166ZM10 4.37499C8.735 4.37499 7.70833 5.40166 7.70833 6.66666C7.70833 7.93166 8.735 8.95832 10 8.95832C11.265 8.95832 12.2917 7.93166 12.2917 6.66666C12.2917 5.40166 11.265 4.37499 10 4.37499Z" fill="#FF24BD"/>
<path fill-rule="evenodd" clip-rule="evenodd" d="M13.9868 14.4808C14.6643 14.6842 15.2227 14.9358 15.6085 15.2308C15.8585 15.4208 16.0418 15.6067 16.0418 15.8333C16.0418 15.9667 15.966 16.0875 15.8593 16.2083C15.6827 16.4075 15.4202 16.5867 15.0952 16.7533C13.9468 17.3408 12.0902 17.7083 10.0002 17.7083C7.91016 17.7083 6.0535 17.3408 4.90516 16.7533C4.58016 16.5867 4.31766 16.4075 4.141 16.2083C4.03433 16.0875 3.9585 15.9667 3.9585 15.8333C3.9585 15.6067 4.14183 15.4208 4.39183 15.2308C4.77766 14.9358 5.336 14.6842 6.0135 14.4808C6.3435 14.3817 6.531 14.0325 6.43183 13.7025C6.33266 13.3717 5.9835 13.1842 5.6535 13.2833C4.62183 13.5942 3.82016 14.02 3.3385 14.4908C2.91516 14.9033 2.7085 15.365 2.7085 15.8333C2.7085 16.4183 3.03933 17.0017 3.71183 17.4883C4.89183 18.3417 7.26183 18.9583 10.0002 18.9583C12.7385 18.9583 15.1085 18.3417 16.2885 17.4883C16.961 17.0017 17.2918 16.4183 17.2918 15.8333C17.2918 15.365 17.0852 14.9033 16.6618 14.4908C16.1802 14.02 15.3785 13.5942 14.3468 13.2833C14.0168 13.1842 13.6677 13.3717 13.5685 13.7025C13.4693 14.0325 13.6568 14.3817 13.9868 14.4808Z" fill="#FF24BD"/>
</svg>
