<?xml version="1.0" encoding="utf-8"?>
<!-- Generator: Adobe Illustrator 16.0.3, SVG Export Plug-In . SVG Version: 6.00 Build 0)  -->
<!DOCTYPE svg PUBLIC "-//W3C//DTD SVG 1.1//EN" "http://www.w3.org/Graphics/SVG/1.1/DTD/svg11.dtd">
<svg version="1.1" id="Capa_1" xmlns="http://www.w3.org/2000/svg" xmlns:xlink="http://www.w3.org/1999/xlink" x="0px" y="0px"
	 width="151px" height="150px" viewBox="0 0 151 150" enable-background="new 0 0 151 150" xml:space="preserve">
<g>
	<path fill="#38454F" d="M268.741-110.721v69.424h55.167h35.107h55.167v-69.424c0-4.773-4.514-8.678-10.03-8.678H278.771
		C273.255-119.398,268.741-115.494,268.741-110.721"/>
	<g>
		<path fill="#546A79" d="M306.355-108.551h-27.584c-1.504,0-2.508-0.868-2.508-2.17s1.004-2.169,2.508-2.169h27.584
			c1.505,0,2.508,0.867,2.508,2.169S307.859-108.551,306.355-108.551z"/>
		<path fill="#546A79" d="M298.832-99.873h-20.061c-1.504,0-2.508-0.868-2.508-2.169s1.004-2.169,2.508-2.169h20.061
			c1.506,0,2.508,0.868,2.508,2.169S300.337-99.873,298.832-99.873z"/>
	</g>
	<polygon fill="#F29C1F" points="341.462,-110.721 359.016,-102.042 359.016,-84.687 341.462,-76.009 323.908,-84.687 
		323.908,-102.042 	"/>
	<path fill="#CC801B" d="M333.939-86.856c-1.505,0-2.508-0.868-2.508-2.169v-8.027c0-0.868,0.502-1.735,1.504-1.952l7.523-2.821
		c1.253-0.434,2.759,0,3.26,1.085c0.502,1.085,0,2.386-1.254,2.82l-6.019,2.386v6.509C336.446-87.724,335.443-86.856,333.939-86.856
		z"/>
	<polygon fill="#3B97D3" points="323.908,-84.687 341.462,-76.009 341.462,-58.652 323.908,-49.975 306.355,-58.652 
		306.355,-76.009 	"/>
	<path fill="#2D769E" d="M316.386-60.822c-1.505,0-2.507-0.868-2.507-2.169v-8.027c0-0.868,0.501-1.736,1.504-1.953l7.523-2.82
		c1.253-0.434,2.758,0,3.259,1.085c0.502,1.084,0,2.386-1.253,2.82l-6.02,2.386v6.509C318.893-61.69,317.891-60.822,316.386-60.822z
		"/>
	<polygon fill="#71C285" points="359.016,-84.687 376.568,-76.009 376.568,-58.652 359.016,-49.975 341.462,-58.652 
		341.462,-76.009 	"/>
	<path fill="#599967" d="M351.492-60.822c-1.505,0-2.507-0.868-2.507-2.169v-8.027c0-0.868,0.501-1.736,1.504-1.953l7.523-2.82
		c1.253-0.434,2.758,0,3.26,1.085c0.501,1.084,0,2.386-1.254,2.82L354-69.5v6.509C354-61.69,352.997-60.822,351.492-60.822z"/>
	<path fill="#ECF0F1" d="M404.152-17.433H278.771c-5.517,0-10.03-3.905-10.03-8.678v-15.187h145.441v15.187
		C414.183-21.338,409.669-17.433,404.152-17.433"/>
	<g>
		<path fill="#BDC3C7" d="M347.73-29.364c0-3.037-2.758-5.424-6.269-5.424s-6.269,2.387-6.269,5.424s2.758,5.424,6.269,5.424
			S347.73-26.327,347.73-29.364"/>
		<path fill="#BDC3C7" d="M354-2.246v-15.187h-25.076v15.187c0,4.773-14.544,8.678-20.061,8.678h65.197
			C368.544,6.432,354,2.527,354-2.246"/>
	</g>
	<path fill="#ECF0F1" d="M371.554,8.602h-57.675c-2.007,0-3.762-1.519-3.762-3.254s1.755-3.255,3.762-3.255h57.674
		c2.006,0,3.762,1.52,3.762,3.255S373.56,8.602,371.554,8.602"/>
</g>
<g>
	<g>
		<g>
			<path fill="#FFFFFF" d="M186.75,53.583c-1.002,0-1.816-0.812-1.816-1.816V44.5c0-1.005,0.814-1.817,1.816-1.817
				c1.003,0,1.816,0.812,1.816,1.817v7.267C188.566,52.771,187.753,53.583,186.75,53.583 M186.75,69.933
				c-1.002,0-1.816-0.812-1.816-1.816v-5.45c0-1.004,0.814-1.816,1.816-1.816c1.003,0,1.816,0.812,1.816,1.816v5.45
				C188.566,69.122,187.753,69.933,186.75,69.933 M186.75,88.101c-1.002,0-1.816-0.813-1.816-1.816v-10.9
				c0-1.004,0.814-1.817,1.816-1.817c1.003,0,1.816,0.813,1.816,1.817v10.9C188.566,87.288,187.753,88.101,186.75,88.101"/>
			<path fill="#FFFFFF" d="M200.591,102.095c-0.26,0-0.523-0.055-0.771-0.174l-6.575-3.094c-0.908-0.426-1.299-1.51-0.869-2.418
				c0.426-0.91,1.509-1.297,2.416-0.869l6.574,3.094c0.908,0.426,1.299,1.51,0.87,2.418
				C201.927,101.71,201.272,102.095,200.591,102.095 M213.742,108.282c-0.26,0-0.523-0.055-0.774-0.172l-4.93-2.32
				c-0.907-0.428-1.298-1.51-0.87-2.418c0.427-0.908,1.511-1.295,2.417-0.871l4.931,2.32c0.908,0.426,1.297,1.51,0.87,2.418
				C215.077,107.897,214.423,108.282,213.742,108.282 M224.9,113.534c-0.261,0-0.523-0.055-0.772-0.174l-4.584-2.156
				c-0.908-0.428-1.299-1.508-0.87-2.418c0.427-0.908,1.512-1.295,2.416-0.871l4.584,2.158c0.908,0.428,1.297,1.51,0.869,2.418
				C226.234,113.149,225.581,113.534,224.9,113.534"/>
			<path fill="#FFFFFF" d="M277.584,53.583c-1.005,0-1.816-0.812-1.816-1.816V44.5c0-1.005,0.812-1.817,1.816-1.817
				s1.816,0.812,1.816,1.817v7.267C279.4,52.771,278.589,53.583,277.584,53.583 M277.584,64.483c-1.005,0-1.816-0.812-1.816-1.816
				v-5.45c0-1.005,0.812-1.816,1.816-1.816s1.816,0.812,1.816,1.816v5.45C279.4,63.671,278.589,64.483,277.584,64.483 M277.584,77.2
				c-1.005,0-1.816-0.813-1.816-1.816v-5.451c0-1.005,0.812-1.816,1.816-1.816s1.816,0.812,1.816,1.816v5.451
				C279.4,76.388,278.589,77.2,277.584,77.2 M277.584,88.101c-1.005,0-1.816-0.813-1.816-1.816v-5.451
				c0-1.004,0.812-1.816,1.816-1.816s1.816,0.813,1.816,1.816v5.451C279.4,87.288,278.589,88.101,277.584,88.101"/>
			<path fill="#FFFFFF" d="M263.744,102.095c-0.684,0-1.335-0.385-1.646-1.043c-0.426-0.908-0.036-1.992,0.87-2.418l6.575-3.094
				c0.91-0.428,1.991-0.037,2.418,0.869c0.427,0.908,0.038,1.992-0.87,2.418l-6.574,3.094
				C264.265,102.04,264.004,102.095,263.744,102.095 M250.594,108.282c-0.682,0-1.336-0.385-1.646-1.043
				c-0.427-0.908-0.036-1.992,0.87-2.418l4.933-2.32c0.906-0.426,1.989-0.037,2.416,0.871c0.429,0.908,0.038,1.99-0.87,2.418
				l-4.931,2.32C251.114,108.228,250.852,108.282,250.594,108.282 M239.436,113.534c-0.682,0-1.336-0.385-1.646-1.043
				c-0.427-0.908-0.038-1.99,0.87-2.418l4.584-2.158c0.906-0.424,1.99-0.037,2.418,0.871c0.427,0.91,0.038,1.99-0.87,2.418
				l-4.584,2.156C239.957,113.479,239.694,113.534,239.436,113.534"/>
			<path fill="#FFFFFF" d="M243.438,22.533c-0.23,0-0.465-0.043-0.69-0.136l-4.006-1.649c-0.928-0.384-1.369-1.444-0.987-2.373
				c0.381-0.927,1.445-1.367,2.37-0.989l4.006,1.65c0.929,0.383,1.37,1.444,0.988,2.373C244.83,22.11,244.153,22.533,243.438,22.533
				 M255.198,27.375c-0.231,0-0.466-0.044-0.692-0.136l-5.039-2.077c-0.927-0.383-1.37-1.444-0.988-2.371
				c0.383-0.926,1.445-1.364,2.372-0.988l5.04,2.075c0.928,0.383,1.369,1.444,0.988,2.373
				C256.59,26.951,255.912,27.375,255.198,27.375 M270.316,33.6c-0.23,0-0.463-0.045-0.69-0.136l-6.72-2.769
				c-0.927-0.383-1.37-1.444-0.988-2.371c0.383-0.928,1.444-1.364,2.372-0.988l6.719,2.767c0.928,0.384,1.369,1.444,0.988,2.373
				C271.708,33.175,271.03,33.6,270.316,33.6"/>
			<path fill="#FFFFFF" d="M220.896,22.533c-0.715,0-1.393-0.423-1.681-1.125c-0.382-0.929,0.061-1.989,0.988-2.373l4.006-1.65
				c0.925-0.379,1.987,0.06,2.37,0.989c0.382,0.928-0.06,1.989-0.987,2.373l-4.006,1.649
				C221.36,22.49,221.126,22.533,220.896,22.533 M209.136,27.375c-0.714,0-1.392-0.423-1.68-1.125
				c-0.382-0.928,0.06-1.989,0.987-2.373l5.04-2.075c0.925-0.378,1.989,0.06,2.373,0.988c0.381,0.927-0.063,1.987-0.989,2.371
				l-5.038,2.077C209.602,27.331,209.367,27.375,209.136,27.375 M194.018,33.6c-0.714,0-1.392-0.425-1.68-1.125
				c-0.382-0.928,0.059-1.989,0.988-2.373l6.718-2.767c0.928-0.38,1.989,0.06,2.372,0.988c0.382,0.927-0.06,1.988-0.988,2.371
				l-6.72,2.769C194.482,33.555,194.248,33.6,194.018,33.6"/>
		</g>
		<polygon fill="#005493" points="232.167,84.466 214,75.384 214,55.4 232.167,62.667 		"/>
		<polygon fill="#0574C6" points="232.167,84.466 250.334,75.384 250.334,55.4 232.167,62.667 		"/>
		<polygon fill="#007CE6" points="232.167,62.667 214,55.4 232.167,46.316 250.334,55.4 		"/>
		<g>
			<path fill="#FFFFFF" d="M204.915,51.767c-0.345,0-0.696-0.1-1.006-0.306l-10.9-7.267c-0.835-0.558-1.06-1.684-0.504-2.52
				c0.559-0.835,1.683-1.061,2.521-0.503l10.899,7.267c0.834,0.558,1.06,1.684,0.504,2.52
				C206.078,51.483,205.502,51.767,204.915,51.767"/>
			<path fill="#FFFFFF" d="M259.419,51.767c-0.587,0-1.163-0.284-1.513-0.809c-0.557-0.835-0.331-1.962,0.503-2.52l10.9-7.267
				c0.837-0.558,1.964-0.332,2.52,0.503c0.558,0.836,0.332,1.962-0.504,2.52l-10.899,7.267
				C260.115,51.667,259.764,51.767,259.419,51.767"/>
			<path fill="#FFFFFF" d="M270.315,89.917c-0.345,0-0.696-0.1-1.007-0.307l-10.899-7.266c-0.834-0.559-1.06-1.684-0.504-2.52
				s1.684-1.061,2.52-0.504l10.9,7.268c0.836,0.557,1.061,1.684,0.504,2.52C271.479,89.634,270.901,89.917,270.315,89.917"/>
			<path fill="#FFFFFF" d="M194.02,89.917c-0.588,0-1.163-0.283-1.514-0.809c-0.557-0.836-0.33-1.963,0.503-2.52l10.9-7.268
				c0.834-0.557,1.962-0.332,2.52,0.504c0.556,0.836,0.33,1.963-0.503,2.52l-10.9,7.268
				C194.715,89.817,194.363,89.917,194.02,89.917"/>
		</g>
		<g>
			<path fill="#40A1BF" d="M186.75,46.316c-5.008,0-9.083-4.075-9.083-9.083c0-5.008,4.075-9.083,9.083-9.083
				c5.009,0,9.084,4.075,9.084,9.083C195.834,42.242,191.759,46.316,186.75,46.316"/>
			<path fill="#40A1BF" d="M232.167,29.966c-5.009,0-9.083-4.075-9.083-9.083s4.074-9.083,9.083-9.083s9.083,4.075,9.083,9.083
				S237.176,29.966,232.167,29.966"/>
			<path fill="#40A1BF" d="M232.167,120.8c-5.009,0-9.083-4.074-9.083-9.084c0-5.008,4.074-9.082,9.083-9.082
				s9.083,4.074,9.083,9.082C241.25,116.726,237.176,120.8,232.167,120.8"/>
			<path fill="#40A1BF" d="M277.584,46.316c-5.009,0-9.084-4.075-9.084-9.083s4.075-9.083,9.084-9.083
				c5.008,0,9.083,4.075,9.083,9.083C286.667,42.242,282.592,46.316,277.584,46.316"/>
			<path fill="#40A1BF" d="M277.584,102.634c-5.009,0-9.084-4.074-9.084-9.084c0-5.008,4.075-9.084,9.084-9.084
				c5.008,0,9.083,4.076,9.083,9.084S282.592,102.634,277.584,102.634"/>
			<path fill="#40A1BF" d="M186.75,102.634c-5.008,0-9.083-4.076-9.083-9.084s4.075-9.084,9.083-9.084
				c5.009,0,9.084,4.076,9.084,9.084S191.759,102.634,186.75,102.634"/>
		</g>
	</g>
</g>
<g>
	<polygon fill="#FFFFFF" points="497.659,284.449 512.089,270.294 514.356,272.518 499.928,286.673 	"/>
	<polygon fill="#FFFFFF" points="476.82,272.518 479.088,270.294 493.515,284.449 491.248,286.673 	"/>
	<path fill="#E87136" d="M463.527,328.026c0,1.738,1.434,3.146,3.205,3.146h57.714c1.771,0,3.205-1.408,3.205-3.146v-14.155h-64.124
		V328.026z M495.589,317.018c2.657,0,4.81,2.112,4.81,4.717c0,2.607-2.152,4.72-4.81,4.72c-2.656,0-4.81-2.112-4.81-4.72
		C490.779,319.13,492.933,317.018,495.589,317.018z"/>
	<path fill="#E87136" d="M455.512,208.335v11.169c0,0.693,0.464,1.307,1.143,1.506l14.889,4.383v16.13h-4.811
		c-1.771,0-3.205,1.407-3.205,3.146v6.291h64.124v-6.291c0-1.738-1.434-3.146-3.205-3.146h-4.81v-16.13l14.888-4.383
		c0.678-0.199,1.143-0.813,1.143-1.506v-11.169c3.659-0.729,6.413-3.9,6.413-7.706c0-4.342-3.59-7.863-8.015-7.863
		c-4.427,0-8.017,3.521-8.017,7.863c0,3.806,2.754,6.978,6.412,7.706v9.998l-14.888,4.382c-0.678,0.2-1.144,0.813-1.144,1.506
		v17.302h-19.237v-39.479c3.658-0.728,6.413-3.9,6.413-7.705c0-4.342-3.591-7.863-8.017-7.863c-4.427,0-8.016,3.521-8.016,7.863
		c0,3.805,2.755,6.978,6.412,7.705v39.479h-19.237v-17.302c0-0.693-0.465-1.306-1.143-1.506l-14.889-4.382v-9.998
		c3.658-0.729,6.412-3.9,6.412-7.706c0-4.342-3.589-7.863-8.016-7.863c-4.426,0-8.016,3.521-8.016,7.863
		C449.098,204.435,451.853,207.606,455.512,208.335z M530.857,200.629c0-1.737,1.437-3.145,3.208-3.145
		c1.77,0,3.205,1.407,3.205,3.145c0,1.738-1.436,3.146-3.205,3.146C532.294,203.775,530.857,202.367,530.857,200.629z
		 M492.383,194.338c0-1.738,1.435-3.145,3.206-3.145s3.207,1.406,3.207,3.145s-1.436,3.146-3.207,3.146
		S492.383,196.076,492.383,194.338z M490.779,244.668h9.619v3.146h-9.619V244.668z M457.113,197.484
		c1.771,0,3.207,1.407,3.207,3.145c0,1.738-1.436,3.146-3.207,3.146c-1.771,0-3.205-1.408-3.205-3.146
		C453.908,198.892,455.343,197.484,457.113,197.484z"/>
	<path fill="#007CE6" d="M431.464,246.241c3.878,0,7.112-2.702,7.854-6.292h6.574v40.893c0,0.868,0.717,1.573,1.603,1.573h16.032
		v11.01h-9.619c-0.887,0-1.604,0.705-1.604,1.573v18.873h-9.781c-0.742-3.588-3.975-6.291-7.854-6.291
		c-4.426,0-8.016,3.521-8.016,7.864c0,4.342,3.59,7.865,8.016,7.865c3.879,0,7.111-2.703,7.854-6.292h11.385
		c0.886,0,1.604-0.705,1.604-1.573v-18.873h8.016v14.155h64.124v-14.155h8.016v18.873c0,0.868,0.718,1.573,1.604,1.573h11.383
		c0.744,3.589,3.978,6.292,7.855,6.292c4.427,0,8.015-3.523,8.015-7.865c0-4.343-3.588-7.864-8.015-7.864
		c-3.878,0-7.111,2.703-7.855,6.291h-9.78v-18.873c0-0.868-0.717-1.573-1.603-1.573h-9.619v-11.01h16.031
		c0.888,0,1.604-0.705,1.604-1.573v-40.893h6.574c0.742,3.59,3.976,6.292,7.854,6.292c4.427,0,8.016-3.522,8.016-7.864
		s-3.589-7.864-8.016-7.864c-3.878,0-7.111,2.702-7.854,6.292h-8.178c-0.887,0-1.603,0.704-1.603,1.572v40.893h-14.429v-25.165
		h-64.124v25.165h-14.43v-40.893c0-0.868-0.716-1.572-1.603-1.572h-8.177c-0.742-3.59-3.977-6.292-7.854-6.292
		c-4.427,0-8.016,3.522-8.016,7.864S427.037,246.241,431.464,246.241z M434.67,318.59c-1.771,0-3.206-1.408-3.206-3.146
		s1.435-3.146,3.206-3.146s3.207,1.408,3.207,3.146S436.441,318.59,434.67,318.59z M556.509,312.299
		c1.771,0,3.205,1.408,3.205,3.146s-1.434,3.146-3.205,3.146s-3.207-1.408-3.207-3.146S554.737,312.299,556.509,312.299z
		 M559.714,235.23c1.771,0,3.206,1.408,3.206,3.146s-1.435,3.146-3.206,3.146s-3.205-1.407-3.205-3.146
		S557.942,235.23,559.714,235.23z M473.145,266.687h2.407c9.536,0,17.517,6.538,19.542,15.291c0.12,0.523,0.872,0.523,0.993,0
		c2.021-8.753,10.004-15.291,19.539-15.291h2.406v2.361c0,10.857-8.971,19.659-20.037,19.659h-0.803v15.729h-3.207v-15.729h-0.803
		c-11.066,0-20.038-8.802-20.038-19.659V266.687z M431.464,235.23c1.771,0,3.206,1.408,3.206,3.146s-1.435,3.146-3.206,3.146
		s-3.206-1.407-3.206-3.146S429.692,235.23,431.464,235.23z"/>
</g>
<g>
	<g id="Expanded">
		<path d="M-176.712,198.852l-42.741-22.872c-1.253-0.671-2.787-0.671-4.04,0l-113.943,60.973c-1.266,0.679-2.052,1.939-2.052,3.308
			v152.432c0,2.104,1.823,3.811,4.07,3.811h227.886c2.25,0,4.069-1.707,4.069-3.811V240.26c0-1.368-0.781-2.629-2.047-3.308
			l-30.508-16.325v-41.34c0-2.104-1.819-3.811-4.07-3.811h-32.555c-2.246,0-4.069,1.707-4.069,3.811V198.852z M-168.573,203.207
			l8.293,4.437c1.95,1.044,2.63,3.372,1.515,5.202c-1.115,1.824-3.602,2.461-5.551,1.417l-57.159-30.585l-109.873,58.793v146.41
			h219.747v-146.41l-30.504-16.322c-1.266-0.678-2.052-1.943-2.052-3.308v-39.743h-24.416V203.207L-168.573,203.207z
			 M-164.129,228.359l-55.157-29.516c-1.249-0.67-2.788-0.67-4.037,0l-93.596,50.086c-1.27,0.678-2.051,1.939-2.051,3.308v125.211
			c0,2.104,1.823,3.811,4.069,3.811h187.192c2.246,0,4.069-1.707,4.069-3.811V252.237c0-1.368-0.781-2.63-2.052-3.308l-26.739-14.31
			c-1.949-1.044-4.44-0.411-5.555,1.417c-1.111,1.826-0.436,4.154,1.514,5.198l24.693,13.212v119.189h-179.054V254.447
			l89.526-47.905l53.135,28.433c1.953,1.044,4.439,0.407,5.555-1.418C-161.501,231.731-162.181,229.398-164.129,228.359z
			 M-225.472,248.277c-3.386-1.447-5.737-4.648-5.737-8.356c0-5.072,4.395-9.188,9.807-9.188c5.417,0,9.812,4.116,9.812,9.188
			c0,3.708-2.356,6.909-5.742,8.356v79.657c2.865-0.323,5.624-0.999,8.237-1.966v-34.983c0-0.614,0.158-1.216,0.459-1.761
			l20.222-36.446c-1.567-1.627-2.52-3.78-2.52-6.14c0-5.072,4.395-9.188,9.812-9.188c5.412,0,9.807,4.115,9.807,9.188
			c0,5.008-4.293,9.089-9.615,9.185l-20.025,36.092v29.771c9.106-6.402,15.044-16.841,15.044-28.074
			c0-2.104,1.823-3.812,4.069-3.812h17.511v-13.304c-3.386-1.447-5.742-4.645-5.742-8.356c0-5.072,4.399-9.188,9.812-9.188
			s9.812,4.116,9.812,9.188c0,3.712-2.356,6.909-5.742,8.356V289.8h6.642c2.246,0,4.069,1.708,4.069,3.812
			c0,3.071-0.22,7.617-0.651,10.67c-0.236,1.677-1.62,3.006-3.406,3.27c0,0-8.391,1.23-8.391,1.227
			c-0.33,1.342-0.712,2.672-1.14,3.99l6.609,4.992c1.407,1.063,1.896,2.865,1.204,4.424c-2.535,5.735-5.86,11.132-9.897,16.055
			c-1.099,1.342-3.007,1.842-4.691,1.235l-7.923-2.866c-1.006,1.007-2.043,1.982-3.117,2.92l3.056,7.42
			c0.651,1.577,0.114,3.368-1.318,4.396c-5.258,3.777-11.021,6.895-17.14,9.269c-1.669,0.644-3.59,0.187-4.726-1.128
			c0,0-5.335-6.193-5.331-6.193c-1.407,0.404-2.828,0.759-4.26,1.071l-1.315,7.858c-0.276,1.669-1.696,2.968-3.486,3.189
			c-6.568,0.808-13.226,0.808-19.794,0c-1.791-0.222-3.211-1.521-3.487-3.189l-1.314-7.858c-1.433-0.313-2.853-0.667-4.257-1.071
			l-5.335,6.193c-1.135,1.314-3.056,1.771-4.725,1.128c-6.12-2.374-11.883-5.491-17.141-9.269c-1.433-1.028-1.97-2.819-1.318-4.396
			c0,0,3.057-7.42,3.057-7.416c-1.074-0.941-2.112-1.917-3.117-2.924l-7.923,2.866c-1.686,0.606-3.594,0.106-4.692-1.235
			c-4.037-4.923-7.361-10.319-9.896-16.055c-0.692-1.559-0.204-3.36,1.204-4.424l6.609-4.992c-0.428-1.314-0.811-2.648-1.14-3.986
			l-8.392-1.23c-1.786-0.264-3.17-1.593-3.406-3.27c-0.432-3.053-0.65-7.599-0.65-10.67c0-2.104,1.822-3.812,4.068-3.812h10.711
			v-13.304c-3.386-1.447-5.742-4.645-5.742-8.356c0-5.072,4.399-9.188,9.813-9.188c5.412,0,9.811,4.116,9.811,9.188
			c0,3.712-2.355,6.909-5.741,8.356V289.8h13.44c2.242,0,4.065,1.708,4.065,3.812h0.004c0,11.233,5.938,21.672,15.045,28.074v-56
			l-6.723-6.295c-0.969,0.301-2.011,0.465-3.089,0.465c-5.412,0-9.808-4.116-9.808-9.185c0-5.072,4.396-9.188,9.808-9.188
			c5.417,0,9.812,4.115,9.812,9.188c0,1.25-0.269,2.442-0.753,3.532l7.699,7.211c0.766,0.712,1.192,1.684,1.192,2.693v61.861
			c2.556,0.948,5.25,1.611,8.041,1.943V248.277L-225.472,248.277z M-264.647,297.422h-24.245c0.044,1.018,0.109,2.058,0.187,3.053
			l8.065,1.185c1.705,0.248,3.057,1.479,3.37,3.067c0.545,2.748,1.318,5.449,2.312,8.079c0.578,1.524,0.064,3.224-1.278,4.237
			l-6.377,4.816c1.648,3.305,3.598,6.464,5.827,9.451l7.643-2.759c1.612-0.583,3.438-0.148,4.558,1.079
			c1.938,2.122,4.049,4.1,6.315,5.914c1.314,1.052,1.779,2.763,1.156,4.271l-2.95,7.153c3.19,2.088,6.567,3.913,10.092,5.456
			l5.144-5.967c1.083-1.258,2.897-1.742,4.525-1.201c2.813,0.934,5.697,1.658,8.627,2.165c1.697,0.294,3.012,1.559,3.28,3.159
			l1.266,7.576c3.878,0.316,7.776,0.316,11.655,0l1.265-7.576c0.269-1.601,1.584-2.865,3.28-3.159
			c2.93-0.507,5.815-1.231,8.627-2.165c1.628-0.541,3.443-0.057,4.525,1.201l5.144,5.967c3.524-1.543,6.901-3.368,10.093-5.456
			l-2.951-7.153c-0.622-1.509-0.158-3.22,1.156-4.271c2.267-1.814,4.379-3.792,6.315-5.914c1.119-1.228,2.946-1.662,4.558-1.079
			l7.643,2.759c2.23-2.987,4.179-6.146,5.827-9.451l-6.377-4.816c-1.343-1.014-1.855-2.713-1.277-4.237
			c0.992-2.63,1.766-5.331,2.312-8.079c0.313-1.589,1.664-2.819,3.369-3.067l8.065-1.185c0.078-0.995,0.143-2.035,0.188-3.053
			h-24.246c-1.433,14.53-10.95,27.453-24.253,33.938c-0.603,0.546-1.384,0.915-2.254,1.025c-5.182,2.176-10.87,3.396-16.836,3.396
			s-11.654-1.22-16.835-3.396c-0.871-0.11-1.651-0.479-2.255-1.025C-253.696,324.875-263.215,311.952-264.647,297.422
			L-264.647,297.422z M-160.264,266.573c0.924,0,1.673,0.701,1.673,1.566c0,0.861-0.749,1.563-1.673,1.563s-1.673-0.701-1.673-1.563
			C-161.937,267.274-161.188,266.573-160.264,266.573z M-278.275,266.573c0.924,0,1.672,0.701,1.672,1.566
			c0,0.861-0.748,1.563-1.672,1.563c-0.925,0-1.674-0.701-1.674-1.563C-279.949,267.274-279.2,266.573-278.275,266.573z
			 M-251.463,249.104c0.924,0,1.673,0.701,1.673,1.566c0,0.861-0.749,1.563-1.673,1.563c-0.92,0-1.669-0.701-1.669-1.563
			C-253.132,249.806-252.383,249.104-251.463,249.104z M-181.123,245.072c0.92,0,1.668,0.701,1.668,1.566
			c0,0.861-0.748,1.563-1.668,1.563c-0.924,0-1.673-0.701-1.673-1.563C-182.796,245.773-182.047,245.072-181.123,245.072z
			 M-221.402,238.354c0.924,0,1.673,0.701,1.673,1.566c0,0.86-0.749,1.563-1.673,1.563c-0.919,0-1.668-0.702-1.668-1.563
			C-223.07,239.056-222.321,238.354-221.402,238.354z"/>
	</g>
</g>
<g>
	<path fill="#FFFFFF" d="M27.247,68.36c0,25.095,22.61,45.439,50.5,45.439c27.893,0,50.501-20.344,50.501-45.439
		c0-25.095-22.608-45.438-50.501-45.438C49.856,22.922,27.247,43.265,27.247,68.36L27.247,68.36z"/>
	<path fill="#E6E6E6" d="M102.81,141.201l-10.929-21.886c-4.559,1.021-9.296,1.539-14.114,1.539c-5.573,0-11.027-0.698-16.242-2.06
		l-11.227,22.514L102.81,141.201L102.81,141.201z"/>
	<path fill="#FFFFFF" d="M136.211,68.271c0-14.042-6.071-27.241-17.119-37.164c-11.048-9.923-25.697-15.403-41.305-15.403
		c-15.605,0-30.276,5.463-41.304,15.403c-11.027,9.94-17.119,23.122-17.119,37.164s6.072,27.242,17.119,37.164
		c5.156,4.638,11.108,8.311,17.577,10.889l-13.157,26.384c-0.637,1.271-0.518,2.738,0.338,3.904
		c0.836,1.163,2.269,1.861,3.822,1.861h0.02l63.5-0.144c0.735,0,1.434-0.196,2.031-0.502c1.948-0.823,2.824-2.919,1.93-4.708
		l-12.999-26.042c7.246-2.615,13.894-6.538,19.588-11.661C130.14,95.513,136.211,82.313,136.211,68.271L136.211,68.271z
		 M102.81,141.201l-52.512,0.107l11.227-22.514c5.215,1.344,10.669,2.06,16.242,2.06c4.818,0,9.556-0.519,14.114-1.539
		L102.81,141.201L102.81,141.201z M77.787,113.691c-27.828,0-50.46-20.382-50.46-45.421c0-25.038,22.632-45.403,50.46-45.403
		c27.829,0,50.461,20.365,50.461,45.403C128.248,93.31,105.616,113.691,77.787,113.691z M32.264,23.119
		c0.458,0,0.935-0.143,1.313-0.448c0.975-0.752,1.971-1.504,2.986-2.221c0.875-0.609,1.015-1.738,0.358-2.508
		c-0.677-0.788-1.932-0.914-2.787-0.322c-1.076,0.752-2.13,1.541-3.165,2.346c-0.836,0.645-0.916,1.791-0.199,2.525
		C31.148,22.922,31.706,23.119,32.264,23.119z M22.728,30.444c0.378,0.269,0.816,0.394,1.255,0.394c0.577,0,1.154-0.233,1.552-0.663
		c0.816-0.896,1.652-1.791,2.527-2.633c0.737-0.734,0.677-1.862-0.139-2.525c-0.816-0.663-2.069-0.609-2.806,0.125
		c-0.916,0.914-1.812,1.845-2.667,2.794C21.753,28.707,21.873,29.835,22.728,30.444z M52.566,12.032
		c0.239,0,0.478-0.036,0.717-0.126c1.194-0.412,2.409-0.806,3.643-1.164c1.054-0.305,1.612-1.326,1.274-2.257
		c-0.338-0.932-1.473-1.451-2.508-1.146c-1.294,0.376-2.588,0.787-3.843,1.236c-1.015,0.358-1.532,1.397-1.134,2.328
		C51.015,11.603,51.771,12.032,52.566,12.032L52.566,12.032z M75.916,7.788C76.532,7.77,77.17,7.77,77.787,7.77
		c0.657,0,1.333,0,1.992,0.018h0.06c1.074,0,1.95-0.771,1.988-1.738c0.041-0.985-0.835-1.809-1.93-1.845
		c-0.696-0.018-1.412-0.036-2.11-0.036c-0.658,0-1.333,0-1.991,0.018c-1.095,0.037-1.97,0.86-1.931,1.845
		C73.886,7.035,74.802,7.823,75.916,7.788L75.916,7.788z M87.48,8.396c1.275,0.161,2.549,0.358,3.803,0.591
		c0.14,0.018,0.26,0.036,0.399,0.036c0.935,0,1.75-0.591,1.949-1.433c0.219-0.968-0.479-1.917-1.553-2.114
		c-1.335-0.251-2.686-0.448-4.041-0.627c-1.094-0.144-2.09,0.537-2.248,1.522C85.629,7.357,86.388,8.253,87.48,8.396z M63.993,9.005
		c0.139,0,0.259-0.018,0.398-0.036c1.254-0.232,2.548-0.43,3.802-0.591c1.095-0.143,1.852-1.038,1.692-2.023
		c-0.159-0.985-1.154-1.666-2.249-1.522c-1.354,0.178-2.708,0.376-4.041,0.626c-1.075,0.197-1.771,1.146-1.553,2.113
		C62.241,8.415,63.077,9.005,63.993,9.005L63.993,9.005z M41.878,16.796c0.358,0,0.716-0.089,1.035-0.269
		c1.095-0.591,2.229-1.182,3.364-1.719c0.976-0.465,1.334-1.54,0.815-2.417c-0.517-0.878-1.711-1.2-2.687-0.734
		c-1.194,0.573-2.389,1.182-3.563,1.827c-0.936,0.519-1.234,1.612-0.677,2.454C40.564,16.474,41.221,16.796,41.878,16.796
		L41.878,16.796z M119.132,20.54c1.016,0.716,2.01,1.451,2.985,2.22c0.378,0.305,0.836,0.449,1.315,0.449
		c0.555,0,1.093-0.215,1.492-0.609c0.716-0.752,0.636-1.88-0.18-2.525c-1.016-0.806-2.09-1.594-3.146-2.346
		c-0.876-0.609-2.111-0.465-2.787,0.305C118.098,18.82,118.256,19.931,119.132,20.54L119.132,20.54z M109.418,14.862
		c1.134,0.537,2.27,1.128,3.363,1.719c0.318,0.179,0.678,0.268,1.037,0.268c0.675,0,1.332-0.304,1.69-0.859
		c0.576-0.841,0.278-1.952-0.659-2.454c-1.152-0.645-2.347-1.253-3.561-1.827c-0.976-0.466-2.17-0.144-2.688,0.734
		C108.084,13.304,108.441,14.396,109.418,14.862z M20.399,33.363c-0.936-0.538-2.149-0.287-2.747,0.555
		c-0.737,1.039-1.434,2.096-2.09,3.171c-0.538,0.859-0.199,1.952,0.777,2.436c0.299,0.161,0.637,0.232,0.975,0.232
		c0.697,0,1.374-0.322,1.731-0.914c0.617-1.002,1.294-2.006,1.991-2.991C21.593,34.994,21.335,33.883,20.399,33.363L20.399,33.363z
		 M98.748,10.76c1.214,0.359,2.449,0.752,3.642,1.182c0.24,0.09,0.479,0.125,0.738,0.125c0.796,0,1.553-0.43,1.851-1.128
		c0.398-0.913-0.1-1.952-1.115-2.328c-1.272-0.448-2.566-0.859-3.861-1.254c-1.034-0.304-2.17,0.197-2.508,1.146
		C97.135,9.453,97.713,10.456,98.748,10.76z M130.14,30.283c0.398,0.429,0.975,0.662,1.552,0.662c0.438,0,0.876-0.125,1.256-0.394
		c0.855-0.627,0.994-1.755,0.298-2.525c-0.857-0.95-1.753-1.898-2.669-2.794c-0.734-0.735-1.991-0.789-2.806-0.126
		c-0.817,0.663-0.876,1.791-0.14,2.526C128.486,28.492,129.324,29.387,130.14,30.283L130.14,30.283z M140.092,37.178
		c-0.657-1.075-1.354-2.131-2.091-3.17c-0.598-0.842-1.812-1.092-2.746-0.555c-0.936,0.537-1.214,1.629-0.616,2.472
		c0.696,0.985,1.353,1.989,1.97,2.991c0.358,0.591,1.036,0.913,1.733,0.913c0.316,0,0.656-0.071,0.954-0.233
		C140.271,39.13,140.63,38.038,140.092,37.178L140.092,37.178z M15.483,45.471c0.06-0.125,0.12-0.269,0.179-0.394
		c0.418-0.914-0.059-1.97-1.075-2.346c-1.014-0.376-2.189,0.054-2.607,0.967c-0.079,0.161-0.159,0.34-0.219,0.501
		c-1.394,0.215-2.628,1.075-3.125,2.347C5.928,53.512,4.555,60.82,4.555,68.271c0,6.394,1.015,12.733,3.025,18.807
		c0.518,1.558,2.09,2.561,3.822,2.561c0.378,0,0.756-0.054,1.135-0.144c2.11-0.556,3.304-2.562,2.688-4.46
		c-1.792-5.408-2.707-11.05-2.707-16.764c0-6.645,1.214-13.146,3.623-19.361C16.638,47.691,16.319,46.402,15.483,45.471
		L15.483,45.471z M146.94,46.563c-0.499-1.29-1.733-2.149-3.125-2.346c-0.062-0.126-0.12-0.27-0.18-0.395
		c-0.418-0.913-1.591-1.343-2.609-0.967c-1.013,0.377-1.49,1.434-1.074,2.347c0.04,0.107,0.08,0.197,0.14,0.304
		c-0.837,0.932-1.153,2.221-0.676,3.439c2.409,6.197,3.623,12.716,3.623,19.361c0,5.714-0.917,11.356-2.709,16.765
		c-0.616,1.897,0.578,3.886,2.688,4.458c0.378,0.108,0.756,0.145,1.136,0.145c1.712,0,3.304-1.005,3.821-2.563
		C149.984,81.023,151,74.7,151,68.306C151.019,60.838,149.646,53.531,146.94,46.563L146.94,46.563z"/>
	<path fill="#06F3FF" d="M77.787,31.107c-22.792,0-41.324,16.674-41.324,37.182s18.533,37.182,41.324,37.182
		c22.793,0,41.325-16.675,41.325-37.182S100.58,31.107,77.787,31.107z M77.787,101.87c-20.582,0-37.343-15.063-37.343-33.6
		c0-18.519,16.741-33.6,37.343-33.6c20.583,0,37.344,15.063,37.344,33.6S98.37,101.87,77.787,101.87z"/>
	<path fill="#005BFF" d="M94.389,71.029l-1.254,2.328l-4.758-12.501c-0.199-0.556-0.795-0.914-1.433-0.914h-0.021
		c-0.657,0.018-1.214,0.394-1.414,0.967l-8.08,23.75l-3.624-41.875c-0.06-0.681-0.657-1.218-1.413-1.254
		c-0.697-0.107-1.434,0.43-1.574,1.093l-6.767,31.003l-3.045-4.979c-0.2-0.322-0.558-0.573-0.956-0.662
		c-0.398-0.09-0.836-0.019-1.194,0.179l-7.266,4.334l-1.293-0.304c-0.816-0.215-1.633,0.233-1.851,0.967
		c-0.22,0.716,0.258,1.469,1.075,1.666l1.931,0.465c0.438,0.107,0.855,0.036,1.214-0.179l6.489-3.869l4.259,6.949
		c0.299,0.503,0.916,0.771,1.553,0.681c0.617-0.091,1.114-0.52,1.254-1.074l5.455-24.949l3.383,39.135
		c0.061,0.644,0.617,1.164,1.334,1.254c0.06,0.017,0.119,0.017,0.158,0.017c0.657,0,1.255-0.394,1.435-0.967l9.036-26.579
		l4.479,11.678c0.198,0.519,0.717,0.877,1.334,0.912c0.596,0.019,1.174-0.286,1.432-0.769l2.39-4.515l10.29,0.466
		c0.877,0.107,1.535-0.537,1.573-1.29c0.039-0.752-0.597-1.379-1.435-1.415l-11.285-0.52C95.225,70.241,94.648,70.545,94.389,71.029
		L94.389,71.029z"/>
</g>
</svg>
