<?xml version="1.0" encoding="utf-8"?>
<!-- Generator: Adobe Illustrator 16.0.3, SVG Export Plug-In . SVG Version: 6.00 Build 0)  -->
<!DOCTYPE svg PUBLIC "-//W3C//DTD SVG 1.1//EN" "http://www.w3.org/Graphics/SVG/1.1/DTD/svg11.dtd">
<svg version="1.1" id="Capa_1" xmlns="http://www.w3.org/2000/svg" xmlns:xlink="http://www.w3.org/1999/xlink" x="0px" y="0px"
	 width="151px" height="150px" viewBox="0 0 151 150" enable-background="new 0 0 151 150" xml:space="preserve">
<g>
	<defs>
		<rect id="SVGID_1_" x="0.5" width="150" height="150"/>
	</defs>
	<clipPath id="SVGID_2_">
		<use xlink:href="#SVGID_1_"  overflow="visible"/>
	</clipPath>
	<g clip-path="url(#SVGID_2_)">
		<path fill="#D3D3D3" d="M43.049,71.048l15.822-6.849c5.608-2.428,12.129-1.184,16.451,3.137l3.898,3.899L43.049,71.048z"/>
		<path d="M138.521,118.307l11.424,11.426c0.738,0.737,0.738,1.934,0,2.672c-0.737,0.738-1.934,0.738-2.672,0l-11.424-11.426
			c-0.738-0.737-0.738-1.934,0-2.672C136.587,117.568,137.784,117.568,138.521,118.307z"/>
		<path fill="#9747FF" d="M123.303,119.251L40.785,36.733l13.492-13.491l70.718,70.719l12.023,12.023
			c1.051,1.05,1.897,2.279,2.484,3.604l7.213,16.292c1.025,2.313-0.979,4.317-3.293,3.293l-16.291-7.214
			c-1.324-0.586-2.554-1.434-3.605-2.484L123.303,119.251z"/>
		<path fill="#2BAA65" d="M40.785,36.733l13.491-13.491l27.017,27.017L67.802,63.75L40.785,36.733z"/>
		<path fill="#2BAA65" d="M137.973,107.064c0.616,0.78,1.133,1.629,1.529,2.523l7.213,16.291c1.025,2.314-0.979,4.318-3.293,3.293
			l-16.291-7.213c-0.895-0.396-1.742-0.913-2.525-1.529L137.973,107.064z"/>
		<path d="M42.493,34.136l9.185-9.185c0.955-0.955,0.955-2.503,0-3.458l-10.56-10.56c-2.737-2.737-7.175-2.737-9.913,0l-2.73,2.73
			c-2.737,2.737-2.737,7.175,0,9.913l10.56,10.56C39.99,35.091,41.539,35.091,42.493,34.136z"/>
		<path d="M29.712,24.813l9.323,9.323c0.955,0.954,2.503,0.956,3.459,0l9.183-9.183c0.956-0.956,0.954-2.505,0-3.459l-9.323-9.323
			L29.712,24.813z"/>
		<path d="M28.476,13.664l0.983-0.983l17.245,17.245l-4.21,4.211c-0.955,0.955-2.503,0.955-3.458,0l-10.56-10.56
			C25.738,20.839,25.738,16.401,28.476,13.664z"/>
		<path fill="#FFFFFF" d="M95.033,57.245c-0.375,0.889-1.398,1.306-2.286,0.932l-1.011-0.426c-4.432-1.866-8.201-4.955-10.9-8.934
			L68.214,30.213c-1.939-2.859-4.162-5.547-6.604-7.99c-0.854-0.854-2.241-0.854-3.096,0l-5.508,5.509l-2.468-2.469l5.508-5.508
			c2.221-2.221,5.834-2.2,8.055,0.022c2.59,2.592,4.946,5.444,7.003,8.476l12.622,18.604c2.32,3.419,5.559,6.074,9.367,7.677
			l1.01,0.425C94.99,55.333,95.407,56.357,95.033,57.245z"/>
		<path fill="#FFFFFF" d="M56.045,19.754l-5.508,5.509l2.468,2.468l5.508-5.508c0.854-0.854,2.241-0.854,3.096,0
			c2.443,2.443,4.665,5.131,6.604,7.99l2.469,3.639l2.513-2.513l-2.094-3.085c-2.057-3.032-4.413-5.884-7.002-8.476
			C61.88,17.554,58.267,17.533,56.045,19.754z"/>
		<path fill="#FFFFFF" d="M45.785,40.618l12.375-12.375c0.869-0.869,0.869-2.278,0-3.147l-4.988-4.988
			c-0.869-0.869-2.278-0.869-3.147,0L37.65,32.483c-0.869,0.869-0.869,2.278,0,3.147l4.988,4.988
			C43.507,41.488,44.916,41.488,45.785,40.618z"/>
		<path fill="#FFFFFF" d="M37.65,32.483l7.849-7.849l8.135,8.135l-7.849,7.849c-0.869,0.87-2.278,0.87-3.147,0L37.65,35.63
			C36.78,34.761,36.78,33.352,37.65,32.483z"/>
		<path fill="#FFFFFF" d="M45.785,40.618l12.375-12.375c0.869-0.869,0.869-2.278,0-3.147l-4.988-4.988
			c-0.869-0.869-2.278-0.869-3.147,0L37.65,32.483c-0.869,0.869-0.869,2.278,0,3.147l4.988,4.988
			C43.507,41.488,44.916,41.488,45.785,40.618z"/>
		<path d="M126.852,121.684l12.375-12.375c0.869-0.869,0.869-2.277,0-3.146l-26.299-26.299c-0.869-0.869-2.277-0.869-3.146,0
			L97.405,92.238c-0.868,0.869-0.868,2.279,0,3.147l26.299,26.298C124.572,122.555,125.982,122.555,126.852,121.684z"/>
		<path d="M97.406,92.238l7.848-7.848l29.446,29.445l-7.849,7.85c-0.869,0.869-2.279,0.869-3.147,0L97.406,95.387
			C96.537,94.518,96.537,93.107,97.406,92.238z"/>
		<path d="M112.893,110.873l10.812,10.813c0.868,0.869,2.278,0.869,3.147,0l12.375-12.377c0.869-0.869,0.869-2.276,0-3.146
			l-10.813-10.813L112.893,110.873z"/>
		<path fill="#FFFFFF" d="M79.146,58.931L90.57,70.356c0.738,0.738,0.738,1.934,0,2.672c-0.738,0.738-1.934,0.738-2.672,0
			L76.475,61.604c-0.739-0.738-0.739-1.935,0-2.673C77.212,58.193,78.408,58.193,79.146,58.931z"/>
		<path fill="#2BAA65" d="M90.375,86.324h26.982L78.651,47.618H51.668L90.375,86.324z"/>
		<path fill="#FFFFFF" d="M66.987,46.772l6.882,6.882c0.738,0.738,0.738,1.934,0,2.672c-0.738,0.738-1.935,0.738-2.672,0
			l-6.882-6.882c-0.738-0.738-0.738-1.935,0-2.673C65.053,46.035,66.25,46.035,66.987,46.772z"/>
		<path fill="#FFFFFF" d="M128.936,77.467c-0.11-4.648-3.92-8.847-8.594-8.847H55.609c-4.377,0-8.693,0.902-12.765,2.51
			c-4.17,1.646-8.648,2.507-13.197,2.507h-4.634v61.489h9.577c3.064,0,6.077,0.774,8.762,2.258c2.222,1.226,4.577,2.158,7.017,2.786
			c2.436,0.624,4.949,0.95,7.486,0.95h36.223c5.642,0,10.443-5.49,11.303-12.931c0.151-1.313,0.07-2.592-0.195-3.773
			c1.517-0.621,2.907-1.648,4.088-3c2.015-2.301,3.429-5.536,3.858-9.256c0.153-1.323,0.069-2.613-0.202-3.803
			c4.066-1.702,7.2-6.357,7.877-12.229c0.545-4.717-1.882-9.015-5.279-9.787l-0.084-0.016h4.83
			C125.033,86.231,129.05,82.229,128.936,77.467z"/>
		
			<linearGradient id="SVGID_3_" gradientUnits="userSpaceOnUse" x1="114.4141" y1="93.6836" x2="117.5451" y2="79.818" gradientTransform="matrix(1 0 0 -1 -8.3599 174.0547)">
			<stop  offset="0" style="stop-color:#F89580;stop-opacity:0"/>
			<stop  offset="0.2699" style="stop-color:#F08F7A;stop-opacity:0.271"/>
			<stop  offset="0.6945" style="stop-color:#D97F69;stop-opacity:0.696"/>
			<stop  offset="0.9972" style="stop-color:#C5715A"/>
		</linearGradient>
		<path fill="url(#SVGID_3_)" d="M120.275,86.326H83.687V68.619h36.653c4.676,0,8.482,4.201,8.594,8.849
			C129.05,82.227,125.035,86.233,120.275,86.326z"/>
		
			<linearGradient id="SVGID_4_" gradientUnits="userSpaceOnUse" x1="50.2466" y1="69.1851" x2="37.9155" y2="69.1851" gradientTransform="matrix(1 0 0 -1 -8.3599 174.0547)">
			<stop  offset="0" style="stop-color:#F89580;stop-opacity:0"/>
			<stop  offset="0.2699" style="stop-color:#F08F7A;stop-opacity:0.271"/>
			<stop  offset="0.6945" style="stop-color:#D97F69;stop-opacity:0.696"/>
			<stop  offset="0.9972" style="stop-color:#C5715A"/>
		</linearGradient>
		<path fill="url(#SVGID_4_)" d="M25.013,73.342v61.784h9.577c3.064,0,6.077,0.774,8.762,2.258c2.222,1.226,4.577,2.158,7.017,2.786
			c2.436,0.624,4.949,0.95,7.486,0.95h1.745v-72.5h-3.993c-4.303,0-8.566,0.823-12.559,2.428c-5.633,2.265-11.838,3.09-18.033,2.291
			C25.015,73.34,25.014,73.341,25.013,73.342z"/>
		
			<linearGradient id="SVGID_5_" gradientUnits="userSpaceOnUse" x1="17.0752" y1="69.5859" x2="31.6997" y2="69.5859" gradientTransform="matrix(1 0 0 -1 -8.3599 174.0547)">
			<stop  offset="0" style="stop-color:#FFFBF5"/>
			<stop  offset="0.4893" style="stop-color:#FFF8EC"/>
			<stop  offset="1" style="stop-color:#FFF2DE"/>
		</linearGradient>
		<path fill="url(#SVGID_5_)" d="M25.1,140.044H5.876c-2.969,0-5.376-2.407-5.376-5.377V74.27c0-2.969,2.407-5.376,5.376-5.376H25.1
			c2.969,0,5.377,2.407,5.377,5.376v60.397C30.477,137.637,28.069,140.044,25.1,140.044z"/>
		<path fill="#2BAA65" d="M25.1,140.044H5.876c-2.969,0-5.376-2.407-5.376-5.377V74.27c0-2.969,2.407-5.376,5.376-5.376H25.1
			c2.969,0,5.377,2.407,5.377,5.376v60.397C30.477,137.637,28.069,140.044,25.1,140.044z"/>
		<path fill="#2BAA65" d="M30.477,134.667V93.738H0.5v40.929c0,2.969,2.407,5.377,5.376,5.377H25.1
			C28.069,140.044,30.477,137.637,30.477,134.667z"/>
		
			<linearGradient id="SVGID_6_" gradientUnits="userSpaceOnUse" x1="97.3389" y1="41.0918" x2="101.8045" y2="31.6819" gradientTransform="matrix(1 0 0 -1 -8.3599 174.0547)">
			<stop  offset="0" style="stop-color:#F89580;stop-opacity:0"/>
			<stop  offset="0.2699" style="stop-color:#F08F7A;stop-opacity:0.271"/>
			<stop  offset="0.6945" style="stop-color:#D97F69;stop-opacity:0.696"/>
			<stop  offset="0.9972" style="stop-color:#C5715A"/>
		</linearGradient>
		<path fill="url(#SVGID_6_)" d="M101.829,125.089h-5.994h-6.153H72.588v16.029h21.49c5.643,0,10.443-5.489,11.303-12.929
			c0.151-1.313,0.069-2.592-0.197-3.773C104.119,124.852,102.992,125.089,101.829,125.089z"/>
		<path fill="#FFFFFF" d="M120.807,96.129c0.545-4.717-1.882-9.015-5.279-9.787l-0.086-0.017c-0.002,0-0.004-0.001-0.006-0.001
			H72.588v22.732h36.917C115.148,109.057,119.949,103.566,120.807,96.129z"/>
		
			<linearGradient id="SVGID_7_" gradientUnits="userSpaceOnUse" x1="102.2461" y1="53.4785" x2="104.1598" y2="46.9394" gradientTransform="matrix(1 0 0 -1 -8.3599 174.0547)">
			<stop  offset="0" style="stop-color:#F89580;stop-opacity:0"/>
			<stop  offset="0.2699" style="stop-color:#F08F7A;stop-opacity:0.271"/>
			<stop  offset="0.6945" style="stop-color:#D97F69;stop-opacity:0.696"/>
			<stop  offset="0.9972" style="stop-color:#C5715A"/>
		</linearGradient>
		<path fill="url(#SVGID_7_)" d="M109.506,109.057H95.601v-0.002H72.588v16.034h29.241c2.819,0,5.435-1.372,7.444-3.674
			c2.015-2.301,3.429-5.535,3.858-9.255c0.152-1.324,0.069-2.614-0.202-3.803C111.846,108.811,110.693,109.057,109.506,109.057z"/>
	</g>
</g>
</svg>
