<svg width="60" height="60" viewBox="0 0 60 60" fill="none" xmlns="http://www.w3.org/2000/svg">
<g clip-path="url(#clip0_39_520)">
<path d="M17.5568 23.4512C16.0416 23.4511 14.5704 23.6442 13.1667 24.0069C13.4938 25.0984 13.9296 26.166 14.4735 27.1963C16.2385 30.5399 18.9685 33.1674 22.3082 34.786C23.2943 31.6014 25.0172 28.7379 27.2761 26.3943C24.4913 24.5362 21.1486 23.4512 17.5568 23.4512Z" fill="#2BAA65"/>
<path d="M42.4429 23.4512C38.8513 23.4512 35.5085 24.5362 32.7236 26.3943C34.9817 28.737 36.7041 31.5992 37.6905 34.7822C37.86 34.6996 38.0287 34.6151 38.1961 34.5268C42.3433 32.3375 45.3899 28.6643 46.7743 24.1837C46.7926 24.1244 46.8094 24.0647 46.8271 24.0053C45.4253 23.6438 43.9562 23.4512 42.4429 23.4512Z" fill="#2BAA65"/>
<path d="M45.5264 10.8041C43.3372 6.65687 39.6641 3.61034 35.1833 2.22577C33.4716 1.69678 31.7204 1.43463 29.9784 1.43463C27.1604 1.43463 24.3667 2.12065 21.8037 3.47358C17.6564 5.66288 14.6099 9.33601 13.2255 13.8167C12.5415 16.03 12.3044 18.3095 12.5026 20.5496C14.1225 20.1495 15.8151 19.9355 17.5568 19.9355C22.2077 19.9355 26.5104 21.4511 29.9999 24.0127C33.4893 21.4511 37.7922 19.9355 42.4431 19.9355C44.1834 19.9355 45.8745 20.149 47.4931 20.5488C47.7958 17.2058 47.1304 13.8428 45.5264 10.8041Z" fill="#2BAA65"/>
<path d="M30 28.6343C27.9803 30.6652 26.4538 33.1861 25.6147 36.0008C28.526 36.7551 31.5284 36.749 34.3868 36.0059C33.5481 33.1892 32.0209 30.6665 30 28.6343Z" fill="#2BAA65"/>
<path d="M50.1316 25.2267C48.4691 30.6023 44.8134 35.009 39.8372 37.6358C39.3828 37.8756 38.9218 38.0958 38.4561 38.3007C38.5704 39.1873 38.6295 40.091 38.6295 41.0082C38.6295 46.6776 36.3782 51.8306 32.7236 55.6221C35.5085 57.4803 38.8511 58.5653 42.4429 58.5653C52.1238 58.5653 59.9999 50.6892 59.9999 41.0082C60 34.0833 55.9696 28.0826 50.1316 25.2267Z" fill="#2BAA65"/>
<path d="M21.3704 41.0083C21.3704 40.0918 21.4295 39.189 21.5436 38.303C17.1823 36.4024 13.6179 33.1065 11.3645 28.8376C10.7482 27.6701 10.2489 26.4625 9.8644 25.2289C4.02868 28.0853 0 34.0849 0 41.0083C0 50.6893 7.87607 58.5654 17.5569 58.5654C21.1488 58.5654 24.4914 57.4805 27.2763 55.6222C23.6217 51.8307 21.3704 46.6778 21.3704 41.0083Z" fill="#2BAA65"/>
<path d="M35.0458 39.4685C33.4004 39.8772 31.7166 40.0831 30.026 40.0831C28.3322 40.0831 26.632 39.8767 24.955 39.4609C24.9102 39.9709 24.886 40.4867 24.886 41.0082C24.886 45.8312 26.8411 50.2058 30.0001 53.3822C33.159 50.2058 35.1141 45.8312 35.1141 41.0082C35.1141 40.4893 35.0901 39.976 35.0458 39.4685Z" fill="#2BAA65"/>
</g>
<defs>
<clipPath id="clip0_39_520">
<rect width="60" height="60" fill="white"/>
</clipPath>
</defs>
</svg>
