<svg width="68" height="69" viewBox="0 0 68 69" fill="none" xmlns="../../external.html?link=http://www.w3.org/2000/svg">
<path d="M44.974 14.8685L44.1122 14.972L43.5605 14.3169" stroke="black" stroke-width="0.689507" stroke-linecap="round" stroke-linejoin="round"/>
<path d="M42.423 12.9379L33.5628 2.56083C32.0459 0.802592 29.7016 0.0786102 27.4951 0.630216C25.2887 1.18182 23.565 2.97454 23.0823 5.21544L20.0485 19.4537" stroke="black" stroke-width="0.689507" stroke-linecap="round" stroke-linejoin="round" stroke-dasharray="1.77 1.77"/>
<path d="M19.8417 20.3156L19.6693 21.1775L18.8763 21.4878" stroke="black" stroke-width="0.689507" stroke-linecap="round" stroke-linejoin="round"/>
<path d="M17.2561 22.1773L4.6381 27.3831C2.5351 28.245 1.08714 30.279 0.949237 32.5544C0.811336 34.8642 1.94902 37.0017 3.9486 38.1738L16.4976 45.4481" stroke="black" stroke-width="0.689507" stroke-linecap="round" stroke-linejoin="round" stroke-dasharray="1.77 1.77"/>
<path d="M17.2904 45.8963L18.0144 46.3445L18.0833 47.1719" stroke="black" stroke-width="0.689507" stroke-linecap="round" stroke-linejoin="round"/>
<path d="M18.2213 48.9646L19.2901 62.5824C19.4624 64.8922 20.9104 66.8573 23.0479 67.7192C24.22 68.2019 25.5301 68.2708 26.7712 67.9605C27.702 67.7192 28.5984 67.2366 29.3224 66.616L40.1477 56.894" stroke="black" stroke-width="0.689507" stroke-linecap="round" stroke-linejoin="round" stroke-dasharray="1.77 1.77"/>
<path d="M40.8027 56.2389L41.4578 55.6873L42.2852 55.8597" stroke="black" stroke-width="0.689507" stroke-linecap="round" stroke-linejoin="round"/>
<path d="M44.0088 56.2734L57.2818 59.4451C58.2126 59.6865 59.2124 59.652 60.1777 59.4107C61.4189 59.1004 62.5221 58.4109 63.315 57.4111C64.763 55.6528 65.1077 53.1706 64.1769 51.1021L58.2816 37.8291" stroke="black" stroke-width="0.689507" stroke-linecap="round" stroke-linejoin="round" stroke-dasharray="1.77 1.77"/>
<path d="M57.937 37.0706L57.5923 36.2777L58.0405 35.5537" stroke="black" stroke-width="0.689507" stroke-linecap="round" stroke-linejoin="round"/>
<path d="M58.9368 34.0368L66.0732 22.3841C67.2799 20.4535 67.2454 17.9368 66.0388 16.0062C64.7976 14.0411 62.6257 12.9724 60.3158 13.2137L45.8362 14.7306" stroke="black" stroke-width="0.689507" stroke-linecap="round" stroke-linejoin="round" stroke-dasharray="1.77 1.77"/>
<path d="M64.5561 16.937C63.6598 15.4891 62.0049 14.6961 60.2812 14.8685L43.4227 16.6268L32.4251 3.73299C31.3218 2.42293 29.5636 1.87132 27.9088 2.28503C26.254 2.69873 24.9784 4.04327 24.6336 5.69808L21.0827 22.3152L5.43083 28.7966C3.84496 29.4516 2.77622 30.934 2.6728 32.6578C2.56937 34.3816 3.43126 36.0019 4.9137 36.8293L19.6002 45.3102L20.9448 62.2032C21.0827 63.8925 22.1859 65.3749 23.7717 66.0299C25.3576 66.6505 27.1848 66.3402 28.4259 65.2025L41.0439 53.8601L57.5231 57.8248C58.2471 57.9972 58.9711 57.9972 59.6951 57.8248C60.5915 57.5835 61.4189 57.1008 62.0394 56.3424C63.1426 55.0323 63.384 53.2051 62.6944 51.6537L55.7994 36.1743L64.6595 21.7291C65.4869 20.2467 65.487 18.385 64.5561 16.937Z" fill="#FAFF00" stroke="black" stroke-width="0.861884" stroke-miterlimit="10" stroke-linecap="round" stroke-linejoin="round"/>
<path d="M31.9426 39.8632C32.3563 41.449 31.3909 43.0349 29.8051 43.4486C28.2192 43.8623 26.6333 42.897 26.2196 41.3111L24.1511 33.2094C23.7374 31.6235 24.7027 30.0377 26.2886 29.624C27.8745 29.2103 29.4603 30.1756 29.874 31.7614L31.9426 39.8632Z" fill="black" stroke="black" stroke-width="0.861884" stroke-miterlimit="10" stroke-linecap="round" stroke-linejoin="round"/>
<path d="M47.9737 35.7951C48.3874 37.3809 47.4221 38.9668 45.8362 39.3805C44.2503 39.7942 42.6645 38.8289 42.2508 37.243L40.1822 29.1413C39.7685 27.5555 40.7338 25.9696 42.3197 25.5559C43.9056 25.1422 45.4915 26.1075 45.9052 27.6934L47.9737 35.7951Z" fill="black" stroke="black" stroke-width="0.861884" stroke-miterlimit="10" stroke-linecap="round" stroke-linejoin="round"/>
</svg>
