<svg width="60" height="60" viewBox="0 0 60 60" fill="none" xmlns="http://www.w3.org/2000/svg">
<path fill-rule="evenodd" clip-rule="evenodd" d="M40.9475 21.225L35.495 37.59C35.1675 38.57 35.6975 39.6325 36.68 39.96C37.6625 40.2875 38.725 39.7575 39.0525 38.775L44.505 22.41C44.8325 21.43 44.3025 20.3675 43.32 20.04C42.3375 19.7125 41.275 20.2425 40.9475 21.225Z" fill="#2BAA65"/>
<path fill-rule="evenodd" clip-rule="evenodd" d="M45.72 25.8725L49.8475 30L45.72 34.1275C44.9875 34.86 44.9875 36.0475 45.72 36.78C46.4525 37.5125 47.64 37.5125 48.3725 36.78L53.825 31.325C54.5575 30.5925 54.5575 29.4075 53.825 28.675L48.3725 23.22C47.64 22.4875 46.4525 22.4875 45.72 23.22C44.9875 23.9525 44.9875 25.14 45.72 25.8725Z" fill="#2BAA65"/>
<path fill-rule="evenodd" clip-rule="evenodd" d="M31.6276 23.22L26.1751 28.675C25.4426 29.4075 25.4426 30.5925 26.1751 31.325L31.6276 36.78C32.3601 37.5125 33.5476 37.5125 34.2801 36.78C35.0126 36.0475 35.0126 34.86 34.2801 34.1275L30.1526 30L34.2801 25.8725C35.0126 25.14 35.0126 23.9525 34.2801 23.22C33.5476 22.4875 32.3601 22.4875 31.6276 23.22Z" fill="#2BAA65"/>
<path fill-rule="evenodd" clip-rule="evenodd" d="M41.875 38.21L41.4225 39.565C40.66 41.855 38.18 43.095 35.89 42.3325C34.625 41.91 33.68 40.9675 33.2175 39.82C32.0125 39.8925 30.7825 39.4675 29.86 38.5475L24.4075 33.0925C22.6975 31.385 22.6975 28.615 24.4075 26.9075L29.86 21.4525C31.5675 19.745 34.34 19.745 36.0475 21.4525C36.8175 22.2225 37.24 23.2075 37.3175 24.215L38.5775 20.435C39.0925 18.89 40.385 17.825 41.875 17.5275V10C41.875 8.1775 41.15 6.4275 39.8625 5.1375C38.5725 3.85 36.8225 3.125 35 3.125C28.89 3.125 18.61 3.125 12.5 3.125C10.6775 3.125 8.9275 3.85 7.6375 5.1375C6.35 6.4275 5.625 8.1775 5.625 10V50C5.625 51.8225 6.35 53.5725 7.6375 54.8625C8.9275 56.15 10.6775 56.875 12.5 56.875H35C36.8225 56.875 38.5725 56.15 39.8625 54.8625C41.15 53.5725 41.875 51.8225 41.875 50V38.21ZM18.75 50.625H28.75C29.785 50.625 30.625 49.785 30.625 48.75C30.625 47.715 29.785 46.875 28.75 46.875H18.75C17.715 46.875 16.875 47.715 16.875 48.75C16.875 49.785 17.715 50.625 18.75 50.625ZM33.75 6.875H13.75L15.3075 10.7675C15.8775 12.1925 17.255 13.125 18.79 13.125H28.71C30.245 13.125 31.6225 12.1925 32.1925 10.7675L33.75 6.875Z" fill="#2BAA65"/>
</svg>
