<svg width="50" height="50" viewBox="0 0 50 50" fill="none" xmlns="../../external.html?link=http://www.w3.org/2000/svg">
<path d="M45.9266 36.5C44.5609 35.3547 36.5516 30.2828 35.2203 30.5156C34.5953 30.6266 34.1172 31.1594 32.8375 32.6859C32.2457 33.4373 31.5958 34.1411 30.8937 34.7906C29.6075 34.4799 28.3624 34.0184 27.1844 33.4156C22.5645 31.1664 18.8322 27.433 16.5844 22.8125C15.9816 21.6345 15.5201 20.3894 15.2094 19.1031C15.859 18.4011 16.5627 17.7512 17.3141 17.1594C18.8391 15.8797 19.3734 15.4047 19.4844 14.7766C19.7172 13.4422 14.6406 5.43594 13.5 4.07031C13.0219 3.50469 12.5875 3.125 12.0312 3.125C10.4187 3.125 3.125 12.1438 3.125 13.3125C3.125 13.4078 3.28125 22.7969 15.1391 34.8609C27.2031 46.7188 36.5922 46.875 36.6875 46.875C37.8563 46.875 46.875 39.5812 46.875 37.9688C46.875 37.4125 46.4953 36.9781 45.9266 36.5Z" fill="#FF8409"/>
<path d="M35.9375 23.4375H39.0625C39.0588 20.1234 37.7406 16.9462 35.3972 14.6028C33.0538 12.2594 29.8766 10.9412 26.5625 10.9375V14.0625C29.0481 14.065 31.4313 15.0535 33.1889 16.8111C34.9465 18.5687 35.935 20.9519 35.9375 23.4375Z" fill="#FF8409"/>
<path d="M43.75 23.4375H46.875C46.8688 18.0522 44.7267 12.8892 40.9188 9.08124C37.1108 5.27326 31.9478 3.1312 26.5625 3.125V6.25C31.1193 6.25538 35.4878 8.06792 38.71 11.29C41.9321 14.5122 43.7446 18.8807 43.75 23.4375Z" fill="#FF8409"/>
</svg>
