<svg width="60" height="60" viewBox="0 0 60 60" fill="none" xmlns="../../external.html?link=http://www.w3.org/2000/svg">
<g clip-path="url(#clip0_49_1187)">
<path d="M0.585355 25.9024C1.69755 18.0292 5.76584 11.0927 12.1171 6.29266C17.3268 2.37071 23.5024 0.292664 30 0.292664C39.4244 0.292664 48.0585 4.5951 53.7366 12.1171C61.4049 22.2732 61.6976 36.2927 54.5854 46.7122L58.6244 52.5658C59.1219 53.2975 59.1219 54.2634 58.5951 54.9658C58.0683 55.6683 57.161 55.961 56.3122 55.6975L48.5854 53.1805C48.3512 53.3561 48.1171 53.5317 47.9122 53.7073C42.7317 57.6292 36.5268 59.7073 30.0293 59.7073C20.6049 59.7073 11.9707 55.4049 6.29267 47.8829C1.52194 41.561 -0.497572 33.7463 0.585355 25.9024Z" stroke="black" stroke-width="0.585366" stroke-miterlimit="10" stroke-linecap="round" stroke-linejoin="round" stroke-dasharray="1.46 1.46"/>
<g clip-path="url(#clip1_49_1187)">
<path d="M13.2585 7.99023C25.4634 -1.20002 42.7903 1.22925 52.0098 13.4049C59.6488 23.5024 59.2683 37.1414 51.9805 46.7707L56.8683 53.8244L48.0878 50.9561C47.6195 51.3658 47.122 51.7756 46.6244 52.1561C34.4195 61.3463 17.0927 58.9463 7.87318 46.7414C-1.34633 34.5366 1.05367 17.2097 13.2585 7.99023Z" fill="#9747FF" stroke="black" stroke-width="0.731707" stroke-miterlimit="10" stroke-linecap="round" stroke-linejoin="round"/>
<path d="M22.64 28.0641L25.6837 37.2306L23.2949 38.0238L20.2512 28.8574L22.64 28.0641ZM16.7513 30.0195L19.795 39.1859L17.4062 39.9791L14.3625 30.8127L16.7513 30.0195ZM22.7326 32.058L23.3459 33.9051L17.3461 35.8974L16.7328 34.0502L22.7326 32.058ZM30.9416 35.6389C30.1731 35.894 29.4588 35.9719 28.7987 35.8724C28.1479 35.7698 27.5805 35.5008 27.0966 35.0652C26.6128 34.6296 26.2448 34.0322 25.9927 33.273C25.7406 32.5138 25.6781 31.8149 25.8054 31.1764C25.9326 30.538 26.2217 29.9845 26.6727 29.5161C27.1329 29.0446 27.7195 28.6905 28.4324 28.4537C29.1639 28.2109 29.8319 28.1484 30.4365 28.2663C31.0472 28.3719 31.5698 28.6301 32.0044 29.0409C32.4358 29.4425 32.7576 29.9627 32.9697 30.6016C33.0251 30.7683 33.0758 30.9365 33.1219 31.1062C33.168 31.2759 33.2002 31.4194 33.2186 31.5367L27.7187 33.3629L27.2991 32.0991L31.7573 30.6187L30.7753 31.4228C30.5908 30.8673 30.3475 30.4752 30.0454 30.2465C29.7526 30.0148 29.3979 29.9681 28.9812 30.1065C28.6849 30.2048 28.4534 30.3588 28.2865 30.5684C28.1289 30.775 28.0438 31.0448 28.0311 31.378C28.0276 31.7081 28.1027 32.1046 28.2565 32.5676C28.4071 33.0213 28.5903 33.3716 28.8059 33.6187C29.0185 33.8565 29.2575 34.0033 29.5227 34.0592C29.7849 34.1057 30.0734 34.0768 30.3882 33.9722C30.7401 33.8554 30.9948 33.6937 31.1524 33.4872C31.3192 33.2776 31.412 33.0309 31.4309 32.7471L33.5272 32.7449C33.5298 33.1861 33.4152 33.5993 33.1833 33.9847C32.9577 34.3578 32.6457 34.6875 32.2474 34.974C31.8584 35.2574 31.4231 35.479 30.9416 35.6389ZM39.9855 24.7717L39.7636 32.5553C39.7473 33.3728 39.6586 34.0499 39.4975 34.5866C39.3365 35.1232 39.0799 35.5579 38.7278 35.8907C38.3757 36.2235 37.908 36.4867 37.3247 36.6804C36.9358 36.8095 36.5655 36.8862 36.2138 36.9105C35.862 36.9348 35.5412 36.9128 35.2513 36.8446L35.1931 35.0906C35.3998 35.1557 35.6034 35.1806 35.8039 35.1654C36.0075 35.1595 36.2529 35.1088 36.5399 35.0135C36.8084 34.9244 37.0106 34.8058 37.1465 34.6579C37.2917 34.5069 37.3722 34.2848 37.388 33.9918L37.4255 33.5013L35.9928 31.8799L32.1802 27.3635L34.7773 26.5011L37.1611 30.1042L37.9832 31.4657L37.8648 29.8089L37.6383 25.5511L39.9855 24.7717ZM42.5597 21.4498L43.542 24.408L44.348 27.7178L42.4175 28.3588L41.0837 25.2243L40.1014 22.266L42.5597 21.4498ZM43.6341 28.8184C44.06 28.6769 44.4225 28.6696 44.7216 28.7965C45.03 28.9202 45.2457 29.1673 45.3687 29.5377C45.4886 29.8988 45.462 30.2211 45.2889 30.5048C45.125 30.7853 44.8302 30.9963 44.4042 31.1377C43.9968 31.273 43.639 31.2788 43.3306 31.155C43.0222 31.0312 42.8081 30.7888 42.6882 30.4277C42.5652 30.0574 42.5903 29.7304 42.7634 29.4467C42.9364 29.1631 43.2267 28.9536 43.6341 28.8184Z" fill="white"/>
</g>
</g>
<defs>
<clipPath id="clip0_49_1187">
<rect width="60" height="60" fill="white" transform="matrix(-1 0 0 1 60 0)"/>
</clipPath>
<clipPath id="clip1_49_1187">
<rect width="56.0488" height="56.0488" fill="white" transform="matrix(-1 0 0 1 57.9512 2.04877)"/>
</clipPath>
</defs>
</svg>
