<svg width="80" height="80" viewBox="0 0 80 80" fill="none" xmlns="../../external.html?link=http://www.w3.org/2000/svg">
<g clip-path="url(#clip0_115_223)">
<path d="M14.1672 0.0082016H65.8338C73.6672 0.0082016 80.0005 6.5026 80.0005 14.5351V65.4649C80.0005 73.4974 73.6672 79.9918 65.8338 79.9918H14.1672C6.33382 79.9918 0.000488281 73.4974 0.000488281 65.4649V14.5351C0.000488281 6.5026 6.33382 0.0082016 14.1672 0.0082016Z" fill="#001E36"/>
<path d="M18.0005 56.0993V20.927C18.0005 20.6877 18.1005 20.551 18.3338 20.551C18.9005 20.551 19.4338 20.551 20.2005 20.5168C21.0005 20.4826 21.8338 20.4826 22.7338 20.4485C23.6338 20.4143 24.6005 20.4143 25.6338 20.3801C26.6672 20.3459 27.6672 20.3459 28.6672 20.3459C31.4005 20.3459 33.6672 20.6877 35.5338 21.4055C37.2005 21.9866 38.7338 22.9437 40.0005 24.2084C41.0672 25.3022 41.9005 26.6352 42.4338 28.105C42.9338 29.5406 43.2005 31.0104 43.2005 32.5485C43.2005 35.4881 42.5338 37.915 41.2005 39.8291C39.8672 41.7432 38.0005 43.1788 35.8338 43.9992C33.5672 44.8537 31.0672 45.1613 28.3338 45.1613C27.5338 45.1613 27.0005 45.1613 26.6672 45.1272C26.3338 45.093 25.8672 45.093 25.2338 45.093V56.0651C25.2672 56.3043 25.1005 56.5094 24.8672 56.5436H18.4005C18.1338 56.5436 18.0005 56.4069 18.0005 56.0993ZM25.2672 27.1479V38.6328C25.7338 38.6669 26.1672 38.7011 26.5672 38.7011H28.3338C29.6338 38.7011 30.9338 38.496 32.1672 38.0859C33.2338 37.7782 34.1672 37.1288 34.9005 36.2743C35.6005 35.4197 35.9338 34.2576 35.9338 32.7536C35.9672 31.694 35.7005 30.6344 35.1672 29.7115C34.6005 28.8228 33.8005 28.1392 32.8338 27.7632C31.6005 27.2505 30.2672 27.0454 28.9005 27.0796C28.0338 27.0796 27.2672 27.0796 26.6338 27.1138C25.9672 27.0796 25.5005 27.1138 25.2672 27.1479ZM64.0005 36.5477C63.0005 36.0008 61.9338 35.6248 60.8005 35.3856C59.5672 35.1121 58.3338 34.9412 57.0672 34.9412C56.4005 34.907 55.7005 35.0096 55.0672 35.1805C54.6338 35.283 54.2672 35.5223 54.0338 35.8641C53.8672 36.1375 53.7672 36.4794 53.7672 36.787C53.7672 37.0946 53.9005 37.4022 54.1005 37.6757C54.4005 38.0517 54.8005 38.3593 55.2338 38.5986C56.0005 39.0087 56.8005 39.3847 57.6005 39.7265C59.4005 40.3418 61.1338 41.1963 62.7338 42.2218C63.8338 42.9396 64.7338 43.8966 65.3672 45.0588C65.9005 46.1526 66.1672 47.3489 66.1338 48.5794C66.1672 50.1859 65.7005 51.7924 64.8338 53.1255C63.9005 54.4927 62.6005 55.5524 61.1005 56.1676C59.4672 56.8854 57.4672 57.2614 55.0672 57.2614C53.5338 57.2614 52.0338 57.1247 50.5338 56.8171C49.3672 56.612 48.2005 56.236 47.1338 55.7233C46.9005 55.5865 46.7338 55.3473 46.7672 55.0738V49.1263C46.7672 49.0238 46.8005 48.8871 46.9005 48.8187C47.0005 48.7503 47.1005 48.7845 47.2005 48.8529C48.5005 49.639 49.8672 50.1859 51.3338 50.5278C52.6005 50.8696 53.9338 51.0405 55.2672 51.0405C56.5338 51.0405 57.4338 50.8696 58.0338 50.5619C58.5672 50.3227 58.9338 49.7416 58.9338 49.1263C58.9338 48.6478 58.6672 48.2034 58.1338 47.7591C57.6005 47.3147 56.5005 46.802 54.8672 46.1526C53.1672 45.5373 51.6005 44.717 50.1338 43.6915C49.1005 42.9396 48.2338 41.9483 47.6005 40.7862C47.0672 39.6924 46.8005 38.496 46.8338 37.2997C46.8338 35.8299 47.2338 34.4285 47.9672 33.1638C48.8005 31.7966 50.0338 30.7028 51.4672 30.0191C53.0338 29.1988 55.0005 28.8228 57.3672 28.8228C58.7338 28.8228 60.1338 28.9253 61.5005 29.1304C62.5005 29.2672 63.4672 29.5406 64.3672 29.9166C64.5005 29.9508 64.6338 30.0875 64.7005 30.2242C64.7338 30.3609 64.7672 30.4977 64.7672 30.6344V36.2059C64.7672 36.3426 64.7005 36.4794 64.6005 36.5477C64.3005 36.6161 64.1338 36.6161 64.0005 36.5477Z" fill="#31A8FF"/>
</g>
<defs>
<clipPath id="clip0_115_223">
<rect width="80" height="80" fill="white"/>
</clipPath>
</defs>
</svg>
