<svg width="50" height="50" viewBox="0 0 50 50" fill="none" xmlns="../../external.html?link=http://www.w3.org/2000/svg">
<path d="M29.1786 30.634C27.9347 31.4633 26.4897 31.9017 25 31.9017C23.5104 31.9017 22.0654 31.4633 20.8215 30.634L0.33291 16.9745C0.219238 16.8988 0.108496 16.8198 0 16.7385V39.121C0 41.6872 2.08252 43.7239 4.60283 43.7239H45.3971C47.9633 43.7239 49.9999 41.6413 49.9999 39.121V16.7384C49.8912 16.8198 49.7803 16.899 49.6663 16.9749L29.1786 30.634Z" fill="#FF8409"/>
<path d="M1.95801 14.5369L22.4466 28.1965C23.2222 28.7136 24.111 28.9721 24.9999 28.9721C25.8889 28.9721 26.7778 28.7135 27.5534 28.1965L48.042 14.5369C49.2681 13.72 50 12.3529 50 10.8773C50 8.34006 47.9358 6.276 45.3987 6.276H4.60127C2.06416 6.2761 0 8.34016 0 10.8797C0 12.3529 0.732031 13.72 1.95801 14.5369Z" fill="#FF8409"/>
</svg>
