<svg width="50" height="50" viewBox="0 0 50 50" fill="none" xmlns="../../external.html?link=http://www.w3.org/2000/svg">
<path fill-rule="evenodd" clip-rule="evenodd" d="M25 2.60406C17.2437 2.60406 10.9375 8.96657 10.9375 16.8145C10.9375 19.4728 12.1083 22.7707 13.8125 26.0603C17.5646 33.3041 23.8146 40.5999 23.8146 40.5999C24.1104 40.9457 24.5437 41.1457 25 41.1457C25.4562 41.1457 25.8896 40.9457 26.1854 40.5999C26.1854 40.5999 32.4354 33.3041 36.1875 26.0603C37.8917 22.7707 39.0625 19.4728 39.0625 16.8145C39.0625 8.96657 32.7562 2.60406 25 2.60406ZM25 10.9374C21.8375 10.9374 19.2708 13.5041 19.2708 16.6666C19.2708 19.8291 21.8375 22.3957 25 22.3957C28.1625 22.3957 30.7292 19.8291 30.7292 16.6666C30.7292 13.5041 28.1625 10.9374 25 10.9374Z" fill="#FF8409"/>
<path fill-rule="evenodd" clip-rule="evenodd" d="M34.9663 36.202C36.6601 36.7104 38.0559 37.3395 39.0205 38.077C39.6455 38.552 40.1038 39.0166 40.1038 39.5833C40.1038 39.9166 39.9143 40.2187 39.6476 40.5208C39.2059 41.0187 38.5497 41.4666 37.7372 41.8833C34.8663 43.352 30.2247 44.2708 24.9997 44.2708C19.7747 44.2708 15.133 43.352 12.2622 41.8833C11.4497 41.4666 10.7934 41.0187 10.3518 40.5208C10.0851 40.2187 9.89551 39.9166 9.89551 39.5833C9.89551 39.0166 10.3538 38.552 10.9788 38.077C11.9434 37.3395 13.3393 36.7104 15.033 36.202C15.858 35.9541 16.3268 35.0812 16.0788 34.2562C15.8309 33.4291 14.958 32.9604 14.133 33.2083C11.5538 33.9854 9.54967 35.0499 8.34551 36.227C7.28717 37.2583 6.77051 38.4124 6.77051 39.5833C6.77051 41.0458 7.59759 42.5041 9.27884 43.7208C12.2288 45.8541 18.1538 47.3958 24.9997 47.3958C31.8455 47.3958 37.7705 45.8541 40.7205 43.7208C42.4018 42.5041 43.2288 41.0458 43.2288 39.5833C43.2288 38.4124 42.7122 37.2583 41.6538 36.227C40.4497 35.0499 38.4455 33.9854 35.8663 33.2083C35.0413 32.9604 34.1684 33.4291 33.9205 34.2562C33.6726 35.0812 34.1413 35.9541 34.9663 36.202Z" fill="#FF8409"/>
</svg>
