<svg width="80" height="80" viewBox="0 0 80 80" fill="none" xmlns="../../external.html?link=http://www.w3.org/2000/svg">
<g clip-path="url(#clip0_115_229)">
<path d="M14.1672 0.0082016H65.8338C73.6672 0.0082016 80.0005 6.5026 80.0005 14.5351V65.4649C80.0005 73.4974 73.6672 79.9918 65.8338 79.9918H14.1672C6.33382 79.9918 0.000488281 73.4974 0.000488281 65.4649V14.5351C0.000488281 6.5026 6.33382 0.0082016 14.1672 0.0082016Z" fill="#470137"/>
<path d="M42.0669 21.0295L32.0669 37.9491L42.7336 55.8942C42.8002 56.0309 42.8336 56.1676 42.8002 56.3043C42.7669 56.4411 42.6336 56.3385 42.4336 56.3727H34.8002C34.2669 56.3727 33.9002 56.3385 33.6669 55.9967C32.9669 54.5611 32.2336 53.1597 31.5336 51.7241C30.8336 50.3227 30.0669 48.8871 29.2669 47.4173C28.4669 45.9475 27.6669 44.4777 26.8669 42.9737H26.8002C26.1002 44.4435 25.3336 45.9133 24.5669 47.3831C23.8002 48.8529 23.0336 50.3227 22.3002 51.7583C21.5336 53.1939 20.7669 54.6637 20.0002 56.0651C19.8669 56.4069 19.6002 56.4411 19.2336 56.4411H11.9002C11.7669 56.4411 11.6669 56.5094 11.6669 56.3385C11.6336 56.2018 11.6669 56.0651 11.7336 55.9625L22.1002 38.5302L12.0002 20.9954C11.9002 20.8586 11.8669 20.7219 11.9336 20.6535C12.0002 20.551 12.1336 20.5168 12.2669 20.5168H19.8336C20.0002 20.5168 20.1669 20.551 20.3002 20.5852C20.4336 20.6535 20.5336 20.7561 20.6336 20.8928C21.2669 22.3626 22.0002 23.8324 22.7669 25.3022C23.5669 26.7719 24.3336 28.2075 25.1669 29.6431C25.9669 31.0788 26.7002 32.5144 27.4002 33.9841H27.4669C28.1669 32.4802 28.9002 31.0104 29.6336 29.5748C30.3669 28.1392 31.1336 26.7036 31.9002 25.268C32.6669 23.8324 33.4002 22.3626 34.1336 20.9612C34.1669 20.8244 34.2336 20.6877 34.3336 20.6194C34.4669 20.551 34.6002 20.5168 34.7669 20.551H41.8002C41.9669 20.5168 42.1336 20.6194 42.1669 20.7903C42.2002 20.8244 42.1336 20.9612 42.0669 21.0295ZM57.4669 57.0905C55.0002 57.1247 52.5336 56.612 50.3002 55.5524C48.2002 54.5611 46.4669 52.9204 45.2669 50.9037C44.0336 48.8187 43.4336 46.2209 43.4336 43.1105C43.4002 40.5811 44.0336 38.0859 45.2669 35.8983C46.5336 33.6765 48.3669 31.8307 50.5669 30.6002C52.9002 29.2672 55.7002 28.6177 59.0002 28.6177C59.1669 28.6177 59.4002 28.6177 59.7002 28.6519C60.0002 28.6861 60.3336 28.6861 60.7336 28.7203V17.9191C60.7336 17.6798 60.8336 17.5431 61.0669 17.5431H67.8336C68.0002 17.5089 68.1336 17.6456 68.1669 17.7823V50.391C68.1669 51.0063 68.2002 51.6899 68.2336 52.4419C68.3002 53.1597 68.3336 53.8433 68.3669 54.4244C68.3669 54.6637 68.2669 54.8687 68.0336 54.9713C66.3002 55.7233 64.4669 56.2702 62.6002 56.612C60.9002 56.9196 59.2002 57.0905 57.4669 57.0905ZM60.7336 50.2543V35.2147C60.4336 35.1463 60.1336 35.0779 59.8336 35.0438C59.4669 35.0096 59.1002 34.9754 58.7336 34.9754C57.4336 34.9754 56.1336 35.2488 54.9669 35.8641C53.8336 36.4452 52.8669 37.2997 52.1336 38.3935C51.4002 39.4873 51.0336 40.9571 51.0336 42.7345C51.0002 43.9308 51.2002 45.1272 51.6002 46.2551C51.9336 47.178 52.4336 47.9984 53.1002 48.682C53.7336 49.2972 54.5002 49.7758 55.3669 50.0492C56.2669 50.3568 57.2002 50.4936 58.1336 50.4936C58.6336 50.4936 59.1002 50.4594 59.5336 50.4252C59.9669 50.4594 60.3336 50.391 60.7336 50.2543Z" fill="#FF61F6"/>
</g>
<defs>
<clipPath id="clip0_115_229">
<rect width="80" height="80" fill="white"/>
</clipPath>
</defs>
</svg>
