<svg width="30" height="30" viewBox="0 0 30 30" fill="none" xmlns="../../external.html?link=http://www.w3.org/2000/svg">
<g clip-path="url(#clip0_94_940)">
<path d="M11.5056 16.9637C11.393 16.9637 8.91489 16.9637 7.78849 16.9637C7.18773 16.9637 7 16.7384 7 16.1752C7 14.6733 7 13.1339 7 11.632C7 11.0313 7.22528 10.8435 7.78849 10.8435H11.5056C11.5056 10.7309 11.5056 8.55318 11.5056 7.53942C11.5056 6.03754 11.7685 4.61075 12.5194 3.29661C13.3079 1.94492 14.4343 1.0438 15.8611 0.518139C16.7998 0.180217 17.7384 0.0300293 18.7522 0.0300293H22.4318C22.9574 0.0300293 23.1827 0.255311 23.1827 0.780968V5.06132C23.1827 5.58698 22.9574 5.81226 22.4318 5.81226C21.418 5.81226 20.4043 5.81226 19.3905 5.8498C18.3767 5.8498 17.8511 6.33791 17.8511 7.38923C17.8135 8.51564 17.8511 9.6045 17.8511 10.7685H22.2065C22.8073 10.7685 23.0325 10.9937 23.0325 11.5945V16.1377C23.0325 16.7384 22.8448 16.9261 22.2065 16.9261C20.8548 16.9261 17.9637 16.9261 17.8511 16.9261V29.1664C17.8511 29.8047 17.6633 30.03 16.9875 30.03C15.4105 30.03 13.8711 30.03 12.2941 30.03C11.7309 30.03 11.5056 29.8047 11.5056 29.2415C11.5056 25.2991 11.5056 17.0763 11.5056 16.9637Z" fill="#ff24Bd"/>
</g>
<defs>
<clipPath id="clip0_94_940">
<rect width="30" height="30" fill="white"/>
</clipPath>
</defs>
</svg>
