<svg width="20" height="20" viewBox="0 0 20 20" fill="none" xmlns="../../external.html?link=http://www.w3.org/2000/svg">
<g clip-path="url(#clip0_84_632)">
<path d="M6.08583 19.1436L6.08458 19.1434C5.99979 19.1262 5.93319 19.0592 5.91655 18.9733L2.86114 3.20058C2.8445 3.11466 2.88124 3.02765 2.95348 2.98007L2.95348 2.98007L2.95382 2.97985C3.02649 2.93182 3.12055 2.9322 3.19349 2.9811C3.19359 2.98117 3.1937 2.98124 3.1938 2.98131L16.09 11.7204L16.0904 11.7206C16.1629 11.7696 16.1985 11.8569 16.181 11.9422L16.1809 11.9428C16.1637 12.0276 16.0967 12.0942 16.0108 12.1108L10.3238 13.2125L10.2075 13.235L10.1416 13.3333L6.30676 19.0529C6.30671 19.053 6.30667 19.0531 6.30662 19.0531C6.27398 19.1013 6.22412 19.1333 6.16916 19.1439C6.14126 19.1493 6.11323 19.1493 6.08583 19.1436Z" fill="#007CE6" stroke="white" stroke-width="0.568864"/>
</g>
<defs>
<clipPath id="clip0_84_632">
<rect width="17.0659" height="17.0659" fill="white" transform="translate(0 3.24558) rotate(-10.9632)"/>
</clipPath>
</defs>
</svg>
