<?xml version="1.0" encoding="utf-8"?>
<!-- Generator: Adobe Illustrator 16.0.3, SVG Export Plug-In . SVG Version: 6.00 Build 0)  -->
<!DOCTYPE svg PUBLIC "-//W3C//DTD SVG 1.1//EN" "http://www.w3.org/Graphics/SVG/1.1/DTD/svg11.dtd">
<svg version="1.1" id="Capa_1" xmlns="http://www.w3.org/2000/svg" xmlns:xlink="http://www.w3.org/1999/xlink" x="0px" y="0px"
	 width="105px" height="110px" viewBox="0 0 105 110" enable-background="new 0 0 105 110" xml:space="preserve">
<g>
	<ellipse fill="#FFFFFF" cx="52.75" cy="55.75" rx="50.25" ry="49.5"/>
	<path fill="#FFB89A" d="M47.659,87.417h11.045c1.312,0,2.382,1.056,2.382,2.347v14.805c-2.713,0.447-5.496,0.683-8.336,0.683
		c-2.539,0-5.034-0.187-7.473-0.545V89.764C45.277,88.473,46.349,87.417,47.659,87.417z"/>
	<rect x="45.277" y="91.395" fill="#FF0613" width="15.809" height="1.258"/>
	<path d="M56.494,81.826v5.591h-6.626v-5.591c1.09,0.105,2.195,0.162,3.313,0.162C54.3,81.988,55.404,81.934,56.494,81.826
		L56.494,81.826z"/>
	<path fill="#FFB89A" stroke="#FF0613" stroke-width="0.5" stroke-miterlimit="10" d="M53.182,17.262
		c18.144,0,32.854,14.49,32.854,32.363c0,17.874-14.711,32.363-32.854,32.363c-18.146,0-32.854-14.489-32.854-32.363
		S35.036,17.262,53.182,17.262z M53.182,22.61c15.146,0,27.426,12.095,27.426,27.015S68.328,76.641,53.182,76.641
		S25.757,64.545,25.757,49.625S38.035,22.61,53.182,22.61z"/>
	<g>
		<path fill="#FF8409" d="M53.182,21.71c15.649,0,28.338,12.498,28.338,27.915S68.831,77.541,53.182,77.541
			c-15.651,0-28.339-12.499-28.339-27.916C24.843,34.209,37.531,21.71,53.182,21.71z M53.182,23.206
			c14.813,0,26.819,11.829,26.819,26.419c0,14.592-12.008,26.42-26.819,26.42c-14.813,0-26.82-11.828-26.82-26.42
			C26.361,35.035,38.369,23.206,53.182,23.206z"/>
		<path fill="#FF8409" d="M53.182,22.689c4.905,0,9.51,1.274,13.49,3.503c-3.423-1.551-7.23-2.417-11.246-2.417
			c-14.887,0-26.956,11.888-26.956,26.553c0,12.988,9.466,23.796,21.972,26.098C36.626,75.072,25.837,63.59,25.837,49.624
			C25.837,34.749,38.079,22.689,53.182,22.689z"/>
	</g>
	<path fill="#D1D2D4" d="M31.145,49.625c12.63-19.971,31.442-19.971,44.072,0C62.587,69.598,43.775,69.598,31.145,49.625z"/>
	<path fill="#FFFFFF" d="M31.145,49.625c12.63-18.311,31.442-18.311,44.072,0C62.587,67.938,43.775,67.938,31.145,49.625z"/>
	<ellipse fill="#21D0C3" cx="53.182" cy="49.625" rx="10.725" ry="10.564"/>
	<ellipse fill="#15BDB2" cx="53.182" cy="49.625" rx="7.493" ry="7.381"/>
	<ellipse fill="#666666" cx="53.182" cy="49.625" rx="3.896" ry="3.84"/>
	<g>
		<ellipse fill="#FFFFFF" cx="47.866" cy="45.281" rx="1.849" ry="1.821"/>
		<path fill="#FFFFFF" d="M56.402,51.566c0.695,0,1.261,0.554,1.261,1.24c0,0.684-0.563,1.239-1.261,1.239
			c-0.693,0-1.258-0.555-1.258-1.239C55.145,52.12,55.709,51.566,56.402,51.566z"/>
	</g>
	<rect x="45.277" y="93.771" fill="#FF0613" width="15.809" height="1.259"/>
</g>
</svg>
