<svg width="20" height="21" viewBox="0 0 20 21" fill="none" xmlns="../../external.html?link=http://www.w3.org/2000/svg">
<path d="M17.5001 9.66669H4.51181L8.92265 5.25586C9.00224 5.17899 9.06572 5.08703 9.1094 4.98536C9.15307 4.88369 9.17606 4.77434 9.17702 4.66369C9.17798 4.55305 9.1569 4.44331 9.115 4.3409C9.0731 4.23848 9.01122 4.14544 8.93298 4.0672C8.85473 3.98895 8.76169 3.92708 8.65928 3.88518C8.55686 3.84327 8.44713 3.82219 8.33648 3.82315C8.22583 3.82411 8.11648 3.8471 8.01481 3.89078C7.91314 3.93445 7.82119 3.99794 7.74431 4.07753L1.91098 9.91086C1.75475 10.0671 1.66699 10.2791 1.66699 10.5C1.66699 10.721 1.75475 10.9329 1.91098 11.0892L7.74431 16.9225C7.90148 17.0743 8.11198 17.1583 8.33048 17.1564C8.54898 17.1545 8.75799 17.0669 8.9125 16.9124C9.067 16.7579 9.15464 16.5489 9.15654 16.3304C9.15844 16.1119 9.07445 15.9014 8.92265 15.7442L4.51181 11.3334H17.5001C17.7212 11.3334 17.9331 11.2456 18.0894 11.0893C18.2457 10.933 18.3335 10.721 18.3335 10.5C18.3335 10.279 18.2457 10.0671 18.0894 9.91077C17.9331 9.75449 17.7212 9.66669 17.5001 9.66669Z" fill="white"/>
</svg>
