<svg width="55" height="80" viewBox="0 0 55 80" fill="none" xmlns="../../external.html?link=http://www.w3.org/2000/svg">
<path d="M27.4849 40.0151C27.4849 32.6654 33.4433 26.6768 40.8232 26.6768C48.1729 26.6768 54.1616 32.6352 54.1616 40.0151C54.1616 47.3648 48.2032 53.3535 40.8232 53.3535C33.4735 53.3535 27.4849 47.3648 27.4849 40.0151Z" fill="#1ABCFE"/>
<path d="M0.838379 66.6616C0.838379 59.3119 6.79679 53.3232 14.1767 53.3232H27.5151V66.6616C27.5151 74.0113 21.5567 80 14.1767 80C6.79679 80 0.838379 74.0416 0.838379 66.6616Z" fill="#0ACF83"/>
<path d="M27.4849 0.0302457V26.6767H40.8232C48.1729 26.6767 54.1616 20.7183 54.1616 13.3384C54.1616 5.98866 48.2032 0 40.8232 0H27.4849V0.0302457Z" fill="#FF7262"/>
<path d="M0.838379 13.3686C0.838379 20.7183 6.79679 26.707 14.1767 26.707H27.5151V0.0302467H14.1767C6.79679 0.0302467 0.838379 5.98866 0.838379 13.3686Z" fill="#F24E1E"/>
<path d="M0.838379 40.0151C0.838379 47.3648 6.79679 53.3535 14.1767 53.3535H27.5151V26.6768H14.1767C6.79679 26.6768 0.838379 32.6654 0.838379 40.0151Z" fill="#A259FF"/>
</svg>
