<svg width="61" height="60" viewBox="0 0 61 60" fill="none" xmlns="../../external.html?link=http://www.w3.org/2000/svg">
<path d="M54.875 39.8966V20.1034C55.9905 19.4527 56.75 18.2564 56.75 16.875C56.75 14.8077 55.0682 13.125 53 13.125C52.1478 13.125 51.3702 13.4217 50.7399 13.9024L34.2006 7.01099C33.9578 5.17616 32.4006 3.75 30.5 3.75C28.5994 3.75 27.0422 5.17616 26.7994 7.01099L10.2601 13.9024C9.62975 13.4217 8.85224 13.125 8 13.125C5.93182 13.125 4.25 14.8077 4.25 16.875C4.25 18.2564 5.00954 19.4527 6.125 20.1034V39.8966C5.00954 40.5473 4.25 41.7436 4.25 43.125C4.25 45.1923 5.93182 46.875 8 46.875C8.85224 46.875 9.62975 46.5783 10.2601 46.0976L26.7994 52.989C27.0422 54.8238 28.5994 56.25 30.5 56.25C32.4006 56.25 33.9578 54.8238 34.2006 52.989L50.7399 46.0976C51.3702 46.5783 52.1478 46.875 53 46.875C55.0682 46.875 56.75 45.1923 56.75 43.125C56.75 41.7436 55.9905 40.5473 54.875 39.8966ZM49.2996 42.6351L32.7602 49.5275C32.1298 49.0467 31.3522 48.75 30.5 48.75C29.6478 48.75 28.8702 49.0467 28.2398 49.5275L11.7004 42.6351C11.5453 41.4631 10.855 40.4684 9.875 39.8966V20.1034C10.855 19.5316 11.5453 18.5369 11.7004 17.3649L28.2398 10.4725C28.8702 10.9533 29.6478 11.25 30.5 11.25C31.3522 11.25 32.1298 10.9533 32.7602 10.4725L49.2996 17.3649C49.4547 18.5369 50.145 19.5316 51.125 20.1034V39.8966C50.145 40.4684 49.4547 41.4631 49.2996 42.6351Z" fill="#FF24BD"/>
<path d="M31.4375 28.7345V45L44.3629 39.223C45.0532 38.9282 45.5 38.2498 45.5 37.5V22.5C45.5 22.495 45.4978 22.4905 45.4978 22.4855L31.4375 28.7345Z" fill="#FF24BD"/>
<path d="M31.2377 15.1519C30.769 14.9487 30.2306 14.9487 29.7619 15.1519C29.7619 15.1519 16.5379 20.8414 16.4854 20.8701L30.4998 27.0987L44.5142 20.8701C44.4617 20.8414 31.2377 15.1519 31.2377 15.1519Z" fill="#FF24BD"/>
<path d="M15.5 22.5V37.5C15.5 38.2498 15.9468 38.9282 16.6371 39.223L29.5625 45V28.7345L15.5022 22.4855C15.5022 22.4905 15.5 22.495 15.5 22.5Z" fill="#FF24BD"/>
</svg>
