<svg width="20" height="20" viewBox="0 0 20 20" fill="none" xmlns="../../external.html?link=http://www.w3.org/2000/svg">
<g clip-path="url(#clip0_84_625)">
<path d="M13.9142 19.1436L13.9154 19.1434C14.0002 19.1262 14.0668 19.0592 14.0834 18.9733L17.1389 3.20058C17.1555 3.11466 17.1188 3.02766 17.0465 2.98007L17.0465 2.98007L17.0462 2.97985C16.9735 2.93182 16.8794 2.9322 16.8065 2.9811C16.8064 2.98117 16.8063 2.98124 16.8062 2.98131L3.90997 11.7204L3.90961 11.7206C3.8371 11.7696 3.80153 11.8569 3.81901 11.9422L3.81913 11.9428C3.83631 12.0276 3.90332 12.0942 3.98922 12.1108L9.67625 13.2125L9.79247 13.235L9.8584 13.3333L13.6932 19.0529C13.6933 19.053 13.6933 19.0531 13.6934 19.0532C13.726 19.1013 13.7759 19.1333 13.8308 19.1439C13.8587 19.1493 13.8868 19.1493 13.9142 19.1436Z" fill="#FF24BD" stroke="white" stroke-width="0.568864"/>
</g>
<defs>
<clipPath id="clip0_84_625">
<rect width="17.0659" height="17.0659" fill="white" transform="matrix(-0.98175 -0.190179 -0.19018 0.981749 20 3.24557)"/>
</clipPath>
</defs>
</svg>
