<svg width="70" height="70" viewBox="0 0 70 70" fill="none" xmlns="../../external.html?link=http://www.w3.org/2000/svg">
<g clip-path="url(#clip0_123_2245)">
<path d="M45.873 36.9349C45.7134 36.7763 45.543 36.6418 45.3834 36.4832C45.5816 36.4281 45.7905 36.349 46.0235 36.2807" stroke="black" stroke-width="0.526614" stroke-linecap="round" stroke-linejoin="round"/>
<path d="M47.2562 35.854C50.9716 34.4673 55.767 32.0943 57.8799 28.3678C59.1455 26.1367 59.3427 23.7129 58.4978 21.1659C57.6841 18.8063 56.2841 17.1066 54.4117 16.2626C51.9872 15.1698 49.0227 15.5954 46.0082 17.4136" stroke="black" stroke-width="0.526614" stroke-linecap="round" stroke-linejoin="round" stroke-dasharray="1.31 1.31"/>
<path d="M45.4439 17.7662C45.2722 17.891 45.0764 18.0049 44.9046 18.1297C44.8086 18.0864 44.6994 18.0083 44.5794 17.9542C44.4834 17.9109 44.3874 17.8676 44.3153 17.8352" stroke="black" stroke-width="0.526614" stroke-linecap="round" stroke-linejoin="round"/>
<path d="M43.0818 17.6255C41.4887 17.5717 39.9334 18.4591 39.2409 19.9954C38.9596 20.6196 38.8571 21.2954 38.9071 21.9534" stroke="black" stroke-width="0.526614" stroke-linecap="round" stroke-linejoin="round" stroke-dasharray="1.24 1.24"/>
<path d="M39.0143 22.5501C39.0586 22.7723 39.1377 22.9812 39.2168 23.1902C39.1688 23.1685 39.1208 23.1469 39.0488 23.1144C38.8807 23.0387 38.7259 22.9978 38.595 22.9677" stroke="black" stroke-width="0.526614" stroke-linecap="round" stroke-linejoin="round"/>
<path d="M37.6994 22.9683C37.5013 23.0234 37.2815 23.1266 37.0965 23.2165C36.9802 22.9619 36.8531 22.7313 36.7368 22.4767C36.8714 22.3063 36.982 22.1251 37.1033 21.9199" stroke="black" stroke-width="0.526614" stroke-linecap="round" stroke-linejoin="round"/>
<path d="M37.5182 20.8072C37.9047 18.9885 37.0031 17.0802 35.2267 16.2796C34.8426 16.1064 34.4609 15.9922 34.0707 15.9607" stroke="black" stroke-width="0.526614" stroke-linecap="round" stroke-linejoin="round" stroke-dasharray="1.21 1.21"/>
<path d="M33.4692 15.9495C33.2339 15.959 33.0226 15.9793 32.8245 16.0344C32.6997 15.8626 32.5509 15.68 32.4262 15.5083" stroke="black" stroke-width="0.526614" stroke-linecap="round" stroke-linejoin="round"/>
<path d="M31.5467 14.4476C30.0267 12.6938 28.4691 11.4719 26.9328 10.7794C24.5563 9.70822 22.1598 9.89883 19.9523 11.2721C16.9881 13.1708 16.2939 15.5439 16.2557 17.2307C16.0797 22.2346 21.1439 27.7232 24.8853 31.0847" stroke="black" stroke-width="0.526614" stroke-linecap="round" stroke-linejoin="round" stroke-dasharray="1.36 1.36"/>
<path d="M25.3989 31.5472C25.5693 31.6818 25.7289 31.8404 25.8993 31.975C25.7012 32.0301 25.479 32.0743 25.2701 32.1535" stroke="black" stroke-width="0.526614" stroke-linecap="round" stroke-linejoin="round"/>
<path d="M23.9872 32.4997C20.2971 33.6379 15.6556 35.7337 13.233 39.3783C11.5566 41.9441 11.167 44.8589 12.0859 48.0746C12.7999 50.5914 14.3858 52.5193 16.5703 53.504C19.8109 54.9647 24.9978 54.4144 30.1624 48.9154" stroke="black" stroke-width="0.526614" stroke-linecap="round" stroke-linejoin="round" stroke-dasharray="1.33 1.33"/>
<path d="M30.6031 48.4498C30.7377 48.2794 30.8963 48.1198 31.0308 47.9494C31.1904 48.108 31.3716 48.2185 31.5528 48.3291" stroke="black" stroke-width="0.526614" stroke-linecap="round" stroke-linejoin="round"/>
<path d="M32.7304 48.6C32.9308 48.6037 33.153 48.5594 33.3859 48.4911C33.4759 48.6761 33.5898 48.8718 33.7037 49.0676" stroke="black" stroke-width="0.526614" stroke-linecap="round" stroke-linejoin="round"/>
<path d="M34.3263 50.1857C36.3135 53.5942 38.9131 56.9898 42.0097 58.3856C44.1701 59.3594 47.4511 59.7697 50.8653 56.1676C52.7767 54.1699 53.6257 51.8377 53.4017 49.1951C53.0167 44.6026 49.2545 40.1341 46.3256 37.341" stroke="black" stroke-width="0.526614" stroke-linecap="round" stroke-linejoin="round" stroke-dasharray="1.28 1.28"/>
<path d="M38.203 29.9247C38.203 29.9247 29.991 6.81455 20.833 12.6509C10.755 19.0545 29.6483 32.8849 29.6483 32.8849C29.6483 32.8849 10.1746 35.4 13.6607 47.6577C16.1093 56.3862 30.6561 55.3182 38.203 29.9247Z" fill="#FF24BD" stroke="black" stroke-width="0.658267" stroke-miterlimit="10" stroke-linecap="round" stroke-linejoin="round"/>
<path d="M32.8141 43.3522C32.8141 43.3522 40.8125 64.3733 49.6893 55.0599C57.3239 47.0928 41.9468 35.7138 41.9468 35.7138C41.9468 35.7138 60.4596 31.8702 56.9626 21.6872C53.4765 11.4801 38.3097 19.1136 32.8141 43.3522Z" fill="#FAFF00" stroke="black" stroke-width="0.658267" stroke-miterlimit="10" stroke-linecap="round" stroke-linejoin="round"/>
<path d="M35.4855 21.437C36.291 20.387 36.0929 18.8828 35.0429 18.0773C33.9929 17.2718 32.4887 17.4699 31.6832 18.5199C30.8776 19.5699 31.0758 21.0741 32.1258 21.8796C33.1758 22.6852 34.68 22.487 35.4855 21.437Z" fill="#2A282D" stroke="black" stroke-width="0.658267" stroke-miterlimit="10" stroke-linecap="round" stroke-linejoin="round"/>
<path d="M45.1219 22.6463C44.57 23.8706 43.153 24.3872 41.9528 23.8462C40.7526 23.3052 40.212 21.8773 40.753 20.6771C41.294 19.4768 42.7218 18.9363 43.922 19.4773C45.1331 19.9943 45.6737 21.4221 45.1219 22.6463Z" fill="#2A282D" stroke="black" stroke-width="0.658267" stroke-miterlimit="10" stroke-linecap="round" stroke-linejoin="round"/>
<path d="M34.9399 47.5448L36.84 48.1991" stroke="black" stroke-width="0.658267" stroke-miterlimit="10" stroke-linecap="round" stroke-linejoin="round"/>
<path d="M34.6357 45.8482L37.1938 46.4525" stroke="black" stroke-width="0.658267" stroke-miterlimit="10" stroke-linecap="round" stroke-linejoin="round"/>
<path d="M34.9814 44.1843L37.5395 44.7886" stroke="black" stroke-width="0.658267" stroke-miterlimit="10" stroke-linecap="round" stroke-linejoin="round"/>
<path d="M35.3594 42.4486L37.9174 43.0529" stroke="black" stroke-width="0.658267" stroke-miterlimit="10" stroke-linecap="round" stroke-linejoin="round"/>
<path d="M35.7134 40.702L38.2847 41.3411" stroke="black" stroke-width="0.658267" stroke-miterlimit="10" stroke-linecap="round" stroke-linejoin="round"/>
<path d="M36.0806 38.9901L38.6386 39.5944" stroke="black" stroke-width="0.658267" stroke-miterlimit="10" stroke-linecap="round" stroke-linejoin="round"/>
<path d="M36.459 37.2543L39.017 37.8586" stroke="black" stroke-width="0.658267" stroke-miterlimit="10" stroke-linecap="round" stroke-linejoin="round"/>
<path d="M36.8047 35.5906L39.3627 36.1949" stroke="black" stroke-width="0.658267" stroke-miterlimit="10" stroke-linecap="round" stroke-linejoin="round"/>
<path d="M37.1474 33.868L39.7055 34.4723" stroke="black" stroke-width="0.658267" stroke-miterlimit="10" stroke-linecap="round" stroke-linejoin="round"/>
<path d="M37.5259 32.1322L40.0839 32.7365" stroke="black" stroke-width="0.658267" stroke-miterlimit="10" stroke-linecap="round" stroke-linejoin="round"/>
<path d="M37.8799 30.3856L40.4379 30.9899" stroke="black" stroke-width="0.658267" stroke-miterlimit="10" stroke-linecap="round" stroke-linejoin="round"/>
<path d="M38.2471 28.6738L40.8051 29.278" stroke="black" stroke-width="0.658267" stroke-miterlimit="10" stroke-linecap="round" stroke-linejoin="round"/>
<path d="M38.5928 27.01L41.1508 27.6143" stroke="black" stroke-width="0.658267" stroke-miterlimit="10" stroke-linecap="round" stroke-linejoin="round"/>
<path d="M40.1459 25.4862L41.5047 25.8676" stroke="black" stroke-width="0.658267" stroke-miterlimit="10" stroke-linecap="round" stroke-linejoin="round"/>
<path d="M30.5448 44.9284L32.4557 45.5587" stroke="black" stroke-width="0.658267" stroke-miterlimit="10" stroke-linecap="round" stroke-linejoin="round"/>
<path d="M30.2524 43.2077L32.8105 43.812" stroke="black" stroke-width="0.658267" stroke-miterlimit="10" stroke-linecap="round" stroke-linejoin="round"/>
<path d="M30.5972 41.544L33.1792 42.159" stroke="black" stroke-width="0.658267" stroke-miterlimit="10" stroke-linecap="round" stroke-linejoin="round"/>
<path d="M30.9648 39.8322L33.5229 40.4365" stroke="black" stroke-width="0.658267" stroke-miterlimit="10" stroke-linecap="round" stroke-linejoin="round"/>
<path d="M31.3428 38.0964L33.9008 38.7007" stroke="black" stroke-width="0.658267" stroke-miterlimit="10" stroke-linecap="round" stroke-linejoin="round"/>
<path d="M31.6968 36.3498L34.2441 36.978" stroke="black" stroke-width="0.658267" stroke-miterlimit="10" stroke-linecap="round" stroke-linejoin="round"/>
<path d="M32.064 34.6379L34.622 35.2422" stroke="black" stroke-width="0.658267" stroke-miterlimit="10" stroke-linecap="round" stroke-linejoin="round"/>
<path d="M32.4101 32.9742L34.9682 33.5784" stroke="black" stroke-width="0.658267" stroke-miterlimit="10" stroke-linecap="round" stroke-linejoin="round"/>
<path d="M32.7641 31.2275L35.3222 31.8318" stroke="black" stroke-width="0.658267" stroke-miterlimit="10" stroke-linecap="round" stroke-linejoin="round"/>
<path d="M33.1422 29.4917L35.6894 30.12" stroke="black" stroke-width="0.658267" stroke-miterlimit="10" stroke-linecap="round" stroke-linejoin="round"/>
<path d="M33.4848 27.7692L36.0429 28.3734" stroke="black" stroke-width="0.658267" stroke-miterlimit="10" stroke-linecap="round" stroke-linejoin="round"/>
<path d="M33.8628 26.0334L36.4208 26.6376" stroke="black" stroke-width="0.658267" stroke-miterlimit="10" stroke-linecap="round" stroke-linejoin="round"/>
<path d="M34.2084 24.3695L35.8205 24.894" stroke="black" stroke-width="0.658267" stroke-miterlimit="10" stroke-linecap="round" stroke-linejoin="round"/>
<path d="M36.6588 26.1095C36.6588 26.1095 29.3255 45.9674 32.4404 46.9381C35.5312 47.8981 38.9758 28.338 38.9758 28.338C38.9758 28.338 39.4818 21.5767 36.6588 26.1095Z" fill="#2A282D" stroke="black" stroke-width="0.658267" stroke-miterlimit="10" stroke-linecap="round" stroke-linejoin="round"/>
</g>
<defs>
<clipPath id="clip0_123_2245">
<rect width="52.3454" height="53.188" fill="white" transform="translate(21.8564) rotate(24.2632)"/>
</clipPath>
</defs>
</svg>
