<svg width="101" height="69" viewBox="0 0 101 69" fill="none" xmlns="../../external.html?link=http://www.w3.org/2000/svg">
<path opacity="0.7" d="M9.57337 61.6445C20.9514 72.9096 37.9733 69.8845 47.5904 54.917C57.185 39.9043 55.7627 18.6383 44.3847 7.37314C33.0292 -3.86943 16.0299 -0.844318 6.41281 14.1458C-3.2269 29.1359 -1.78207 50.4245 9.57337 61.6445Z" fill="#FF8409"/>
<path opacity="0.7" d="M56.3267 58.9127C67.7048 70.1778 84.7266 67.1527 94.3438 52.1852C103.938 37.1726 102.516 18.3898 91.138 7.12467C79.7826 -4.1179 62.7833 -1.09279 53.1436 13.8973C43.549 28.8874 44.9713 47.6701 56.3267 58.9127Z" fill="#FF8409"/>
<path d="M96.3787 36.4497C95.7917 47.918 86.0166 56.7225 74.5708 56.1355C63.1251 55.5485 54.3206 45.7734 54.9076 34.3051C55.4946 22.8367 65.2697 14.0323 76.7155 14.6193C88.1612 15.2288 96.9656 25.004 96.3787 36.4497Z" fill="url(#paint0_radial_126_2416)"/>
<path d="M86.9414 41.3714C86.6027 48.0538 80.8912 53.201 74.2088 52.8623C67.5265 52.5237 62.3793 46.8121 62.7179 40.1298C63.0566 33.4475 68.7682 28.3003 75.4505 28.6389C82.1328 28.9775 87.28 34.6891 86.9414 41.3714Z" fill="url(#paint1_radial_126_2416)"/>
<path d="M82.4478 41.1459C82.2221 45.3675 78.6326 48.5958 74.4335 48.3701C70.2119 48.1443 66.9836 44.5548 67.2094 40.3558C67.4352 36.1342 71.0246 32.9059 75.2237 33.1316C79.4227 33.3348 82.6736 36.9243 82.4478 41.1459Z" fill="black"/>
<path opacity="0.6" d="M80.011 38.8654C79.8755 41.6196 77.5277 43.7417 74.7509 43.6062C71.9967 43.4708 69.8746 41.1229 70.01 38.3462C70.1455 35.592 72.4933 33.4699 75.2701 33.6053C78.0243 33.7634 80.1464 36.1112 80.011 38.8654Z" fill="url(#paint2_linear_126_2416)"/>
<path d="M46.8702 34.1019C48.157 44.5769 40.7297 54.1038 30.2547 55.3906C19.8023 56.6774 10.2754 49.2275 8.98863 38.7525C7.70183 28.2775 15.1291 18.7506 25.6041 17.4639C36.0791 16.1771 45.5834 23.6269 46.8702 34.1019Z" fill="url(#paint3_radial_126_2416)"/>
<path d="M39.1271 40.0393C39.8721 46.1573 35.5376 51.7108 29.4197 52.4558C23.3018 53.2008 17.7482 48.8663 17.0032 42.7484C16.2582 36.6305 20.5927 31.0769 26.7107 30.3319C32.806 29.5869 38.3821 33.944 39.1271 40.0393Z" fill="url(#paint4_radial_126_2416)"/>
<path d="M35.0186 40.5584C35.4927 44.3962 32.7611 47.8954 28.9007 48.3695C25.0629 48.8435 21.5637 46.1119 21.0896 42.2515C20.6155 38.4137 23.3471 34.9145 27.2075 34.4404C31.0454 33.9663 34.5671 36.698 35.0186 40.5584Z" fill="black"/>
<path opacity="0.6" d="M32.4669 38.9784C32.783 41.5069 30.977 43.787 28.4711 44.1031C25.9426 44.4191 23.6625 42.6131 23.3465 40.1072C23.0304 37.5788 24.8364 35.2986 27.3423 34.9826C29.8708 34.6891 32.1735 36.4726 32.4669 38.9784Z" fill="url(#paint5_linear_126_2416)"/>
<path opacity="0.6" d="M32.4669 38.9784C32.783 41.5069 30.977 43.787 28.4711 44.1031C25.9426 44.4191 23.6625 42.6131 23.3465 40.1072C23.0304 37.5788 24.8364 35.2986 27.3423 34.9826C29.8708 34.6891 32.1735 36.4726 32.4669 38.9784Z" fill="black" fill-opacity="0.7"/>
<path opacity="0.6" d="M79.9657 37.985C80.3043 40.7166 78.3628 43.2225 75.6086 43.5611C72.877 43.8998 70.3711 41.9583 70.0325 39.2041C69.6939 36.4724 71.6353 33.9666 74.3896 33.6279C77.1438 33.3119 79.627 35.2534 79.9657 37.985Z" fill="black" fill-opacity="0.7"/>
<defs>
<radialGradient id="paint0_radial_126_2416" cx="0" cy="0" r="1" gradientUnits="userSpaceOnUse" gradientTransform="translate(75.2931 34.4147) rotate(2.96912) scale(28.5738 23.8301)">
<stop offset="0.3258" stop-color="white"/>
<stop offset="0.4351" stop-color="#F7FCF9"/>
<stop offset="0.8743" stop-color="#DCF3E2"/>
</radialGradient>
<radialGradient id="paint1_radial_126_2416" cx="0" cy="0" r="1" gradientUnits="userSpaceOnUse" gradientTransform="translate(75.0415 36.5484) rotate(2.96912) scale(16.1449 16.1449)">
<stop stop-color="#40B9C7"/>
<stop offset="0.1701" stop-color="#40B5C3"/>
<stop offset="0.352" stop-color="#3FA8B8"/>
<stop offset="0.5396" stop-color="#3E92A5"/>
<stop offset="0.7309" stop-color="#3C748B"/>
<stop offset="0.9233" stop-color="#3A4E69"/>
<stop offset="1" stop-color="#393D5A"/>
</radialGradient>
<linearGradient id="paint2_linear_126_2416" x1="75.6882" y1="25.5314" x2="74.7559" y2="43.5063" gradientUnits="userSpaceOnUse">
<stop offset="0.0507944" stop-color="white"/>
<stop offset="0.3965" stop-color="#979797"/>
<stop offset="0.6913" stop-color="#464646"/>
<stop offset="0.8984" stop-color="#131313"/>
<stop offset="1"/>
</linearGradient>
<radialGradient id="paint3_radial_126_2416" cx="0" cy="0" r="1" gradientUnits="userSpaceOnUse" gradientTransform="translate(27.4817 35.5992) rotate(-6.99568) scale(26.2527 21.8941)">
<stop offset="0.3258" stop-color="white"/>
<stop offset="0.4351" stop-color="#F7FCF9"/>
<stop offset="0.8743" stop-color="#DCF3E2"/>
</radialGradient>
<radialGradient id="paint4_radial_126_2416" cx="0" cy="0" r="1" gradientUnits="userSpaceOnUse" gradientTransform="translate(27.5939 37.5696) rotate(-6.99568) scale(14.8333 14.8333)">
<stop stop-color="#40B9C7"/>
<stop offset="0.1701" stop-color="#40B5C3"/>
<stop offset="0.352" stop-color="#3FA8B8"/>
<stop offset="0.5396" stop-color="#3E92A5"/>
<stop offset="0.7309" stop-color="#3C748B"/>
<stop offset="0.9233" stop-color="#3A4E69"/>
<stop offset="1" stop-color="#393D5A"/>
</radialGradient>
<linearGradient id="paint5_linear_126_2416" x1="26.4512" y1="27.613" x2="28.4653" y2="44.0266" gradientUnits="userSpaceOnUse">
<stop offset="0.0507944" stop-color="white"/>
<stop offset="0.3965" stop-color="#979797"/>
<stop offset="0.6913" stop-color="#464646"/>
<stop offset="0.8984" stop-color="#131313"/>
<stop offset="1"/>
</linearGradient>
</defs>
</svg>
