<svg width="16" height="20" viewBox="0 0 16 20" fill="none" xmlns="../../external.html?link=http://www.w3.org/2000/svg">
<path d="M11.9137 19.1437L11.9149 19.1434C11.9997 19.1262 12.0663 19.0592 12.083 18.9733L15.1384 3.2006C15.155 3.11468 15.1183 3.02767 15.046 2.98008L15.046 2.98008L15.0457 2.97986C14.973 2.93184 14.879 2.93221 14.806 2.98111C14.8059 2.98118 14.8058 2.98125 14.8057 2.98132L1.90948 11.7204L1.90912 11.7206C1.83661 11.7696 1.80104 11.8569 1.81852 11.9422L1.81864 11.9428C1.83582 12.0276 1.90283 12.0942 1.98873 12.1108L7.67576 13.2125L7.79198 13.235L7.85791 13.3333L11.6928 19.053C11.6928 19.053 11.6928 19.0531 11.6929 19.0532C11.7255 19.1014 11.7754 19.1333 11.8304 19.1439C11.8583 19.1493 11.8863 19.1493 11.9137 19.1437Z" fill="#2BAA65" stroke="white" stroke-width="0.568864"/>
</svg>
