<?xml version="1.0" encoding="utf-8"?>
<!-- Generator: Adobe Illustrator 16.0.3, SVG Export Plug-In . SVG Version: 6.00 Build 0)  -->
<!DOCTYPE svg PUBLIC "-//W3C//DTD SVG 1.1//EN" "http://www.w3.org/Graphics/SVG/1.1/DTD/svg11.dtd">
<svg version="1.1" id="Layer_1" xmlns="http://www.w3.org/2000/svg" xmlns:xlink="http://www.w3.org/1999/xlink" x="0px" y="0px"
	 width="595.279px" height="841.891px" viewBox="0 0 595.279 841.891" enable-background="new 0 0 595.279 841.891"
	 xml:space="preserve">
<g>
	<g>
		<g>
			<path fill="#010002" d="M122.201,406.479c26.886,2.416,94.688-6.375,107.675-18.797l0.002,0.002
				c0.011-0.009,0.019-0.022,0.028-0.029c0.007-0.008,0.021-0.015,0.026-0.022l-0.002-0.002
				c12.827-12.583,21.904-78.257,19.406-104.297c-0.583-6.008-1.831-10.526-3.946-12.575c-1.288-1.248-41.874-28.55-41.874-28.55
				l-2.25,8.966l-22.211,87.23l-90.056,21.513l-9.254,2.18c0,0,28.185,39.311,29.473,40.561
				C111.335,404.705,116.002,405.912,122.201,406.479z"/>
			<polygon fill="#010002" points="212.432,182.445 74.714,237.312 18.067,370.711 171.445,331.013 			"/>
			<polygon fill="#010002" points="10.14,465.728 18.067,484.312 25.994,465.728 18.067,372.068 			"/>
			<path fill="#010002" d="M267.332,282.447c0.088,0.902,0.161,1.843,0.224,2.818h256.57l-0.134,204.031H152.014l0.041-66.154
				c-6.488,0.448-12.659,0.692-18.18,0.692c-4.401,0-8.366-0.156-11.794-0.454v91.671h432.122V259.463H258.097
				c0.171,0.151,0.303,0.279,0.432,0.402C263.508,264.69,266.305,271.867,267.332,282.447z"/>
			<polygon fill="#010002" points="94.251,613.769 583.136,613.769 587.222,602.348 89.807,602.348 			"/>
			<path fill="#010002" d="M553.687,524.16H121.661l-32.773,70.456H588.14L553.687,524.16z M312.368,588.424l4.625-16.742h33.136
				l4.622,16.742H312.368z M121.899,566.68l13.044-28.043h402.156l9.769,28.043H121.899z"/>
		</g>
	</g>
</g>
</svg>
