<?xml version="1.0" encoding="utf-8"?>
<!-- Generator: Adobe Illustrator 16.0.3, SVG Export Plug-In . SVG Version: 6.00 Build 0)  -->
<!DOCTYPE svg PUBLIC "-//W3C//DTD SVG 1.1//EN" "http://www.w3.org/Graphics/SVG/1.1/DTD/svg11.dtd">
<svg version="1.1" id="Layer_1" xmlns="http://www.w3.org/2000/svg" xmlns:xlink="http://www.w3.org/1999/xlink" x="0px" y="0px"
	 width="595.279px" height="841.891px" viewBox="0 0 595.279 841.891" enable-background="new 0 0 595.279 841.891"
	 xml:space="preserve">
<path fill="#FF24BD" d="M928.688,354.101h-17.837l-2.898,8.473h-9.475l16.052-44.813h10.479l16.052,44.813h-9.476L928.688,354.101z
	 M926.235,346.967l-6.466-18.729l-6.465,18.729H926.235z"/>
<path fill="#FF24BD" d="M978.071,327.124v35.561h-9.029v-4.459c-1.114,1.561-2.675,2.787-4.57,3.679
	c-1.783,0.892-3.79,1.338-6.02,1.338c-2.787,0-5.239-0.558-7.357-1.784c-2.118-1.226-3.79-2.898-5.017-5.239
	s-1.783-5.017-1.783-8.249v-20.846h8.918v19.508c0,2.787,0.669,5.017,2.118,6.577c1.449,1.449,3.344,2.229,5.796,2.229
	c2.453,0,4.46-0.78,5.797-2.229c1.449-1.561,2.118-3.679,2.118-6.577v-19.508H978.071z"/>
<path fill="#FF24BD" d="M994.792,334.481v17.167c0,1.227,0.223,2.118,0.78,2.676c0.558,0.557,1.561,0.78,2.898,0.78h4.125v7.58
	h-5.686c-7.58,0-11.37-3.679-11.37-11.036v-17.167h-4.236v-7.357h4.236v-8.807h9.029v8.807h7.915v7.357H994.792z"/>
<path fill="#FF24BD" d="M1022.439,363.242c-3.456,0-6.466-0.78-9.253-2.229c-2.787-1.561-4.905-3.679-6.466-6.466
	s-2.341-6.02-2.341-9.587c0-3.679,0.78-6.8,2.341-9.587c1.673-2.787,3.79-4.905,6.577-6.354c2.787-1.561,5.908-2.341,9.253-2.341
	c3.455,0,6.465,0.78,9.252,2.341c2.787,1.449,4.905,3.679,6.577,6.354c1.672,2.787,2.452,6.02,2.452,9.587
	c0,3.679-0.78,6.8-2.452,9.587s-3.79,4.905-6.688,6.466C1029.015,362.462,1025.894,363.242,1022.439,363.242z M1022.439,355.438
	c1.672,0,3.121-0.334,4.57-1.114s2.563-2.007,3.455-3.567s1.227-3.456,1.227-5.797c0-3.345-0.892-5.908-2.676-7.804
	c-1.783-1.783-3.901-2.786-6.465-2.786c-2.564,0-4.683,0.892-6.466,2.786c-1.672,1.784-2.563,4.348-2.563,7.804
	s0.78,6.02,2.452,7.804C1017.756,354.547,1019.874,355.438,1022.439,355.438z"/>
<path fill="#FF24BD" d="M1089.101,326.566c4.348,0,7.914,1.338,10.479,4.013c2.676,2.676,4.013,6.354,4.013,11.148v20.846h-8.918
	v-19.62c0-2.787-0.669-4.904-2.118-6.354s-3.344-2.229-5.796-2.229c-2.453,0-4.348,0.78-5.797,2.229s-2.118,3.566-2.118,6.354v19.62
	h-9.029v-19.62c0-2.787-0.669-4.904-2.118-6.354s-3.345-2.229-5.797-2.229s-4.459,0.78-5.908,2.229s-2.118,3.566-2.118,6.354v19.62
	h-8.918v-35.449h8.918v4.348c1.115-1.449,2.676-2.676,4.459-3.567s3.79-1.227,6.02-1.227c2.787,0,5.239,0.558,7.469,1.784
	c2.229,1.114,3.902,2.786,5.017,5.016c1.115-2.006,2.787-3.679,5.017-4.904C1084.084,327.235,1086.536,326.566,1089.101,326.566z"/>
<path fill="#FF24BD" d="M1107.271,344.737c0-3.567,0.669-6.801,2.118-9.587c1.449-2.787,3.345-4.905,5.797-6.354
	s5.239-2.229,8.249-2.229c2.676,0,4.905,0.558,6.912,1.561c2.006,1.115,3.567,2.452,4.793,4.014v-5.017h9.029v35.561h-9.029v-5.239
	c-1.114,1.672-2.787,3.01-4.793,4.124c-2.007,1.115-4.348,1.562-7.023,1.562c-3.01,0-5.686-0.78-8.249-2.342
	c-2.452-1.561-4.348-3.679-5.797-6.465C1107.94,351.648,1107.271,348.416,1107.271,344.737z M1135.14,344.849
	c0-2.229-0.445-4.014-1.227-5.574c-0.892-1.561-2.006-2.787-3.455-3.567c-1.449-0.892-3.01-1.226-4.683-1.226
	c-1.672,0-3.232,0.445-4.57,1.226c-1.449,0.78-2.563,2.007-3.455,3.567c-0.893,1.561-1.227,3.345-1.227,5.463
	c0,2.117,0.445,4.013,1.227,5.685c0.892,1.561,2.006,2.787,3.455,3.679c1.449,0.893,3.01,1.338,4.57,1.338
	c1.673,0,3.233-0.445,4.683-1.227c1.449-0.892,2.563-2.006,3.455-3.566C1134.806,348.973,1135.14,347.078,1135.14,344.849z"/>
<path fill="#FF24BD" d="M1160.891,334.481v17.167c0,1.227,0.223,2.118,0.78,2.676c0.558,0.557,1.561,0.78,2.898,0.78h4.125v7.58
	h-5.686c-7.58,0-11.37-3.679-11.37-11.036v-17.167h-4.236v-7.357h4.236v-8.807h9.029v8.807h7.915v7.357H1160.891z"/>
<path fill="#FF24BD" d="M1177.278,322.888c-1.561,0-2.898-0.446-4.013-1.449c-1.004-1.003-1.561-2.341-1.561-3.79
	s0.557-2.787,1.561-3.679c1.114-1.003,2.341-1.561,4.013-1.561c1.673,0,2.898,0.557,3.902,1.561
	c1.114,1.003,1.561,2.229,1.561,3.679s-0.558,2.787-1.561,3.79C1180.176,322.441,1178.838,322.888,1177.278,322.888z
	 M1181.737,327.124v35.561h-8.918v-35.561H1181.737z"/>
<path fill="#FF24BD" d="M1203.809,363.242c-3.455,0-6.466-0.78-9.252-2.229c-2.787-1.561-4.905-3.679-6.466-6.466
	s-2.341-6.02-2.341-9.587c0-3.679,0.78-6.8,2.341-9.587c1.672-2.787,3.79-4.905,6.577-6.354c2.787-1.561,5.908-2.341,9.252-2.341
	c3.456,0,6.466,0.78,9.253,2.341c2.787,1.449,4.905,3.679,6.577,6.354c1.672,2.787,2.452,6.02,2.452,9.587
	c0,3.679-0.78,6.8-2.452,9.587s-3.79,4.905-6.688,6.466C1210.386,362.462,1207.265,363.242,1203.809,363.242z M1203.809,355.438
	c1.673,0,3.121-0.334,4.57-1.114s2.564-2.007,3.456-3.567s1.227-3.456,1.227-5.797c0-3.345-0.892-5.908-2.676-7.804
	c-1.783-1.783-3.901-2.786-6.466-2.786c-2.563,0-4.682,0.892-6.465,2.786c-1.673,1.784-2.564,4.348-2.564,7.804
	s0.78,6.02,2.453,7.804C1199.016,354.547,1201.245,355.438,1203.809,355.438z"/>
<path fill="#FF24BD" d="M1245.947,326.566c4.236,0,7.692,1.338,10.256,4.013c2.564,2.676,3.902,6.354,3.902,11.148v20.846h-8.918
	v-19.62c0-2.787-0.669-5.017-2.118-6.466c-1.449-1.561-3.345-2.341-5.797-2.341c-2.453,0-4.459,0.78-5.908,2.341
	c-1.449,1.449-2.118,3.679-2.118,6.466v19.62h-8.918v-35.449h8.918v4.459c1.227-1.561,2.676-2.787,4.57-3.567
	C1241.711,327.013,1243.717,326.566,1245.947,326.566z"/>
<path fill="#FF24BD" d="M825.015,326.232v-10.813c-13.154,0.446-23.744,11.259-23.744,24.524v1.672h-23.075v-1.672
	c0-25.974,20.846-47.154,46.708-47.6v-11.705l39.573,23.187L825.015,326.232z"/>
<path fill="#FF24BD" d="M845.192,339.943v1.672c0,13.266-10.479,24.079-23.744,24.525v-10.702l-39.573,22.295l39.573,23.188v-11.705
	c25.862-0.446,46.708-21.626,46.708-47.601v-1.672H845.192z"/>
<g>
	<path d="M298.709,124.445c-161.571,0-292.569,133.877-292.569,299c0,165.123,130.999,299,292.569,299
		c161.573,0,292.57-133.877,292.57-299C591.28,258.323,460.282,124.445,298.709,124.445z M298.709,170.442
		c136.412,0.173,246.928,113.246,246.928,252.68c0,139.559-110.687,252.68-247.244,252.68
		c-136.557,0-247.246-113.123-247.246-252.68c0-69.768,27.672-132.931,72.411-178.654c44.788-45.721,106.642-74.002,174.956-74.002
		h0.172L298.709,170.442z M298.709,239.461c-107.08,19.285-202.555,120.198-202.555,229.98
		c52.395-94.534,87.38-101.336,97.06-101.336c9.679,0,14.774,5.133,14.774,16.52v140.879c0,17.518-33.304,14.65-44.324,12.932
		c40.716,61.918,135.045,69.02,135.045,69.02l45.008-45.997l45.007,22.998c71.044-33.237,112.517-104.401,112.517-114.99
		c-17.091,21.628-40.131,37.75-66.584,45.748l-0.951,0.248c-5.972,0-22.503-3.138-22.503-11.511V337.184
		c0-14.477,32.719-58.654,45.007-74.75c-81.236,21.752-104.789,59.65-104.789,59.65s-6.167-13.655-30.231-13.655
		c12.216,11.786,20.432,27.757,22.48,45.647l0.024,0.349v140.878c-12.803,9.294-27.892,16.27-44.203,19.96l-0.829,0.148
		c-15.604,0-23.211-6.479-23.211-18.688c0-12.21,0.707-165.297,0.707-165.297s-22.503,8.446-22.503-38.82
		c0-23.646,45.007-53.198,45.007-53.198L298.709,239.461z"/>
</g>
</svg>
